<svg width="18" height="18" viewBox="0 0 18 18" fill="none" xmlns="http://www.w3.org/2000/svg">
<path d="M14.8922 0.722168H3.01276C1.67154 0.722168 0.649658 1.74405 0.649658 3.08527V14.9647C0.649658 16.3059 1.67154 17.3278 3.01276 17.3278H14.8922C16.2334 17.3278 17.2553 16.3059 17.2553 14.9647V3.08527C17.2553 1.74405 16.2334 0.722168 14.8922 0.722168ZM8.95246 14.0066C11.6988 14.0066 13.9341 11.8351 13.9341 9.21657C13.9341 8.7695 13.8703 8.25856 13.7425 7.87535H15.1476V14.6453C15.1476 14.9647 14.8922 15.284 14.5089 15.284H3.39597C3.07663 15.284 2.75729 15.0285 2.75729 14.6453V7.81148H4.22625C4.09852 8.25855 4.03465 8.70563 4.03465 9.1527C3.97078 11.8351 6.20615 14.0066 8.95246 14.0066ZM8.95246 12.0906C7.16416 12.0906 5.75907 10.6855 5.75907 8.9611C5.75907 7.23667 7.16416 5.83158 8.95246 5.83158C10.7408 5.83158 12.1458 7.23667 12.1458 8.9611C12.1458 10.7494 10.7408 12.0906 8.95246 12.0906ZM15.0838 5.25677C15.0838 5.63998 14.7644 5.95932 14.3812 5.95932H12.5929C12.2097 5.95932 11.8904 5.63998 11.8904 5.25677V3.53235C11.8904 3.14914 12.2097 2.8298 12.5929 2.8298H14.3812C14.7644 2.8298 15.0838 3.14914 15.0838 3.53235V5.25677Z" fill="white"/>
</svg>
