<svg width="272" height="31" viewBox="0 0 272 31" fill="none" xmlns="http://www.w3.org/2000/svg">
<path d="M2.03771 30.0531C1.67887 29.8189 1.39692 29.5197 1.19187 29.1554C0.961185 28.7911 0.781764 28.4008 0.653606 27.9845C0.499816 27.5682 0.384474 27.1389 0.307579 26.6965C0.205053 26.2282 0.102526 25.7858 0 25.3695C0 25.0052 0.0768948 24.745 0.230684 24.5889C0.384474 24.4068 0.551079 24.2376 0.730501 24.0815C1.34566 24.0555 1.89674 24.0035 2.38374 23.9254C2.87074 23.8473 3.34492 23.7693 3.80629 23.6912C4.26766 23.6131 4.72903 23.5481 5.1904 23.4961C5.65177 23.418 6.15158 23.379 6.68985 23.379C7.07432 22.5723 7.43316 21.8048 7.76638 21.0762C8.09959 20.3216 8.41998 19.6061 8.72756 18.9296C8.88135 18.2791 9.07359 17.6806 9.30427 17.1342C9.56059 16.5617 9.80409 16.0283 10.0348 15.5339C10.2655 15.0135 10.4705 14.5062 10.6499 14.0118C10.8294 13.4914 10.9447 12.9449 10.996 12.3725C11.3035 11.4618 11.5727 10.6292 11.8034 9.87459C12.0597 9.09399 12.2519 8.17028 12.3801 7.10346C11.4061 7.25958 10.6243 7.4157 10.0348 7.57182C9.44525 7.70192 9.02232 7.83202 8.76601 7.96212C8.25338 7.9361 7.84327 7.83202 7.53569 7.64988C7.25374 7.46774 7.02306 7.24657 6.84364 6.98637C6.66422 6.72617 6.51043 6.42694 6.38227 6.08868C6.25411 5.75042 6.10032 5.39915 5.9209 5.03487C6.02343 4.80069 6.04906 4.46243 5.99779 4.02009C5.94653 3.55173 5.79274 3.21347 5.53643 3.00531C5.74148 2.95327 5.89527 2.78414 5.99779 2.49792C6.10032 2.18568 6.11314 1.9515 6.03624 1.79538C6.47198 1.66528 6.93335 1.58722 7.42035 1.5612C7.90735 1.50916 8.38153 1.47013 8.8429 1.44411C9.3299 1.39207 9.79127 1.34003 10.227 1.28799C10.6627 1.20993 11.0344 1.06682 11.342 0.85866C12.6748 0.80662 14.0589 0.75458 15.4943 0.70254C16.9553 0.6505 18.301 0.58545 19.5313 0.50739C19.9926 0.66351 20.5181 0.74157 21.1076 0.74157C21.7228 0.74157 22.3251 0.7806 22.9147 0.85866C23.5298 0.93672 24.0681 1.10585 24.5294 1.36605C25.0164 1.62625 25.3497 2.0816 25.5291 2.7321C25.9135 2.78414 26.1955 2.88822 26.3749 3.04434C26.58 3.20046 26.7081 3.39561 26.7594 3.62979C26.8107 3.83795 26.8235 4.08514 26.7978 4.37136C26.7978 4.63156 26.7978 4.89176 26.7978 5.15196C26.3877 5.4642 25.8623 5.7244 25.2215 5.93256C24.6063 6.1147 23.9271 6.27082 23.1838 6.40092C22.4405 6.505 21.6587 6.58306 20.8385 6.6351C20.0439 6.66112 19.2621 6.68714 18.4932 6.71316C18.365 7.57182 18.1344 8.5866 17.8011 9.7575C17.4936 10.9024 17.1732 12.0342 16.84 13.1531C16.5068 14.2459 16.212 15.2347 15.9557 16.1194C15.725 16.9781 15.6225 17.5375 15.6481 17.7977C15.3918 18.3961 15.1739 18.9035 14.9945 19.3198C14.8407 19.7362 14.6869 20.1265 14.5331 20.4907C14.405 20.855 14.264 21.2193 14.1102 21.5836C13.982 21.9218 13.8154 22.3121 13.6104 22.7545H16.2248C16.2761 23.0407 16.3914 23.2359 16.5708 23.3399C16.7503 23.444 16.9425 23.5351 17.1475 23.6131C17.3526 23.6912 17.532 23.7953 17.6858 23.9254C17.8652 24.0295 17.9549 24.2116 17.9549 24.4718C18.4419 24.6019 18.7495 24.7971 18.8777 25.0573C19.0058 25.3175 19.0315 25.6037 18.9546 25.9159C18.9033 26.2021 18.7751 26.5014 18.5701 26.8136C18.3907 27.1259 18.2113 27.3991 18.0318 27.6332C17.8011 27.5812 17.5833 27.6463 17.3782 27.8284C17.1732 27.9845 16.9809 28.1666 16.8015 28.3748C16.0582 28.2707 15.3277 28.2577 14.61 28.3358C13.8923 28.4138 13.2259 28.4789 12.6107 28.5309C12.4826 28.5569 12.4313 28.635 12.457 28.7651C12.4826 28.8692 12.457 28.9473 12.3801 28.9993C11.5855 28.7391 10.7653 28.635 9.91943 28.687C9.09922 28.7391 8.25338 28.8692 7.3819 29.0773C6.53606 29.2595 5.66458 29.4546 4.76748 29.6628C3.87037 29.897 2.96045 30.0271 2.03771 30.0531Z" fill="#474747"/>
<path d="M29.5661 22.4813C29.3354 22.5333 29.1688 22.6764 29.0662 22.9106C28.9637 23.1188 28.8612 23.3399 28.7587 23.5741C28.6818 23.8083 28.5921 24.0295 28.4895 24.2376C28.4126 24.4198 28.2845 24.5108 28.1051 24.5108C28.0794 24.719 28.0025 24.9011 27.8744 25.0573C27.7718 25.2134 27.6693 25.3825 27.5668 25.5646C27.4643 25.7208 27.3874 25.9029 27.3361 26.1111C27.2848 26.2932 27.3105 26.5144 27.413 26.7746C27.2079 26.9307 27.0798 27.1519 27.0285 27.4381C26.9773 27.7243 26.9132 27.9975 26.8363 28.2577C26.785 28.5179 26.6825 28.7391 26.5287 28.9212C26.3749 29.1034 26.093 29.1814 25.6829 29.1554C25.606 29.2595 25.5932 29.3245 25.6444 29.3506C25.6957 29.3766 25.7341 29.4676 25.7598 29.6238C25.4778 29.5717 25.2599 29.5847 25.1062 29.6628C24.978 29.7669 24.8114 29.8319 24.6063 29.858C24.1193 29.7018 23.7092 29.4286 23.376 29.0383C23.0684 28.648 22.7865 28.2187 22.5302 27.7503C22.2995 27.2559 22.0816 26.7616 21.8766 26.2672C21.6972 25.7728 21.5177 25.3435 21.3383 24.9792C21.4152 24.693 21.428 24.4198 21.3768 24.1596C21.3255 23.8733 21.2358 23.6392 21.1076 23.457C22.3636 20.7509 23.7349 17.8627 25.2215 14.7924C26.7081 11.722 28.1179 8.69068 29.4507 5.69838C30.0402 5.93256 30.6169 6.20577 31.1808 6.51801C31.7704 6.80423 32.2958 7.14249 32.7572 7.53279C33.2442 7.92309 33.6543 8.37844 33.9875 8.89884C34.3207 9.39322 34.5386 9.95265 34.6411 10.5771C34.5898 10.7333 34.5258 10.7983 34.4489 10.7723C34.3976 10.7202 34.3463 10.7332 34.2951 10.8113C34.3976 10.9414 34.4489 11.0325 34.4489 11.0845C34.4745 11.1366 34.4745 11.1886 34.4489 11.2406C34.4489 11.2927 34.4489 11.3707 34.4489 11.4748C34.4489 11.5529 34.4873 11.67 34.5642 11.8261C34.4617 11.8001 34.3848 11.8131 34.3335 11.8651C34.3079 11.9172 34.231 11.9172 34.1028 11.8651C34.2054 12.1513 34.231 12.3855 34.1797 12.5677C34.1541 12.7498 34.1028 12.9189 34.026 13.075C33.9491 13.2051 33.885 13.3613 33.8337 13.5434C33.7825 13.6995 33.7953 13.9077 33.8722 14.1679C33.7953 14.1679 33.7312 14.1939 33.6799 14.2459C33.6543 14.272 33.6287 14.311 33.603 14.363C33.5774 14.3891 33.5389 14.4281 33.4877 14.4801C33.4621 14.5062 33.4108 14.5062 33.3339 14.4801C33.4108 15.0526 33.4364 15.625 33.4108 16.1975C33.3852 16.7699 33.3595 17.3553 33.3339 17.9538C33.3339 18.5262 33.3467 19.1377 33.3723 19.7882C33.398 20.4127 33.4877 21.0632 33.6415 21.7397C34.5642 21.1933 35.2947 20.4907 35.833 19.6321C36.3969 18.7734 36.8454 17.8107 37.1786 16.7439C37.5375 15.677 37.8066 14.5322 37.986 13.3092C38.1655 12.0863 38.3577 10.8373 38.5627 9.56235C38.7934 9.32817 38.9729 9.04195 39.101 8.70369C39.2292 8.36543 39.3445 8.01416 39.447 7.64988C39.5496 7.25958 39.6521 6.88229 39.7546 6.51801C39.8571 6.12771 39.9853 5.77644 40.1391 5.4642C40.5236 5.51624 40.844 5.64634 41.1003 5.8545C41.3822 6.03664 41.6385 6.2448 41.8692 6.47898C42.0999 6.68714 42.3434 6.8953 42.5997 7.10346C42.856 7.2856 43.1764 7.40269 43.5609 7.45473C43.8685 7.89707 44.1504 8.3264 44.4067 8.74272C44.6631 9.15904 44.8297 9.60138 44.9066 10.0697C44.7784 10.2779 44.6759 10.5121 44.599 10.7723C44.5477 11.0325 44.4836 11.2927 44.4067 11.5529C44.3299 11.8131 44.2273 12.0603 44.0992 12.2944C43.971 12.5026 43.7916 12.6847 43.5609 12.8409C43.484 13.5174 43.3815 14.1419 43.2533 14.7143C43.1508 15.2607 43.0355 15.8071 42.9073 16.3536C42.8048 16.9 42.7151 17.4724 42.6382 18.0709C42.5613 18.6433 42.5356 19.2808 42.5613 19.9834C42.3562 20.5818 42.1384 21.2193 41.9077 21.8958C41.677 22.5724 41.4976 23.1838 41.3694 23.7302C40.9593 24.0685 40.6389 24.4718 40.4082 24.9402C40.1775 25.4085 39.934 25.8769 39.6777 26.3452C39.5752 26.4493 39.5111 26.4753 39.4855 26.4233C39.4598 26.3713 39.3701 26.3322 39.2164 26.3062C39.242 26.4103 39.242 26.4884 39.2164 26.5404C39.1907 26.5924 39.1523 26.6445 39.101 26.6965C39.0754 26.7225 39.0497 26.7746 39.0241 26.8526C39.0241 26.9307 39.0497 27.0348 39.101 27.1649C38.7422 27.321 38.4218 27.5422 38.1398 27.8284C37.8579 28.1146 37.5503 28.3748 37.2171 28.609C36.9095 28.8432 36.525 28.9993 36.0637 29.0773C35.6279 29.1554 35.0512 29.0643 34.3335 28.8041C33.2826 28.0235 32.3471 27.1258 31.5269 26.1111C30.7323 25.0963 30.0787 23.8864 29.5661 22.4813Z" fill="#474747"/>
<path d="M56.7099 22.7155C56.6843 23.0797 56.5946 23.431 56.4408 23.7693C56.3126 24.0815 56.146 24.3937 55.941 24.706C55.7359 24.9922 55.5052 25.2784 55.2489 25.5646C55.0182 25.8248 54.7875 26.059 54.5569 26.2672C54.6338 26.6054 54.6338 26.8657 54.5569 27.0478C54.5056 27.2039 54.4928 27.4511 54.5184 27.7894C54.1339 28.8302 53.5444 29.5197 52.7498 29.858C51.9809 30.2222 51.2504 30.1572 50.5583 29.6628C50.2764 29.4546 50.0329 29.1944 49.8278 28.8822C49.6484 28.5439 49.3921 28.3358 49.0589 28.2577C49.1358 27.8154 49.0973 27.373 48.9435 26.9307C48.7898 26.4884 48.6231 26.2542 48.4437 26.2282C48.3668 25.6817 48.2515 25.0963 48.0977 24.4718C47.9439 23.8473 47.8029 23.2228 47.6748 22.5984C47.5466 21.9479 47.4313 21.3234 47.3288 20.7249C47.2519 20.1004 47.2262 19.528 47.2519 19.0076C47.2775 18.7474 47.2262 18.5132 47.0981 18.3051C46.9955 18.0969 46.9186 17.8497 46.8674 17.5635C46.7649 16.965 46.7264 16.3406 46.752 15.6901C46.8033 15.0135 46.8289 14.376 46.8289 13.7776C46.8289 13.2051 46.7905 12.5937 46.7136 11.9432C46.6623 11.2667 46.6111 10.6292 46.5598 10.0307C46.5085 9.40623 46.4829 8.8468 46.4829 8.35242C46.4829 7.83202 46.547 7.42871 46.6751 7.14249C46.8289 6.83025 47.034 6.58306 47.2903 6.40092C47.5723 6.19276 47.8286 5.97159 48.0593 5.73741C48.6231 5.78945 49.0717 6.02363 49.4049 6.43995C49.7381 6.85627 49.8663 7.24657 49.7894 7.61085C50.3277 7.94911 50.7506 8.39145 51.0582 8.93787C51.3914 9.45827 51.6477 10.0567 51.8271 10.7332C52.0322 11.3837 52.1731 12.0863 52.25 12.8409C52.3269 13.5694 52.391 14.298 52.4423 15.0265C52.4935 15.7291 52.5448 16.4056 52.596 17.0561C52.6473 17.7066 52.7498 18.266 52.9036 18.7344C53.852 17.3553 54.6466 16.1324 55.2874 15.0656C55.9282 13.9727 56.5818 12.9319 57.2482 11.9432C57.9146 10.9544 58.6579 9.95265 59.4781 8.93787C60.2983 7.92309 61.3621 6.77821 62.6693 5.50323C62.9256 5.52925 63.1306 5.58129 63.2844 5.65935C63.4638 5.73741 63.6176 5.80246 63.7458 5.8545C63.874 5.90654 64.0277 5.95858 64.2072 6.01062C64.3866 6.03664 64.6301 6.02363 64.9377 5.97159C65.0402 6.23179 65.1171 6.42694 65.1684 6.55704C65.2196 6.66112 65.2581 6.77821 65.2837 6.90831C65.335 7.01239 65.3862 7.1555 65.4375 7.33764C65.5144 7.51978 65.6297 7.77998 65.7835 8.11824C65.8604 8.1963 65.886 8.30038 65.8604 8.43048C65.8348 8.56058 65.8091 8.69068 65.7835 8.82078C65.7835 8.92486 65.7835 9.00292 65.7835 9.05496C65.7835 9.107 65.8476 9.107 65.9757 9.05496C65.8988 9.41924 65.7579 9.7575 65.5528 10.0697C65.3734 10.356 65.2965 10.7072 65.3221 11.1235C64.7326 11.9041 64.079 12.7108 63.3613 13.5434C62.6693 14.376 61.9644 15.2347 61.2467 16.1194C60.5547 17.0041 59.8882 17.9408 59.2474 18.9296C58.6067 19.8923 58.0556 20.9071 57.5942 21.9739C57.466 21.9739 57.3635 22.0129 57.2866 22.091C57.2354 22.169 57.1841 22.2601 57.1328 22.3642C57.0816 22.4422 57.0175 22.5203 56.9406 22.5984C56.8893 22.6764 56.8124 22.7155 56.7099 22.7155Z" fill="#474747"/>
<path d="M84.4689 7.61085C84.4946 7.79299 84.4946 7.9361 84.4689 8.04018C84.4689 8.11824 84.4561 8.1963 84.4305 8.27436C84.4305 8.35242 84.4305 8.44349 84.4305 8.54757C84.4305 8.62563 84.4561 8.75573 84.5074 8.93787C83.9691 9.82255 83.3412 10.434 82.6235 10.7723C81.9314 11.0845 81.1753 11.3187 80.3551 11.4748C79.5349 11.6049 78.689 11.748 77.8175 11.9042C76.9717 12.0603 76.1259 12.3985 75.28 12.9189C74.9468 12.7888 74.6392 12.7888 74.3573 12.9189C74.101 13.049 73.7165 13.0881 73.2039 13.036C73.0501 13.1921 72.8578 13.3092 72.6271 13.3873C72.3965 13.4393 72.1658 13.5044 71.9351 13.5824C72.0376 13.8166 72.0761 14.0638 72.0504 14.324C72.0504 14.5582 72.0889 14.7533 72.1658 14.9095C73.0629 14.9875 74.0497 14.9745 75.1262 14.8704C76.2284 14.7663 77.3049 14.7013 78.3558 14.6753C78.3814 14.8054 78.3686 14.8965 78.3174 14.9485C78.2661 14.9745 78.2533 15.0396 78.2789 15.1436C78.4583 15.2737 78.6378 15.4429 78.8172 15.651C78.9966 15.8332 79.176 16.0153 79.3554 16.1975C79.5349 16.3796 79.7143 16.5357 79.8937 16.6658C80.0988 16.7699 80.3294 16.8089 80.5858 16.7829C80.6883 16.9911 80.7524 17.2252 80.778 17.4854C80.8293 17.7196 80.8036 17.9668 80.7011 18.227C80.291 18.5132 79.8809 18.8125 79.4708 19.1247C79.0607 19.4109 78.6249 19.6711 78.1636 19.9053C77.7278 20.1395 77.2536 20.3346 76.741 20.4907C76.254 20.6208 75.7029 20.6729 75.0878 20.6469C74.9596 20.6469 74.8571 20.6469 74.7802 20.6469C74.7289 20.6469 74.652 20.6078 74.5495 20.5298C74.3445 20.6599 74.0497 20.6989 73.6652 20.6469C73.3064 20.5948 73.0244 20.6339 72.8194 20.764C72.5374 20.6339 72.1914 20.5818 71.7813 20.6078C71.3968 20.6078 71.0508 20.5558 70.7432 20.4517C70.3331 20.9981 69.9615 21.5836 69.6282 22.2081C69.295 22.8325 69.0003 23.4961 68.744 24.1986C69.6154 24.3287 70.3331 24.3807 70.897 24.3547C71.4865 24.3287 72.0376 24.2897 72.5502 24.2376C73.0629 24.1596 73.5883 24.0945 74.1266 24.0425C74.6649 23.9644 75.3441 23.9384 76.1643 23.9644C76.6769 23.6782 77.2793 23.4961 77.9713 23.418C78.689 23.3139 79.3426 23.1578 79.9322 22.9496C80.1372 23.0277 80.3166 23.1708 80.4704 23.379C80.6242 23.5611 80.7652 23.7433 80.8933 23.9254C81.0471 24.0815 81.2009 24.2246 81.3547 24.3547C81.5085 24.4848 81.7007 24.5369 81.9314 24.5108C82.0339 24.6149 82.098 24.745 82.1236 24.9011C82.1749 25.0312 82.2134 25.1613 82.239 25.2914C82.2646 25.4215 82.3031 25.5386 82.3543 25.6427C82.4312 25.7208 82.5466 25.7468 82.7004 25.7208C82.3159 26.5794 81.8673 27.2429 81.3547 27.7113C80.8677 28.1536 80.3038 28.4919 79.663 28.7261C79.0222 28.9603 78.3045 29.1424 77.51 29.2725C76.741 29.4026 75.8824 29.5587 74.934 29.7409C74.7033 29.7929 74.5111 29.7799 74.3573 29.7018C74.2035 29.6498 74.0241 29.6238 73.819 29.6238C73.2295 29.7539 72.5246 29.871 71.7044 29.975C70.8842 30.0791 70.0512 30.1181 69.2053 30.0921C68.3595 30.0661 67.5521 29.949 66.7831 29.7409C66.0142 29.5587 65.3862 29.2205 64.8992 28.7261C64.6942 28.5439 64.5532 28.3358 64.4763 28.1016C64.425 27.8414 64.2584 27.6462 63.9765 27.5161C63.9508 27.1779 63.8996 26.8006 63.8227 26.3843C63.7458 25.968 63.6689 25.5386 63.592 25.0963C63.5151 24.6279 63.451 24.1726 63.3998 23.7302C63.3741 23.2879 63.3998 22.8846 63.4767 22.5203C63.5536 22.13 63.7073 21.7787 63.938 21.4665C64.1943 21.1543 64.2841 20.816 64.2072 20.4517C64.3353 20.4257 64.4122 20.3606 64.4378 20.2566C64.4635 20.1265 64.566 20.0744 64.7454 20.1005C64.8992 19.6321 65.0658 19.1897 65.2452 18.7734C65.4247 18.3571 65.6041 17.9538 65.7835 17.5635C65.9886 17.1732 66.1808 16.7829 66.3602 16.3926C66.5653 15.9763 66.7575 15.5209 66.9369 15.0265C66.5781 14.6883 66.309 14.324 66.1295 13.9337C65.9757 13.5174 65.8604 13.1141 65.7835 12.7238C65.7066 12.3075 65.6425 11.8911 65.5913 11.4748C65.54 11.0325 65.4503 10.5901 65.3221 10.1478C65.5785 9.7575 65.886 9.44526 66.2449 9.21108C66.6293 8.95088 67.0395 8.74272 67.4752 8.5866C67.9109 8.43048 68.3851 8.30038 68.8977 8.1963C69.4104 8.09222 69.9486 7.97513 70.5125 7.84503C71.5378 7.50677 72.4477 7.24657 73.2423 7.06443C74.0625 6.88229 74.8571 6.73918 75.626 6.6351C76.4206 6.505 77.2408 6.38791 78.0867 6.28383C78.9325 6.17975 79.8937 6.02363 80.9702 5.81547C81.2009 6.04965 81.4188 6.16674 81.6238 6.16674C81.7264 5.93256 81.8417 5.86751 81.9699 5.97159C82.1237 6.04965 82.1877 5.97159 82.1621 5.73741C82.4184 6.17975 82.7388 6.55704 83.1233 6.86928C83.5334 7.1555 83.9819 7.40269 84.4689 7.61085Z" fill="#474747"/>
<path d="M84.1614 12.0212C84.3408 11.4748 84.6227 11.0065 85.0072 10.6162C85.4173 10.2259 85.853 9.90061 86.3144 9.64041C86.8014 9.35419 87.3012 9.12001 87.8139 8.93787C88.3265 8.75573 88.8135 8.59961 89.2749 8.46951C90.3001 8.02717 91.3895 7.61085 92.5429 7.22055C93.722 6.80423 94.9138 6.43995 96.1185 6.12771C97.3488 5.81547 98.6048 5.62032 99.8864 5.54226C101.168 5.43818 102.514 5.5943 103.923 6.01062C104 6.27082 104.116 6.51801 104.269 6.75219C104.423 6.98637 104.577 7.22055 104.731 7.45473C104.91 7.68891 105.064 7.92309 105.192 8.15727C105.32 8.36543 105.397 8.5866 105.423 8.82078C105.679 9.05496 105.884 9.31516 106.038 9.60138C106.192 9.86158 106.217 10.2128 106.115 10.6552C105.859 10.8633 105.602 11.0585 105.346 11.2406C105.115 11.3968 104.859 11.5399 104.577 11.67C103.629 11.4358 102.667 11.3577 101.693 11.4358C100.719 11.5139 99.8479 11.5789 99.079 11.6309C98.8483 11.3968 98.5663 11.2797 98.2331 11.2797C97.9255 11.2797 97.5923 11.3317 97.2335 11.4358C96.9003 11.5399 96.5542 11.6439 96.1954 11.748C95.8622 11.8521 95.5418 11.8781 95.2342 11.8261C94.9779 12.0342 94.6575 12.1774 94.273 12.2554C93.9142 12.3075 93.5169 12.3595 93.0812 12.4115C93.0555 12.5416 93.0812 12.6327 93.1581 12.6847C93.235 12.7108 93.2478 12.7888 93.1965 12.9189C93.3503 13.1011 93.5425 13.2312 93.7732 13.3092C94.0295 13.3873 94.2858 13.4653 94.5422 13.5434C94.8241 13.6215 95.0676 13.7255 95.2727 13.8556C95.4777 13.9597 95.6187 14.1419 95.6956 14.4021C96.0801 14.4021 96.4133 14.4931 96.6952 14.6753C96.9772 14.8574 97.2078 15.0786 97.3873 15.3388C97.5667 15.599 97.6948 15.8852 97.7717 16.1975C97.8743 16.4837 97.9255 16.7439 97.9255 16.9781C98.0024 17.1862 98.0921 17.2773 98.1947 17.2513C98.2972 17.2252 98.4125 17.2773 98.5407 17.4074C98.6176 17.7456 98.8098 18.0969 99.1174 18.4612C99.425 18.7994 99.6685 19.1767 99.8479 19.5931C99.8992 20.2436 99.9376 20.829 99.9632 21.3494C99.9889 21.8438 99.8992 22.3512 99.6941 22.8716C99.3096 23.8343 98.7714 24.693 98.0793 25.4476C97.4129 26.2021 96.644 26.8787 95.7725 27.4771C94.9266 28.0496 94.0167 28.5439 93.0427 28.9603C92.0687 29.3766 91.1203 29.7279 90.1976 30.0141C90.0951 29.9881 89.9926 29.9881 89.89 30.0141C89.7875 30.0401 89.7619 29.975 89.8131 29.8189C89.6081 30.0011 89.3774 30.1181 89.1211 30.1702C88.8904 30.2222 88.6341 30.2352 88.3521 30.2092C88.0702 30.2092 87.7754 30.1962 87.4678 30.1702C87.1859 30.1442 86.9168 30.1572 86.6604 30.2092C86.481 30.0271 86.3144 29.8449 86.1606 29.6628C86.0325 29.5067 85.9299 29.2985 85.8531 29.0383C85.7249 29.0383 85.6608 28.9733 85.6608 28.8432C85.6864 28.7131 85.648 28.648 85.5455 28.648C85.6993 28.3878 85.7633 28.2447 85.7377 28.2187C85.7377 28.1666 85.6993 28.1276 85.6224 28.1016C85.5711 28.0756 85.5198 28.0496 85.4686 28.0235C85.4173 27.9715 85.4045 27.9065 85.4301 27.8284C85.5327 27.6202 85.5711 27.386 85.5455 27.1258C85.5198 26.8396 85.4942 26.5534 85.4686 26.2672C85.4429 25.981 85.4558 25.7078 85.507 25.4476C85.5839 25.1874 85.7762 24.9792 86.0837 24.8231C86.9552 24.9272 87.7754 24.9011 88.5444 24.745C89.3389 24.5629 90.0823 24.3157 90.7743 24.0035C91.4664 23.6912 92.12 23.353 92.7351 22.9887C93.3759 22.6244 94.0039 22.2991 94.6191 22.0129C94.696 21.7787 94.7985 21.5836 94.9266 21.4275C95.0804 21.2713 95.2342 21.1282 95.388 20.9981C95.5418 20.868 95.6828 20.7249 95.8109 20.5688C95.9391 20.4127 96.0288 20.2175 96.0801 19.9834C96.1057 19.8012 96.0544 19.6971 95.9263 19.6711C95.8237 19.6191 95.7725 19.515 95.7725 19.3589L95.3496 19.2418C94.8626 18.9556 94.3115 18.7214 93.6963 18.5392C93.0812 18.3311 92.5557 18.1099 92.12 17.8757C91.838 18.0319 91.5689 18.0709 91.3126 17.9928C91.0819 17.9148 90.7743 17.8367 90.3898 17.7586C89.5184 17.7066 88.6725 17.6155 87.8523 17.4854C87.0577 17.3553 86.2888 17.1212 85.5455 16.7829C85.4942 16.6528 85.4301 16.5357 85.3532 16.4316C85.2763 16.3275 85.1354 16.3015 84.9303 16.3536C84.7765 16.1454 84.6227 15.9503 84.4689 15.7681C84.3152 15.56 84.1742 15.3388 84.046 15.1046C84.0973 14.7924 84.1357 14.5322 84.1614 14.324C84.187 14.0898 84.1101 13.8687 83.9307 13.6605C84.0332 13.3222 84.1101 13.049 84.1614 12.8409C84.2126 12.6327 84.2126 12.3595 84.1614 12.0212Z" fill="#474747"/>
<path d="M123.685 10.8113C123.045 10.8113 122.352 10.8634 121.609 10.9674C120.866 11.0455 120.135 11.1366 119.418 11.2406C118.905 11.3187 118.405 11.3838 117.918 11.4358C117.457 11.4878 117.034 11.5269 116.649 11.5529C116.47 12.1253 116.291 12.6327 116.111 13.075C115.932 13.5174 115.739 13.9467 115.534 14.363C115.329 14.8054 115.137 15.2607 114.958 15.7291C114.804 16.1714 114.65 16.6528 114.496 17.1732C114.24 17.5895 114.022 17.9798 113.843 18.3441C113.689 18.6824 113.561 19.0727 113.458 19.515C113.151 19.9053 112.92 20.3216 112.766 20.764C112.612 21.1803 112.497 21.5446 112.42 21.8568L112.266 22.3252C112.113 22.4813 112.023 22.6114 111.997 22.7155C111.972 22.7935 111.908 22.8716 111.805 22.9496C111.779 23.2359 111.69 23.5221 111.536 23.8083C111.485 23.9384 111.446 24.0685 111.421 24.1986C111.395 24.3027 111.382 24.3807 111.382 24.4328C111.382 24.693 111.318 24.8621 111.19 24.9402C111.216 25.0703 111.216 25.2134 111.19 25.3695C111.164 25.4996 111.139 25.6297 111.113 25.7598C111.036 26.072 111.01 26.3192 111.036 26.5014C111.113 26.6054 111.177 26.6965 111.228 26.7746C111.305 26.8526 111.356 26.9567 111.382 27.0868C111.536 27.1909 111.651 27.2559 111.728 27.282C111.831 27.36 111.984 27.4511 112.19 27.5552L112.536 27.9455C112.664 28.7001 112.548 29.2985 112.19 29.7409C111.805 30.2352 111.151 30.4824 110.229 30.4824H109.767C109.639 30.3523 109.562 30.2482 109.537 30.1702C109.332 30.0921 109.165 30.0271 109.037 29.975C108.909 29.923 108.793 29.8189 108.691 29.6628C108.358 29.5067 108.088 29.3766 107.883 29.2725L107.537 29.0773C107.537 28.7911 107.537 28.635 107.537 28.609C107.358 28.3748 107.217 28.1146 107.114 27.8284C107.038 27.5422 106.973 27.256 106.922 26.9697C106.871 26.7356 106.807 26.5144 106.73 26.3062C106.679 26.0981 106.602 25.9159 106.499 25.7598C106.448 24.2506 106.589 22.9757 106.922 21.9349C107.255 20.8941 107.601 19.8923 107.96 18.9296C108.165 18.4092 108.37 17.8887 108.575 17.3683C108.781 16.8219 108.96 16.2625 109.114 15.6901L109.46 15.2998C109.639 14.8834 109.78 14.5452 109.883 14.285C110.011 13.9988 110.139 13.7125 110.267 13.4263C110.344 13.2442 110.408 13.0751 110.459 12.9189C110.536 12.7368 110.6 12.5807 110.652 12.4506C110.498 12.4506 110.357 12.4636 110.229 12.4896C110.101 12.4896 109.972 12.5026 109.844 12.5286C109.69 12.5547 109.549 12.5807 109.421 12.6067C109.293 12.6067 109.165 12.6067 109.037 12.6067C108.857 12.6067 108.729 12.5937 108.652 12.5677C108.37 12.6978 108.063 12.7628 107.73 12.7628H107.345C107.268 12.7628 107.191 12.7628 107.114 12.7628C107.063 12.7368 107.012 12.7238 106.961 12.7238C106.704 12.7238 106.499 12.7628 106.346 12.8409C106.038 12.8409 105.743 12.8409 105.461 12.8409H105.077C105.025 12.8409 104.961 12.8539 104.885 12.8799C104.808 12.8799 104.744 12.8799 104.692 12.8799C104.513 12.8799 104.321 12.8669 104.116 12.8409C103.911 12.7888 103.693 12.6978 103.462 12.5677C103.154 12.1513 102.949 11.9302 102.847 11.9042L102.501 11.4358C102.475 11.2797 102.437 11.1366 102.385 11.0065C102.334 10.8503 102.283 10.6812 102.232 10.4991C102.129 10.2389 102.027 9.96566 101.924 9.67944C101.847 9.3672 101.809 9.00292 101.809 8.5866C101.834 8.37844 101.886 8.22232 101.963 8.11824C102.039 8.01416 102.103 7.92309 102.155 7.84503L102.27 7.25958L102.77 7.29861H103.846C104.667 7.29861 105.5 7.27259 106.346 7.22055C107.191 7.14249 108.063 7.06443 108.96 6.98637C109.473 6.93433 109.985 6.88229 110.498 6.83025C111.036 6.77821 111.587 6.72617 112.151 6.67413C112.254 6.43995 112.356 6.21878 112.459 6.01062L112.843 5.81547C113.304 5.78945 113.625 5.8545 113.804 6.01062C114.009 6.14072 114.176 6.27082 114.304 6.40092C114.868 6.34888 115.432 6.29684 115.996 6.2448C116.585 6.16674 117.175 6.07567 117.764 5.97159C118.636 5.84149 119.507 5.7244 120.379 5.62032C121.276 5.51624 122.135 5.4642 122.955 5.4642C123.314 5.4642 123.66 5.47721 123.993 5.50323C124.326 5.52925 124.634 5.56828 124.916 5.62032L125.3 5.89353C125.377 6.04965 125.48 6.19276 125.608 6.32286C125.761 6.45296 125.915 6.58306 126.069 6.71316C126.377 6.99938 126.684 7.33764 126.992 7.72794C127.299 8.11824 127.415 8.69068 127.338 9.44526C127.133 9.7575 126.979 9.93964 126.876 9.99168L126.53 10.46L126.146 10.421C125.992 10.421 125.851 10.447 125.723 10.4991C125.595 10.5251 125.467 10.5641 125.339 10.6162C125.236 10.6682 125.133 10.7202 125.031 10.7723C124.928 10.7983 124.813 10.8243 124.685 10.8503C124.454 10.8503 124.262 10.8503 124.108 10.8503C123.98 10.8243 123.839 10.8113 123.685 10.8113Z" fill="#474747"/>
<path d="M135.835 28.2577C135.758 28.2837 135.707 28.2577 135.681 28.1797C135.655 28.1016 135.642 28.0235 135.642 27.9455C135.668 27.8674 135.707 27.8024 135.758 27.7503C135.835 27.6983 135.924 27.6983 136.027 27.7503C135.694 27.334 135.476 26.9567 135.373 26.6185C135.296 26.2802 135.13 25.8639 134.873 25.3695C134.95 25.2914 135.002 25.1874 135.027 25.0573C135.053 24.9011 135.091 24.758 135.143 24.6279C135.168 24.4978 135.207 24.4068 135.258 24.3547C135.335 24.2767 135.425 24.2897 135.527 24.3937C135.476 24.1075 135.476 23.8733 135.527 23.6912C135.578 23.5091 135.63 23.3399 135.681 23.1838C135.758 23.0277 135.809 22.8716 135.835 22.7155C135.86 22.5593 135.822 22.3772 135.719 22.169C136.206 21.4925 136.527 20.764 136.681 19.9834C136.834 19.1767 136.924 18.4482 136.95 17.7977C137.18 17.5635 137.373 17.2513 137.526 16.861C137.706 16.4707 137.834 16.0673 137.911 15.651C137.988 15.2347 138.026 14.8314 138.026 14.4411C138.026 14.0248 137.975 13.6995 137.872 13.4654C137.898 13.3613 137.949 13.3092 138.026 13.3092C138.129 13.2832 138.244 13.2832 138.372 13.3092C138.552 12.2684 138.667 11.1105 138.718 9.83556C138.795 8.56058 138.923 7.33764 139.103 6.16674C139.308 4.96982 139.628 3.92902 140.064 3.04434C140.5 2.13364 141.192 1.54819 142.14 1.28799C142.319 1.93849 142.55 2.51093 142.832 3.00531C143.14 3.49969 143.46 3.98106 143.793 4.44942C144.152 4.91778 144.511 5.38614 144.87 5.8545C145.229 6.32286 145.562 6.84326 145.869 7.4157C145.844 8.01416 145.78 8.70369 145.677 9.48429C145.6 10.2649 145.485 11.0585 145.331 11.8651C145.203 12.6717 145.062 13.4523 144.908 14.2069C144.78 14.9615 144.652 15.599 144.524 16.1194C144.549 16.2495 144.639 16.3406 144.793 16.3926C144.947 16.4186 144.972 16.5617 144.87 16.8219C145.613 16.6398 146.382 16.4707 147.177 16.3145C147.997 16.1324 148.791 15.9633 149.56 15.8071C150.355 15.625 151.124 15.4168 151.867 15.1827C152.636 14.9485 153.354 14.6623 154.02 14.324C154.174 13.075 154.366 11.8391 154.597 10.6162C154.828 9.39322 154.853 8.15727 154.674 6.90831C154.828 6.77821 154.956 6.62209 155.058 6.43995C155.161 6.25781 155.315 6.14072 155.52 6.08868C155.366 5.49022 155.302 4.86574 155.327 4.21524C155.353 3.53872 155.456 2.91424 155.635 2.3418C155.84 1.76936 156.135 1.27498 156.519 0.85866C156.904 0.41632 157.378 0.1301 157.942 0C158.275 0.49438 158.57 1.02779 158.826 1.60023C159.083 2.17267 159.339 2.75812 159.595 3.35658C159.851 3.92902 160.121 4.47544 160.403 4.99584C160.71 5.51624 161.095 5.95858 161.556 6.32286C161.633 7.23356 161.697 8.17028 161.748 9.13302C161.799 10.0697 161.838 11.0455 161.864 12.0603C161.633 13.2312 161.364 14.3761 161.056 15.4949C160.774 16.5878 160.569 17.7587 160.441 19.0076C160.236 19.2418 160.069 19.528 159.941 19.8663C159.813 20.1785 159.685 20.5038 159.557 20.842C159.454 21.1543 159.326 21.4665 159.172 21.7787C159.018 22.091 158.826 22.3512 158.596 22.5593C158.698 22.9236 158.711 23.2749 158.634 23.6131C158.583 23.9254 158.672 24.3027 158.903 24.745C158.954 25.5516 158.852 26.2282 158.596 26.7746C158.365 27.295 158.032 27.7503 157.596 28.1406C157.186 28.5049 156.699 28.8041 156.135 29.0383C155.597 29.2465 155.058 29.4416 154.52 29.6238C154.264 29.4676 154.02 29.3115 153.79 29.1554C153.585 28.9733 153.328 28.8432 153.021 28.7651L153.213 28.4138C152.7 27.8934 152.252 27.347 151.867 26.7746C151.508 26.1761 151.342 25.4996 151.367 24.745C151.367 24.719 151.393 24.5499 151.444 24.2376C151.496 23.8994 151.547 23.5481 151.598 23.1838C151.675 22.8195 151.739 22.4813 151.79 22.169C151.867 21.8308 151.906 21.6486 151.906 21.6226C151.188 21.7007 150.445 21.8698 149.676 22.13C148.907 22.3902 148.151 22.6894 147.407 23.0277C146.69 23.3399 146.01 23.6782 145.37 24.0425C144.754 24.3807 144.255 24.667 143.87 24.9011C143.87 24.9792 143.806 25.2004 143.678 25.5646C143.55 25.9289 143.396 26.3192 143.217 26.7355C143.037 27.1258 142.832 27.4771 142.601 27.7894C142.396 28.1016 142.178 28.2447 141.948 28.2187C141.999 28.3488 142.05 28.4529 142.102 28.5309C142.153 28.583 142.153 28.7001 142.102 28.8822C141.666 29.0123 141.269 29.1814 140.91 29.3896C140.577 29.5977 140.23 29.7669 139.872 29.897C139.513 30.0531 139.116 30.1181 138.68 30.0921C138.27 30.0921 137.77 29.936 137.18 29.6238C137.18 29.4416 137.103 29.2855 136.95 29.1554C136.796 28.9993 136.629 28.8692 136.45 28.7651C136.296 28.661 136.155 28.57 136.027 28.4919C135.899 28.4138 135.835 28.3358 135.835 28.2577Z" fill="#474747"/>
<path d="M184.086 7.61085C184.112 7.79299 184.112 7.9361 184.086 8.04018C184.086 8.11824 184.073 8.1963 184.048 8.27436C184.048 8.35242 184.048 8.44349 184.048 8.54757C184.048 8.62563 184.073 8.75573 184.125 8.93787C183.586 9.82255 182.958 10.434 182.241 10.7723C181.549 11.0845 180.793 11.3187 179.972 11.4748C179.152 11.6049 178.306 11.748 177.435 11.9042C176.589 12.0603 175.743 12.3985 174.897 12.9189C174.564 12.7888 174.256 12.7888 173.974 12.9189C173.718 13.049 173.334 13.0881 172.821 13.036C172.667 13.1921 172.475 13.3092 172.244 13.3873C172.014 13.4393 171.783 13.5044 171.552 13.5824C171.655 13.8166 171.693 14.0638 171.668 14.324C171.668 14.5582 171.706 14.7533 171.783 14.9095C172.68 14.9875 173.667 14.9745 174.743 14.8704C175.846 14.7663 176.922 14.7013 177.973 14.6753C177.999 14.8054 177.986 14.8965 177.935 14.9485C177.883 14.9745 177.871 15.0396 177.896 15.1436C178.076 15.2737 178.255 15.4429 178.434 15.651C178.614 15.8332 178.793 16.0153 178.973 16.1975C179.152 16.3796 179.332 16.5357 179.511 16.6658C179.716 16.7699 179.947 16.8089 180.203 16.7829C180.305 16.9911 180.37 17.2252 180.395 17.4854C180.446 17.7196 180.421 17.9668 180.318 18.227C179.908 18.5132 179.498 18.8125 179.088 19.1247C178.678 19.4109 178.242 19.6711 177.781 19.9053C177.345 20.1395 176.871 20.3346 176.358 20.4907C175.871 20.6208 175.32 20.6729 174.705 20.6469C174.577 20.6469 174.474 20.6469 174.397 20.6469C174.346 20.6469 174.269 20.6078 174.167 20.5298C173.962 20.6599 173.667 20.6989 173.282 20.6469C172.924 20.5948 172.642 20.6339 172.437 20.764C172.155 20.6339 171.809 20.5818 171.399 20.6078C171.014 20.6078 170.668 20.5558 170.36 20.4517C169.95 20.9981 169.579 21.5836 169.245 22.2081C168.912 22.8325 168.617 23.4961 168.361 24.1986C169.233 24.3287 169.95 24.3807 170.514 24.3547C171.104 24.3287 171.655 24.2897 172.167 24.2376C172.68 24.1596 173.206 24.0945 173.744 24.0425C174.282 23.9644 174.961 23.9384 175.782 23.9644C176.294 23.6782 176.896 23.4961 177.589 23.418C178.306 23.3139 178.96 23.1578 179.549 22.9496C179.754 23.0277 179.934 23.1708 180.088 23.379C180.241 23.5611 180.382 23.7433 180.511 23.9254C180.664 24.0815 180.818 24.2246 180.972 24.3547C181.126 24.4848 181.318 24.5369 181.549 24.5108C181.651 24.6149 181.715 24.745 181.741 24.9011C181.792 25.0312 181.831 25.1613 181.856 25.2914C181.882 25.4215 181.92 25.5386 181.972 25.6427C182.048 25.7208 182.164 25.7468 182.318 25.7208C181.933 26.5794 181.485 27.2429 180.972 27.7113C180.485 28.1536 179.921 28.4919 179.28 28.7261C178.639 28.9603 177.922 29.1424 177.127 29.2725C176.358 29.4026 175.5 29.5587 174.551 29.7409C174.321 29.7929 174.128 29.7799 173.974 29.7018C173.821 29.6498 173.641 29.6238 173.436 29.6238C172.847 29.7539 172.142 29.871 171.322 29.975C170.501 30.0791 169.668 30.1181 168.823 30.0921C167.977 30.0661 167.169 29.949 166.4 29.7409C165.631 29.5587 165.003 29.2205 164.516 28.7261C164.311 28.5439 164.17 28.3358 164.094 28.1016C164.042 27.8414 163.876 27.6462 163.594 27.5161C163.568 27.1779 163.517 26.8006 163.44 26.3843C163.363 25.968 163.286 25.5386 163.209 25.0963C163.132 24.6279 163.068 24.1726 163.017 23.7302C162.991 23.2879 163.017 22.8846 163.094 22.5203C163.171 22.13 163.325 21.7787 163.555 21.4665C163.812 21.1543 163.901 20.816 163.824 20.4517C163.953 20.4257 164.029 20.3606 164.055 20.2566C164.081 20.1265 164.183 20.0744 164.363 20.1005C164.516 19.6321 164.683 19.1897 164.862 18.7734C165.042 18.3571 165.221 17.9538 165.401 17.5635C165.606 17.1732 165.798 16.7829 165.977 16.3926C166.182 15.9763 166.375 15.5209 166.554 15.0265C166.195 14.6883 165.926 14.324 165.747 13.9337C165.593 13.5174 165.478 13.1141 165.401 12.7238C165.324 12.3075 165.26 11.8911 165.208 11.4748C165.157 11.0325 165.068 10.5901 164.939 10.1478C165.196 9.7575 165.503 9.44526 165.862 9.21108C166.247 8.95088 166.657 8.74272 167.092 8.5866C167.528 8.43048 168.002 8.30038 168.515 8.1963C169.028 8.09222 169.566 7.97513 170.13 7.84503C171.155 7.50677 172.065 7.24657 172.86 7.06443C173.68 6.88229 174.474 6.73918 175.243 6.6351C176.038 6.505 176.858 6.38791 177.704 6.28383C178.55 6.17975 179.511 6.02363 180.587 5.81547C180.818 6.04965 181.036 6.16674 181.241 6.16674C181.344 5.93256 181.459 5.86751 181.587 5.97159C181.741 6.04965 181.805 5.97159 181.779 5.73741C182.036 6.17975 182.356 6.55704 182.741 6.86928C183.151 7.1555 183.599 7.40269 184.086 7.61085Z" fill="#474747"/>
<path d="M188.969 25.5256C188.687 26.5664 188.431 27.36 188.2 27.9065C187.995 28.4269 187.675 28.9733 187.239 29.5457C186.906 29.4937 186.675 29.5327 186.547 29.6628C186.419 29.7929 186.278 29.91 186.124 30.0141C185.893 30.0661 185.727 30.0661 185.624 30.0141C185.522 29.962 185.432 29.897 185.355 29.8189C185.278 29.7669 185.176 29.7018 185.047 29.6238C184.945 29.5717 184.778 29.5457 184.548 29.5457C184.496 29.3375 184.432 29.1424 184.355 28.9603C184.304 28.7781 184.137 28.7131 183.855 28.7651C183.907 28.557 183.92 28.3878 183.894 28.2577C183.868 28.1016 183.83 27.9715 183.779 27.8674C183.753 27.7373 183.727 27.6202 183.702 27.5161C183.676 27.386 183.689 27.2299 183.74 27.0478C183.612 27.0478 183.509 26.9567 183.433 26.7746C183.356 26.5924 183.266 26.4103 183.163 26.2282C183.24 25.7598 183.317 25.3175 183.394 24.9011C183.471 24.4848 183.561 24.0945 183.663 23.7302C183.791 23.366 183.894 23.0017 183.971 22.6374C184.048 22.2731 184.009 21.8958 183.855 21.5055C183.958 21.5836 184.035 21.5706 184.086 21.4665C184.137 21.3364 184.176 21.1803 184.202 20.9981C184.227 20.79 184.24 20.5948 184.24 20.4127C184.24 20.2045 184.227 20.0354 184.202 19.9053C184.458 19.2288 184.663 18.5392 184.817 17.8367C184.996 17.1082 185.15 16.3926 185.278 15.6901C185.432 14.9875 185.586 14.298 185.739 13.6215C185.893 12.9449 186.098 12.3205 186.355 11.748C186.637 11.696 186.944 11.735 187.277 11.8651C187.636 11.9692 187.854 12.1123 187.931 12.2944C188.597 11.774 189.187 11.1496 189.699 10.421C190.212 9.66643 190.738 8.93787 191.276 8.23533C191.814 7.53279 192.404 6.90831 193.044 6.36189C193.711 5.81547 194.544 5.49022 195.543 5.38614C196.056 5.77644 196.62 6.17975 197.235 6.59607C197.876 6.98637 198.401 7.50677 198.812 8.15727C199.017 8.26135 199.183 8.37844 199.311 8.50854C199.465 8.61262 199.645 8.72971 199.85 8.85981V9.32817C200.157 9.61439 200.401 9.95265 200.58 10.3429C200.785 10.7072 200.965 11.1105 201.118 11.5529C201.272 11.9692 201.426 12.3985 201.58 12.8409C201.734 13.2572 201.913 13.6605 202.118 14.0508C202.067 14.1809 202.041 14.298 202.041 14.4021C202.041 14.4801 202.054 14.5712 202.08 14.6753C202.131 14.7794 202.169 14.8834 202.195 14.9875C202.221 15.0916 202.221 15.2347 202.195 15.4169C202.118 16.5617 201.746 17.4854 201.08 18.188C200.439 18.8905 199.657 19.476 198.735 19.9443C197.812 20.3867 196.825 20.764 195.774 21.0762C194.723 21.3884 193.775 21.7267 192.929 22.091C192.929 22.1951 192.968 22.2471 193.044 22.2471C193.147 22.2471 193.185 22.3121 193.16 22.4422C193.775 22.8325 194.262 23.1448 194.621 23.379C194.98 23.6131 195.313 23.8083 195.62 23.9644C195.954 24.1205 196.3 24.2636 196.658 24.3937C197.043 24.4978 197.568 24.6279 198.235 24.784C198.901 24.9402 199.414 25.0703 199.773 25.1743C200.157 25.2524 200.503 25.3305 200.811 25.4085C201.118 25.4606 201.426 25.5126 201.734 25.5646C202.067 25.5907 202.528 25.6297 203.118 25.6817C203.348 25.9159 203.541 26.2021 203.694 26.5404C203.874 26.8526 203.989 27.1779 204.04 27.5161C204.092 27.8284 204.104 28.1406 204.079 28.4529C204.053 28.7391 203.963 28.9733 203.81 29.1554C203.835 29.2335 203.887 29.2725 203.963 29.2725C204.066 29.2465 204.169 29.2465 204.271 29.2725C204.117 29.3766 203.989 29.5067 203.887 29.6628C203.784 29.8189 203.682 29.975 203.579 30.1312C203.476 30.2873 203.361 30.4174 203.233 30.5215C203.105 30.6516 202.925 30.7296 202.695 30.7556C201.9 31.0679 200.9 31.0809 199.696 30.7947C198.491 30.5345 196.966 30.0401 195.121 29.3115C194.198 28.9472 193.442 28.635 192.852 28.3748C192.288 28.0886 191.788 27.8154 191.353 27.5552C190.943 27.269 190.558 26.9697 190.199 26.6575C189.866 26.3452 189.456 25.968 188.969 25.5256ZM194.467 12.1383C194.185 12.5546 193.865 12.9319 193.506 13.2702C193.173 13.6085 192.839 13.9597 192.506 14.324C192.199 14.6623 191.917 15.0526 191.66 15.4949C191.404 15.9112 191.225 16.4056 191.122 16.9781C192.019 16.874 192.955 16.6268 193.929 16.2365C194.903 15.8202 195.825 15.4299 196.697 15.0656C196.594 14.259 196.312 13.6085 195.851 13.1141C195.415 12.6197 194.954 12.2944 194.467 12.1383Z" fill="#474747"/>
<path d="M226.494 17.8757C226.468 18.188 226.494 18.4872 226.571 18.7734C226.647 19.0596 226.737 19.3459 226.84 19.6321C226.968 19.8923 227.083 20.1655 227.186 20.4517C227.288 20.7379 227.365 21.0242 227.416 21.3104C227.468 21.6747 227.468 22.078 227.416 22.5203C227.365 22.9366 227.275 23.3529 227.147 23.7693C227.019 24.1596 226.852 24.5239 226.647 24.8621C226.442 25.1744 226.199 25.4085 225.917 25.5646C225.558 26.033 225.122 26.3973 224.61 26.6575C224.097 26.9177 223.623 27.2299 223.187 27.5942C222.905 27.7763 222.585 27.9065 222.226 27.9845C221.893 28.0626 221.547 28.1406 221.188 28.2187C220.906 28.3748 220.573 28.5439 220.188 28.7261C219.804 28.8822 219.407 29.0383 218.996 29.1944C218.586 29.3245 218.176 29.4286 217.766 29.5067C217.356 29.5587 216.997 29.5717 216.69 29.5457C215.921 29.8319 215.164 30.0141 214.421 30.0921C213.703 30.1962 212.858 30.1442 211.884 29.936C210.961 30.0661 210.102 30.0271 209.308 29.8189C208.539 29.6108 207.847 29.2855 207.231 28.8432C206.642 28.3748 206.117 27.8284 205.655 27.2039C205.219 26.5534 204.861 25.8769 204.579 25.1743C204.374 23.6912 204.425 22.3512 204.732 21.1543C205.04 19.9313 205.476 18.8125 206.04 17.7977C206.629 16.7569 207.296 15.8072 208.039 14.9485C208.782 14.0638 209.5 13.2051 210.192 12.3725C210.346 12.4245 210.461 12.4245 210.538 12.3725C210.641 12.2944 210.73 12.2034 210.807 12.0993C210.884 11.9692 210.961 11.8521 211.038 11.748C211.14 11.6439 211.256 11.5789 211.384 11.5529C211.563 11.1626 211.82 10.8764 212.153 10.6942C212.512 10.4861 212.794 10.1998 212.999 9.83556C213.229 9.78352 213.422 9.70546 213.575 9.60138C213.729 9.4973 213.87 9.38021 213.998 9.25011C214.152 9.12001 214.306 9.00292 214.46 8.89884C214.613 8.76874 214.793 8.67767 214.998 8.62563V8.1963C215.459 7.98814 215.792 7.75396 215.998 7.49376C216.228 7.20754 216.497 6.86928 216.805 6.47898C217.036 6.45296 217.215 6.43995 217.343 6.43995C217.497 6.43995 217.715 6.41393 217.997 6.36189C218.202 5.99761 218.381 5.7244 218.535 5.54226C218.714 5.36012 218.971 5.16497 219.304 4.95681C219.612 5.11293 219.945 5.21701 220.304 5.26905C220.688 5.32109 221.021 5.49022 221.303 5.77644C221.329 6.03664 221.406 6.2448 221.534 6.40092C221.662 6.53102 221.803 6.66112 221.957 6.79122C222.111 6.8953 222.252 7.01239 222.38 7.14249C222.534 7.27259 222.636 7.45473 222.687 7.68891C222.79 7.71493 222.854 7.70192 222.88 7.64988C222.931 7.59784 223.008 7.58483 223.11 7.61085C223.187 7.97513 223.277 8.22232 223.379 8.35242C223.482 8.4565 223.584 8.67767 223.687 9.01593C223.559 9.27613 223.456 9.54934 223.379 9.83556C223.328 10.0958 223.174 10.2909 222.918 10.421C222.892 10.6032 222.944 10.7072 223.072 10.7332C223.2 10.7332 223.277 10.7983 223.303 10.9284C223.328 11.1626 223.29 11.3317 223.187 11.4358C223.802 12.4506 224.353 13.5304 224.84 14.6753C225.327 15.7941 225.878 16.861 226.494 17.8757ZM221.688 21.5836C221.79 21.2974 221.918 21.0632 222.072 20.8811C222.252 20.6989 222.354 20.4257 222.38 20.0614C222.252 19.8533 222.175 19.6971 222.149 19.5931C222.123 19.463 222.111 19.2678 222.111 19.0076C221.547 18.201 221.06 17.3423 220.65 16.4316C220.24 15.4949 219.778 14.6232 219.266 13.8166C219.214 13.9207 219.125 14.0248 218.996 14.1289C218.868 14.2329 218.727 14.2069 218.573 14.0508C218.522 14.259 218.433 14.4151 218.304 14.5192C218.176 14.5972 218.035 14.6362 217.881 14.6362C217.728 14.6102 217.561 14.5712 217.382 14.5192C217.228 14.4411 217.087 14.35 216.959 14.2459C216.215 14.8444 215.472 15.4299 214.729 16.0023C213.985 16.5747 213.319 17.2383 212.729 17.9928C212.627 18.0449 212.563 18.0709 212.537 18.0709C212.512 18.0449 212.435 18.0579 212.307 18.1099C212.101 18.6043 211.845 19.0596 211.538 19.476C211.256 19.8663 210.974 20.2696 210.692 20.6859C210.41 21.1022 210.166 21.5446 209.961 22.0129C209.756 22.4813 209.641 23.0277 209.615 23.6522C210.051 24.0165 210.564 24.2376 211.153 24.3157C211.743 24.3937 212.345 24.4068 212.96 24.3547C213.601 24.3027 214.216 24.2246 214.806 24.1205C215.421 23.9904 215.985 23.9254 216.497 23.9254C217.574 23.6652 218.497 23.3269 219.266 22.9106C220.034 22.4683 220.842 22.0259 221.688 21.5836Z" fill="#474747"/>
<path d="M250.293 7.61085C250.318 7.79299 250.318 7.9361 250.293 8.04018C250.293 8.11824 250.28 8.1963 250.254 8.27436C250.254 8.35242 250.254 8.44349 250.254 8.54757C250.254 8.62563 250.28 8.75573 250.331 8.93787C249.793 9.82255 249.165 10.434 248.447 10.7723C247.755 11.0845 246.999 11.3187 246.179 11.4748C245.358 11.6049 244.513 11.748 243.641 11.9042C242.795 12.0603 241.949 12.3985 241.104 12.9189C240.77 12.7888 240.463 12.7888 240.181 12.9189C239.925 13.049 239.54 13.0881 239.027 13.036C238.874 13.1921 238.681 13.3092 238.451 13.3873C238.22 13.4393 237.989 13.5044 237.759 13.5824C237.861 13.8166 237.9 14.0638 237.874 14.324C237.874 14.5582 237.913 14.7533 237.989 14.9095C238.887 14.9875 239.873 14.9745 240.95 14.8704C242.052 14.7663 243.129 14.7013 244.179 14.6753C244.205 14.8054 244.192 14.8965 244.141 14.9485C244.09 14.9745 244.077 15.0396 244.103 15.1436C244.282 15.2737 244.461 15.4429 244.641 15.651C244.82 15.8332 245 16.0153 245.179 16.1975C245.358 16.3796 245.538 16.5357 245.717 16.6658C245.922 16.7699 246.153 16.8089 246.409 16.7829C246.512 16.9911 246.576 17.2252 246.602 17.4854C246.653 17.7196 246.627 17.9668 246.525 18.227C246.115 18.5132 245.705 18.8125 245.294 19.1247C244.884 19.4109 244.449 19.6711 243.987 19.9053C243.551 20.1395 243.077 20.3346 242.565 20.4907C242.078 20.6208 241.527 20.6729 240.911 20.6469C240.783 20.6469 240.681 20.6469 240.604 20.6469C240.553 20.6469 240.476 20.6078 240.373 20.5298C240.168 20.6599 239.873 20.6989 239.489 20.6469C239.13 20.5948 238.848 20.6339 238.643 20.764C238.361 20.6339 238.015 20.5818 237.605 20.6078C237.22 20.6078 236.874 20.5558 236.567 20.4517C236.157 20.9981 235.785 21.5836 235.452 22.2081C235.119 22.8325 234.824 23.4961 234.568 24.1986C235.439 24.3287 236.157 24.3807 236.721 24.3547C237.31 24.3287 237.861 24.2897 238.374 24.2376C238.887 24.1596 239.412 24.0945 239.95 24.0425C240.489 23.9644 241.168 23.9384 241.988 23.9644C242.501 23.6782 243.103 23.4961 243.795 23.418C244.513 23.3139 245.166 23.1578 245.756 22.9496C245.961 23.0277 246.14 23.1708 246.294 23.379C246.448 23.5611 246.589 23.7433 246.717 23.9254C246.871 24.0815 247.025 24.2246 247.178 24.3547C247.332 24.4848 247.524 24.5369 247.755 24.5108C247.858 24.6149 247.922 24.745 247.947 24.9011C247.999 25.0312 248.037 25.1613 248.063 25.2914C248.088 25.4215 248.127 25.5386 248.178 25.6427C248.255 25.7208 248.37 25.7468 248.524 25.7208C248.14 26.5794 247.691 27.2429 247.178 27.7113C246.691 28.1536 246.127 28.4919 245.487 28.7261C244.846 28.9603 244.128 29.1424 243.334 29.2725C242.565 29.4026 241.706 29.5587 240.758 29.7409C240.527 29.7929 240.335 29.7799 240.181 29.7018C240.027 29.6498 239.848 29.6238 239.643 29.6238C239.053 29.7539 238.348 29.871 237.528 29.975C236.708 30.0791 235.875 30.1181 235.029 30.0921C234.183 30.0661 233.376 29.949 232.607 29.7409C231.838 29.5587 231.21 29.2205 230.723 28.7261C230.518 28.5439 230.377 28.3358 230.3 28.1016C230.249 27.8414 230.082 27.6462 229.8 27.5161C229.774 27.1779 229.723 26.8006 229.646 26.3843C229.569 25.968 229.493 25.5386 229.416 25.0963C229.339 24.6279 229.275 24.1726 229.223 23.7302C229.198 23.2879 229.223 22.8846 229.3 22.5203C229.377 22.13 229.531 21.7787 229.762 21.4665C230.018 21.1543 230.108 20.816 230.031 20.4517C230.159 20.4257 230.236 20.3606 230.261 20.2566C230.287 20.1265 230.39 20.0744 230.569 20.1005C230.723 19.6321 230.889 19.1897 231.069 18.7734C231.248 18.3571 231.428 17.9538 231.607 17.5635C231.812 17.1732 232.004 16.7829 232.184 16.3926C232.389 15.9763 232.581 15.5209 232.761 15.0265C232.402 14.6883 232.133 14.324 231.953 13.9337C231.799 13.5174 231.684 13.1141 231.607 12.7238C231.53 12.3075 231.466 11.8911 231.415 11.4748C231.364 11.0325 231.274 10.5901 231.146 10.1478C231.402 9.7575 231.71 9.44526 232.069 9.21108C232.453 8.95088 232.863 8.74272 233.299 8.5866C233.735 8.43048 234.209 8.30038 234.721 8.1963C235.234 8.09222 235.772 7.97513 236.336 7.84503C237.361 7.50677 238.271 7.24657 239.066 7.06443C239.886 6.88229 240.681 6.73918 241.45 6.6351C242.244 6.505 243.064 6.38791 243.91 6.28383C244.756 6.17975 245.717 6.02363 246.794 5.81547C247.025 6.04965 247.242 6.16674 247.447 6.16674C247.55 5.93256 247.665 5.86751 247.794 5.97159C247.947 6.04965 248.011 5.97159 247.986 5.73741C248.242 6.17975 248.562 6.55704 248.947 6.86928C249.357 7.1555 249.806 7.40269 250.293 7.61085Z" fill="#474747"/>
<path d="M249.985 12.0212C250.164 11.4748 250.446 11.0065 250.831 10.6162C251.241 10.2259 251.677 9.90061 252.138 9.64041C252.625 9.35419 253.125 9.12001 253.638 8.93787C254.15 8.75573 254.637 8.59961 255.099 8.46951C256.124 8.02717 257.213 7.61085 258.367 7.22055C259.546 6.80423 260.737 6.43995 261.942 6.12771C263.172 5.81547 264.428 5.62032 265.71 5.54226C266.992 5.43818 268.337 5.5943 269.747 6.01062C269.824 6.27082 269.939 6.51801 270.093 6.75219C270.247 6.98637 270.401 7.22055 270.554 7.45473C270.734 7.68891 270.888 7.92309 271.016 8.15727C271.144 8.36543 271.221 8.5866 271.246 8.82078C271.503 9.05496 271.708 9.31516 271.862 9.60138C272.015 9.86158 272.041 10.2128 271.938 10.6552C271.682 10.8633 271.426 11.0585 271.17 11.2406C270.939 11.3968 270.683 11.5399 270.401 11.67C269.452 11.4358 268.491 11.3577 267.517 11.4358C266.543 11.5139 265.672 11.5789 264.903 11.6309C264.672 11.3968 264.39 11.2797 264.057 11.2797C263.749 11.2797 263.416 11.3317 263.057 11.4358C262.724 11.5399 262.378 11.6439 262.019 11.748C261.686 11.8521 261.365 11.8781 261.058 11.8261C260.802 12.0342 260.481 12.1774 260.097 12.2554C259.738 12.3075 259.341 12.3595 258.905 12.4115C258.879 12.5416 258.905 12.6327 258.982 12.6847C259.059 12.7108 259.071 12.7888 259.02 12.9189C259.174 13.1011 259.366 13.2312 259.597 13.3092C259.853 13.3873 260.109 13.4653 260.366 13.5434C260.648 13.6215 260.891 13.7255 261.096 13.8556C261.301 13.9597 261.442 14.1419 261.519 14.4021C261.904 14.4021 262.237 14.4931 262.519 14.6753C262.801 14.8574 263.031 15.0786 263.211 15.3388C263.39 15.599 263.519 15.8852 263.595 16.1975C263.698 16.4837 263.749 16.7439 263.749 16.9781C263.826 17.1862 263.916 17.2773 264.018 17.2513C264.121 17.2252 264.236 17.2773 264.364 17.4074C264.441 17.7456 264.633 18.0969 264.941 18.4612C265.249 18.7994 265.492 19.1767 265.672 19.5931C265.723 20.2436 265.761 20.829 265.787 21.3494C265.813 21.8438 265.723 22.3512 265.518 22.8716C265.133 23.8343 264.595 24.693 263.903 25.4476C263.237 26.2021 262.468 26.8787 261.596 27.4771C260.75 28.0496 259.84 28.5439 258.866 28.9603C257.892 29.3766 256.944 29.7279 256.021 30.0141C255.919 29.9881 255.816 29.9881 255.714 30.0141C255.611 30.0401 255.586 29.975 255.637 29.8189C255.432 30.0011 255.201 30.1181 254.945 30.1702C254.714 30.2222 254.458 30.2352 254.176 30.2092C253.894 30.2092 253.599 30.1962 253.291 30.1702C253.01 30.1442 252.74 30.1572 252.484 30.2092C252.305 30.0271 252.138 29.8449 251.984 29.6628C251.856 29.5067 251.754 29.2985 251.677 29.0383C251.549 29.0383 251.484 28.9733 251.484 28.8432C251.51 28.7131 251.472 28.648 251.369 28.648C251.523 28.3878 251.587 28.2447 251.561 28.2187C251.561 28.1666 251.523 28.1276 251.446 28.1016C251.395 28.0756 251.343 28.0496 251.292 28.0235C251.241 27.9715 251.228 27.9065 251.254 27.8284C251.356 27.6202 251.395 27.386 251.369 27.1258C251.343 26.8396 251.318 26.5534 251.292 26.2672C251.267 25.981 251.279 25.7078 251.331 25.4476C251.408 25.1874 251.6 24.9792 251.907 24.8231C252.779 24.9272 253.599 24.9011 254.368 24.745C255.163 24.5629 255.906 24.3157 256.598 24.0035C257.29 23.6912 257.944 23.353 258.559 22.9887C259.2 22.6244 259.828 22.2991 260.443 22.0129C260.52 21.7787 260.622 21.5836 260.75 21.4275C260.904 21.2713 261.058 21.1282 261.212 20.9981C261.365 20.868 261.506 20.7249 261.635 20.5688C261.763 20.4127 261.852 20.2175 261.904 19.9834C261.929 19.8012 261.878 19.6971 261.75 19.6711C261.647 19.6191 261.596 19.515 261.596 19.3589L261.173 19.2418C260.686 18.9556 260.135 18.7214 259.52 18.5392C258.905 18.3311 258.379 18.1099 257.944 17.8757C257.662 18.0319 257.393 18.0709 257.136 17.9928C256.906 17.9148 256.598 17.8367 256.214 17.7586C255.342 17.7066 254.496 17.6155 253.676 17.4854C252.881 17.3553 252.112 17.1212 251.369 16.7829C251.318 16.6528 251.254 16.5357 251.177 16.4316C251.1 16.3275 250.959 16.3015 250.754 16.3536C250.6 16.1454 250.446 15.9503 250.293 15.7681C250.139 15.56 249.998 15.3388 249.87 15.1046C249.921 14.7924 249.959 14.5322 249.985 14.324C250.011 14.0898 249.934 13.8687 249.754 13.6605C249.857 13.3222 249.934 13.049 249.985 12.8409C250.036 12.6327 250.036 12.3595 249.985 12.0212Z" fill="#474747"/>
</svg>
