<svg width="21" height="18" viewBox="0 0 21 18" fill="none" xmlns="http://www.w3.org/2000/svg">
<path d="M1.13358 8.90197L5.625 10.5767L7.37588 16.21C7.45201 16.5906 7.90876 16.6668 8.21327 16.4384L10.7254 14.383C10.9538 14.1546 11.3344 14.1546 11.6389 14.383L16.1303 17.6564C16.4348 17.8848 16.8916 17.7325 16.9677 17.3519L20.3172 1.36554C20.3933 0.984915 20.0127 0.604291 19.6321 0.756542L1.13358 7.91234C0.676827 8.06459 0.676827 8.74972 1.13358 8.90197ZM7.14751 9.73935L15.9781 4.33444C16.1303 4.25831 16.2826 4.48669 16.1303 4.56282L8.89839 11.338C8.67001 11.5664 8.44163 11.8709 8.44163 12.2515L8.21327 14.0785C8.21327 14.3069 7.83263 14.383 7.75651 14.0785L6.84299 10.729C6.61462 10.3484 6.76689 9.8916 7.14751 9.73935Z" fill="white"/>
</svg>
