<svg width="21" height="13" viewBox="0 0 21 13" fill="none" xmlns="http://www.w3.org/2000/svg">
<path d="M20.5786 11.5353C20.5786 11.4542 20.4975 11.4542 20.4975 11.3731C20.1731 10.7243 19.4432 9.91337 18.4701 9.0213C17.9835 8.61582 17.7402 8.29142 17.578 8.12923C17.3347 7.80484 17.3347 7.56156 17.4158 7.23717C17.4969 6.99388 17.8213 6.58839 18.389 5.85852C18.7134 5.45303 18.8756 5.20975 19.1188 4.96646C20.3353 3.34452 20.903 2.29026 20.7408 1.80368L20.6597 1.72259C20.5786 1.64149 20.4975 1.5604 20.3353 1.5604C20.1731 1.4793 19.9298 1.4793 19.6865 1.5604H16.6049C16.5238 1.5604 16.5238 1.5604 16.3616 1.5604C16.2805 1.5604 16.1994 1.5604 16.1994 1.5604H16.1183H16.0372L15.9561 1.64149C15.875 1.72258 15.875 1.72258 15.875 1.80368C15.5506 2.69574 15.1451 3.42561 14.7396 4.23658C14.4963 4.64207 14.2531 5.04756 14.0098 5.37194C13.7665 5.69633 13.6043 5.93962 13.4421 6.10181C13.2799 6.264 13.1177 6.3451 13.0366 6.50729C12.9555 6.58839 12.7933 6.66949 12.7933 6.5884C12.7122 6.5884 12.6311 6.58839 12.6311 6.50729C12.55 6.4262 12.4689 6.3451 12.3878 6.264C12.3067 6.18291 12.3067 6.02071 12.2256 5.85852C12.2256 5.69632 12.2256 5.53413 12.2256 5.45303C12.2256 5.37194 12.2256 5.12865 12.2256 4.96646C12.2256 4.72317 12.2256 4.56097 12.2256 4.47988C12.2256 4.23658 12.2256 3.9122 12.2256 3.58782C12.2256 3.26343 12.2256 3.02013 12.2256 2.85794C12.2256 2.69575 12.2256 2.45246 12.2256 2.29026C12.2256 2.04697 12.2256 1.88478 12.2256 1.80368C12.2256 1.72258 12.1445 1.56039 12.1445 1.4793C12.0634 1.3982 11.9823 1.3171 11.9012 1.236C11.8201 1.15491 11.658 1.15491 11.5769 1.07381C11.1714 0.992715 10.6848 0.911621 10.1171 0.911621C8.81958 0.911621 7.92751 0.99272 7.60312 1.15491C7.44093 1.23601 7.27873 1.3171 7.19764 1.4793C7.03544 1.64149 7.03544 1.72259 7.11653 1.72259C7.52202 1.80369 7.84641 1.96587 8.0086 2.20916L8.0897 2.37137C8.1708 2.45246 8.17079 2.61465 8.25188 2.85794C8.33298 3.10123 8.33299 3.34452 8.33299 3.66891C8.33299 4.15549 8.33299 4.64207 8.33299 4.96646C8.33299 5.37194 8.25188 5.61523 8.25188 5.85852C8.25188 6.10181 8.1708 6.26401 8.0897 6.3451C8.00861 6.5073 8.0086 6.5884 7.9275 6.5884C7.9275 6.5884 7.9275 6.66949 7.8464 6.66949C7.7653 6.66949 7.68421 6.75059 7.52202 6.75059C7.44092 6.75059 7.27873 6.66949 7.19764 6.5884C7.03544 6.5073 6.87325 6.34511 6.79215 6.18291C6.62996 6.02072 6.46776 5.77742 6.30557 5.45303C6.14337 5.12865 5.90007 4.80426 5.73788 4.31768L5.5757 3.9933C5.4946 3.83111 5.33241 3.50672 5.17022 3.10123C5.00802 2.69575 4.84582 2.37137 4.68363 1.96588C4.60253 1.80369 4.52145 1.72258 4.44035 1.64149H4.35925C4.35925 1.64149 4.27814 1.5604 4.19704 1.5604C4.11595 1.5604 4.03486 1.4793 3.95376 1.4793H1.03427C0.709888 1.4793 0.547697 1.56039 0.4666 1.64149L0.385498 1.72259C0.385498 1.72259 0.385498 1.80368 0.385498 1.88478C0.385498 1.96588 0.385503 2.04697 0.4666 2.20916C0.872084 3.18232 1.35866 4.15549 1.84524 5.12865C2.33182 6.02072 2.81841 6.83169 3.1428 7.39936C3.54828 7.96704 3.87266 8.53472 4.27815 9.0213C4.68363 9.50788 4.92692 9.83227 5.00801 9.99446C5.17021 10.1567 5.2513 10.2377 5.33239 10.3188L5.5757 10.5621C5.73789 10.7243 5.98118 10.9676 6.30557 11.2109C6.62995 11.4542 7.03543 11.6975 7.44092 11.9408C7.8464 12.1841 8.33299 12.3463 8.81957 12.5085C9.38725 12.6707 9.87382 12.7518 10.3604 12.6707H11.5769C11.8201 12.6707 11.9824 12.5896 12.1445 12.4274L12.2256 12.3463C12.2256 12.2652 12.3067 12.2652 12.3067 12.1841C12.3067 12.103 12.3067 12.0219 12.3067 11.8597C12.3067 11.5353 12.3067 11.292 12.3878 11.0487C12.4689 10.8054 12.4689 10.6432 12.55 10.481C12.6311 10.3189 12.7122 10.2377 12.7933 10.1567C12.8744 10.0756 12.9555 9.99446 12.9555 9.99446H13.0366C13.1988 9.91336 13.4421 9.99446 13.6043 10.1567C13.8476 10.3188 14.0908 10.5621 14.253 10.8054C14.4152 11.0487 14.6585 11.292 14.9829 11.6164C15.3073 11.9408 15.5506 12.1841 15.7128 12.2652L15.9561 12.4274C16.1183 12.5085 16.2805 12.5896 16.5238 12.6707C16.7671 12.7518 16.9292 12.7517 17.0914 12.7517L19.8487 12.6707C20.092 12.6707 20.3353 12.5896 20.4975 12.5085C20.6597 12.4274 20.7408 12.3463 20.7408 12.1841C20.7408 12.103 20.7408 11.9408 20.7408 11.8597C20.5786 11.6975 20.5786 11.6164 20.5786 11.5353Z" fill="white"/>
</svg>
