<svg width="134" height="153" viewBox="0 0 134 153" fill="none" xmlns="http://www.w3.org/2000/svg">
<path d="M70.4709 113.271L65.9438 108.419L57.0407 116.759C56.2862 117.517 56.588 119.185 57.9461 120.55C59.1533 121.914 60.8132 122.369 61.7186 121.611L70.4709 113.271Z" fill="#161616"/>
<path d="M108.045 121.611L102.009 124.341L107.14 135.562C107.592 136.472 109.252 136.775 111.063 136.017C112.723 135.259 113.779 133.894 113.327 132.832C113.176 132.832 108.045 121.611 108.045 121.611Z" fill="#161616"/>
<path d="M133.095 93.1036C133.095 68.3871 115.741 38.2117 94.3132 25.7776C83.9011 19.7121 74.5452 18.954 67.6038 22.5932L44.0632 34.724L46.9303 39.5764C45.5722 43.3673 44.9686 47.613 44.9686 52.617C44.9686 77.3336 62.3222 107.509 83.7502 119.943C88.1263 122.521 92.3515 124.037 96.2749 124.795L99.1421 129.648L120.57 118.73C128.266 115.091 133.095 106.144 133.095 93.1036Z" fill="#E5E5E5"/>
<path d="M99.142 130.254C98.9911 130.254 98.6893 130.103 98.6893 129.951L95.9731 125.251C91.8988 124.492 87.6736 122.824 83.4483 120.398C61.8695 107.964 44.2141 77.4854 44.2141 52.6172C44.2141 47.7649 44.8177 43.3675 46.1758 39.5766L43.4596 35.0275C43.3087 34.8759 43.3087 34.7242 43.4596 34.5726C43.4596 34.421 43.6105 34.2693 43.7614 34.2693L67.302 22.1385C70.1691 20.6222 73.338 20.0156 76.8087 20.0156C82.392 20.0156 88.2772 21.8352 94.4641 25.4745C116.043 37.757 133.547 68.2356 133.547 93.1038C133.547 105.841 128.87 115.243 120.721 119.337L99.2929 130.254H99.142ZM44.8177 34.8759L47.383 39.1217C47.5339 39.2733 47.5339 39.4249 47.383 39.5766C46.0249 43.3675 45.4213 47.6132 45.4213 52.4656C45.4213 77.0305 62.7749 106.903 84.052 119.337C88.2772 121.763 92.5024 123.431 96.4258 124.189C96.5767 124.189 96.7276 124.341 96.8785 124.492L99.4438 128.89L120.268 118.275C127.964 114.484 132.491 105.386 132.491 93.1038C132.491 68.5389 115.138 38.6668 93.8605 26.2327C87.8245 22.7451 82.0902 20.9254 76.6578 20.9254C73.338 20.9254 70.32 21.6836 67.6038 23.0483L44.8177 34.8759Z" fill="#161616"/>
<path d="M100.523 128.963C115.56 120.13 115.373 91.6935 100.104 65.4494C84.8359 39.2053 60.2685 25.0914 45.2314 33.9251C30.1943 42.7588 30.3819 71.195 45.6504 97.4391C60.9188 123.683 85.4863 137.797 100.523 128.963Z" fill="white"/>
<path d="M90.3899 132.074C84.8065 132.074 78.9214 130.254 72.7345 126.615C51.1556 114.181 33.6511 83.7022 33.6511 58.834C33.6511 41.396 42.1016 30.6299 55.6827 30.6299C61.266 30.6299 67.1511 32.4495 73.3381 36.0888C94.9169 48.5228 112.421 79.0015 112.421 103.87C112.27 121.308 103.82 132.074 90.3899 132.074ZM55.5318 31.843C42.7052 31.843 34.7074 42.3058 34.7074 58.9857C34.7074 83.5506 52.061 113.423 73.1872 125.705C79.2232 129.193 84.9574 131.012 90.3899 131.012C103.216 131.012 111.214 120.701 111.214 104.021C111.214 79.4564 93.8606 49.5843 72.7345 37.3018C66.5475 33.6626 60.8133 31.843 55.5318 31.843Z" fill="#161616"/>
<path d="M86.919 122.066C82.5429 122.066 77.714 120.55 72.7343 117.669C55.3807 107.661 41.3469 83.3991 41.3469 63.3832C41.3469 49.4328 48.1375 40.7896 59.0023 40.7896C63.3785 40.7896 68.2073 42.3059 73.187 45.187C90.5406 55.1949 104.574 79.6082 104.574 99.4724C104.574 113.423 97.7839 122.066 86.919 122.066ZM59.0023 42.0026C48.7411 42.0026 42.4032 50.1909 42.4032 63.5348C42.4032 83.0958 56.1352 107.054 73.187 116.91C78.0158 119.64 82.5429 121.156 86.7681 121.156C97.0294 121.156 103.367 112.968 103.367 99.624C103.367 80.0631 89.6352 56.1047 72.5834 46.2484C67.7546 43.3674 63.2276 42.0026 59.0023 42.0026Z" fill="#161616"/>
<path d="M72.4326 85.0671C72.2817 85.0671 72.2817 85.0671 72.1308 85.0671C71.829 85.0671 71.5272 84.9155 71.0745 84.7639C69.8673 84.1573 69.1128 82.641 69.1128 81.2762C69.1128 80.5181 69.4146 79.9115 70.0182 79.7599V54.2852L72.5835 55.8015V80.973C73.1871 81.7311 73.4889 82.641 73.4889 83.3991C73.4889 83.5508 73.4889 83.5508 73.4889 83.7024L95.8223 111.452L94.7659 112.968L72.4326 85.0671Z" fill="#161616"/>
<path d="M72.2818 82.9446C72.2818 83.5511 71.8291 83.7028 71.3764 83.3995C70.9236 83.0962 70.4709 82.338 70.4709 81.8831C70.4709 81.4282 70.9236 81.125 71.3764 81.4282C71.8291 81.5799 72.2818 82.338 72.2818 82.9446Z" fill="#161616"/>
<path d="M125.399 36.2407C116.194 26.5361 102.462 24.5648 94.9168 31.8433C94.7659 31.995 94.1623 32.4499 93.7096 32.9048C86.1645 40.1833 88.7299 52.1624 97.9348 61.8671C107.14 71.5718 119.815 75.211 127.361 67.9325C127.511 67.7809 128.115 67.326 128.568 66.8711C136.113 59.5926 134.604 45.9454 125.399 36.2407Z" fill="white"/>
<path d="M117.703 72.3299C111.214 72.3299 103.669 68.5391 97.633 62.1704C87.6736 51.8592 86.0137 39.5767 93.4078 32.2982C93.5587 32.1466 93.8605 31.8433 94.1623 31.6917C94.3132 31.54 94.4641 31.3884 94.615 31.3884C97.633 28.3557 101.858 26.8394 106.536 26.8394C113.327 26.8394 120.419 30.0237 125.852 35.7858C135.358 45.6421 136.716 59.8958 129.02 67.326C128.87 67.4776 128.568 67.7809 128.266 67.9325C128.115 68.0842 127.964 68.2358 127.813 68.2358C125.097 70.9652 121.626 72.3299 117.703 72.3299ZM106.536 28.0524C102.16 28.0524 98.2366 29.5688 95.3695 32.2982C95.2186 32.4499 95.0677 32.6015 94.9168 32.7531C94.615 32.9048 94.4641 33.208 94.1623 33.3597C87.2209 40.0316 89.0317 51.5559 98.5384 61.4122C104.424 67.4776 111.516 71.1169 117.703 71.1169C121.324 71.1169 124.493 69.9038 127.059 67.4776C127.21 67.326 127.361 67.1743 127.511 67.0227C127.813 66.8711 127.964 66.5678 128.266 66.4162C135.509 59.2893 134.151 45.9454 125.097 36.544C119.815 31.0851 113.025 28.0524 106.536 28.0524Z" fill="#161616"/>
<path d="M52.8156 3.94213C40.1399 7.73301 32.444 19.4089 35.462 30.3267C37.7255 36.5437 49.0431 35.4823 61.7187 31.6914C74.3944 27.9005 83.7503 22.7449 82.0904 16.3762C78.4687 5.76175 65.4913 0.151246 52.8156 3.94213Z" fill="white"/>
<path d="M44.8177 35.1791C39.3853 35.1791 36.0655 33.5111 34.8583 30.4784C31.8403 19.1057 39.5362 7.27816 52.6646 3.33564C55.3808 2.57746 58.097 2.12256 60.8132 2.12256C70.9236 2.12256 79.6758 7.73307 82.6939 16.073C84.2029 22.1384 77.1105 27.4457 61.8695 32.1463C54.9281 34.2692 49.3448 35.1791 44.8177 35.1791ZM60.8132 3.33564C58.097 3.33564 55.5317 3.79055 52.9664 4.54872C40.5925 8.18797 33.0475 19.5606 35.9146 30.1751C36.9709 32.7529 39.838 34.1176 44.8177 34.1176C49.043 34.1176 54.7772 33.0562 61.4168 31.0849C71.5272 28.0522 83.1466 23.0482 81.4866 16.5279C78.7704 8.64288 70.4709 3.33564 60.8132 3.33564Z" fill="#161616"/>
<path d="M124.946 35.331C123.739 33.9663 121.626 33.8147 120.268 35.1794C118.759 36.5441 118.005 37.3023 118.005 37.3023C117.25 38.0605 117.552 39.7284 118.91 41.0932C120.117 42.4579 121.777 42.9128 122.682 42.3062C122.682 42.3062 123.437 41.5481 125.097 40.0317C126.153 38.8186 126.153 36.6957 124.946 35.331Z" fill="#161616"/>
<path d="M51.0046 0.1515C49.3447 0.606405 48.2884 2.27439 48.7411 3.94238C49.1938 5.762 49.4956 6.67182 49.4956 6.67182C49.7974 7.58163 51.3064 7.27836 52.9664 6.82345C54.6263 6.36855 55.8335 5.76201 55.6826 4.85219C55.6826 4.85219 55.3808 3.94238 54.9281 2.12276C54.3245 0.45477 52.6646 -0.303406 51.0046 0.1515Z" fill="#161616"/>
<path d="M77.4122 109.632C62.6239 100.989 50.5518 80.2149 50.5518 63.0801C50.5518 56.1049 52.5136 50.9493 55.9843 47.6133C50.25 49.8878 46.6284 56.2565 46.6284 65.6579C46.6284 82.7927 58.7005 103.567 73.4888 112.21C82.241 117.366 90.0879 116.911 95.0676 112.21C90.2388 114.181 84.2027 113.423 77.4122 109.632Z" fill="#E5E5E5"/>
<path d="M51.759 92.4975L73.187 80.3667L73.0361 79.9118L77.5631 77.334L78.9212 79.6085L74.3942 82.3379L74.0924 81.883L52.6644 94.0139L51.759 92.4975Z" fill="#F6921E"/>
<path d="M47.5337 134.349H0.603516V136.926C0.603516 136.926 0.603516 138.594 0.603516 138.746C0.603516 146.328 11.1666 152.545 24.1441 152.545C37.1215 152.545 47.6846 146.328 47.6846 138.746C47.6846 138.746 47.6846 137.078 47.6846 136.926V134.349H47.5337Z" fill="#E5E5E5"/>
<path d="M24.1441 153C10.8649 153 0 146.631 0 138.746C0 138.746 0 137.533 0 137.078C0 137.078 0 137.078 0 136.927V134.349C0 134.045 0.301802 133.742 0.603604 133.742H47.6847C47.9865 133.742 48.2883 134.045 48.2883 134.349V136.927C48.2883 136.927 48.2883 136.927 48.2883 137.078C48.2883 137.381 48.2883 138.746 48.2883 138.746C48.1374 146.631 37.2725 153 24.1441 153ZM1.20721 136.775C1.20721 136.927 1.20721 136.927 1.20721 136.775C1.20721 136.927 1.20721 138.595 1.20721 138.595C1.20721 145.873 11.4685 151.787 24.1441 151.787C36.8198 151.787 47.0811 145.873 47.0811 138.595V136.927C47.0811 136.927 47.0811 136.927 47.0811 136.775V134.955H1.20721V136.775Z" fill="#161616"/>
<path d="M24.1441 148.299C37.1451 148.299 47.6846 142.121 47.6846 134.5C47.6846 126.88 37.1451 120.702 24.1441 120.702C11.143 120.702 0.603516 126.88 0.603516 134.5C0.603516 142.121 11.143 148.299 24.1441 148.299Z" fill="white"/>
<path d="M24.1441 148.754C10.8649 148.754 0 142.385 0 134.5C0 126.615 10.8649 120.247 24.1441 120.247C37.4234 120.247 48.2883 126.615 48.2883 134.5C48.1374 142.385 37.2725 148.754 24.1441 148.754ZM24.1441 121.308C11.4685 121.308 1.20721 127.222 1.20721 134.5C1.20721 141.779 11.4685 147.693 24.1441 147.693C36.8198 147.693 47.0811 141.779 47.0811 134.5C47.0811 127.222 36.6689 121.308 24.1441 121.308Z" fill="#161616"/>
<path d="M43.0065 131.619V128.89C43.0065 119.488 37.8759 110.845 29.5764 106.448L27.6147 105.386C26.7093 104.931 26.7093 103.718 27.6147 103.263L30.7836 101.292C38.3286 96.743 43.0065 88.403 43.0065 79.4565V71.7231H5.28133V79.3049C5.28133 88.403 9.95925 96.743 17.8061 101.292L20.975 103.263C21.8804 103.718 21.7295 104.931 20.975 105.386L19.0133 106.448C10.412 110.693 5.13043 119.488 5.13043 129.041V131.467C4.82862 134.5 6.63943 137.533 10.7138 139.959C18.1079 144.205 30.18 144.356 37.5741 139.959C41.4975 137.685 43.3083 134.652 43.0065 131.619Z" fill="white"/>
<path d="M24.1441 143.75C19.0134 143.75 14.0337 142.537 10.4121 140.414C6.33775 138.139 4.22514 134.804 4.52694 131.468V129.041C4.52694 119.337 9.95937 110.39 18.5607 105.841L20.5224 104.78C20.6733 104.628 20.8242 104.476 20.8242 104.173C20.8242 104.022 20.8242 103.718 20.5224 103.567L17.3535 101.595C9.50667 97.0463 4.67784 88.4031 4.67784 79.305V71.7232C4.67784 71.42 4.97964 71.1167 5.28145 71.1167H43.0067C43.3085 71.1167 43.6103 71.42 43.6103 71.7232V79.4566C43.6103 88.5548 38.7814 97.0463 31.0855 101.747L27.9166 103.718C27.6148 103.87 27.6148 104.173 27.6148 104.325C27.6148 104.476 27.6148 104.78 27.9166 104.931L29.8783 105.993C38.3287 110.542 43.6103 119.337 43.6103 129.041V131.771C43.9121 135.107 41.7995 138.291 37.876 140.566C34.1035 142.537 29.2747 143.75 24.1441 143.75ZM5.73415 72.3298V79.305C5.73415 88.0998 10.4121 96.2882 17.9571 100.837L21.126 102.808C21.7296 103.112 22.0314 103.718 22.0314 104.476C22.0314 105.083 21.5787 105.69 21.126 105.993L19.1643 107.054C10.8648 111.3 5.73415 119.792 5.73415 129.193V131.619C5.43235 134.652 7.39406 137.533 11.0157 139.504C14.4864 141.475 19.1643 142.537 24.1441 142.537C29.1238 142.537 33.6508 141.475 37.1215 139.353C40.7432 137.23 42.554 134.5 42.2522 131.619V128.89C42.2522 119.64 37.2724 111.148 29.1238 106.903L27.1621 105.841C26.5585 105.538 26.2567 104.931 26.2567 104.325C26.2567 103.718 26.5585 103.112 27.1621 102.657L30.331 100.686C37.7251 96.1365 42.2522 88.0998 42.2522 79.305V72.1781H5.73415V72.3298Z" fill="#161616"/>
<path d="M43.0069 133.894V130.861C43.0069 122.673 37.7253 123.128 30.9348 120.702C28.5204 119.792 26.8605 117.669 26.5587 115.091C26.106 110.997 25.5023 106.903 25.5023 106.296C25.5023 105.235 25.9551 104.174 27.0114 103.567C27.0114 103.567 29.2749 102.202 30.633 101.292C32.2929 100.231 34.2546 98.2598 34.2546 96.4401C34.2546 93.2558 29.7276 90.5264 24.1442 90.5264C18.5609 90.5264 14.0339 93.1042 14.0339 96.4401C14.0339 98.2598 16.1465 100.383 18.1082 101.596L21.428 103.415C22.3334 104.022 22.937 104.932 22.937 106.145C22.937 106.903 22.3334 110.845 21.8807 115.091C21.5789 117.669 19.919 119.792 17.5046 120.702C10.5632 123.128 5.28163 122.825 5.28163 131.013V133.742V133.894C4.97983 136.623 6.94154 139.353 10.4123 141.476C14.0339 143.599 19.0136 144.812 24.2951 144.812C29.4258 144.812 34.4055 143.599 38.0271 141.627C41.3469 139.353 43.3087 136.623 43.0069 133.894Z" fill="#F6921E"/>
<path d="M24.1443 145.267C18.8627 145.267 13.7321 144.053 9.95957 141.931C6.18705 139.808 4.22534 136.775 4.52714 133.742V131.013C4.52714 123.886 8.60147 122.673 13.5812 121.157C14.7884 120.853 15.9956 120.55 17.2028 120.095C19.3154 119.337 20.9753 117.366 21.1262 114.939C21.428 112.665 21.7298 110.39 21.8807 108.722C22.0316 107.509 22.1825 106.448 22.1825 106.145C22.1825 105.235 21.7298 104.477 20.9753 104.022L17.8064 102.202C15.8447 100.837 13.5812 98.5629 13.5812 96.44C13.5812 92.8007 18.2591 90.0713 24.1443 90.0713C30.0294 90.0713 34.7073 92.9524 34.7073 96.44C34.7073 98.5629 32.7456 100.686 30.9348 101.747C29.5767 102.657 27.3132 104.022 27.3132 104.022C26.5587 104.477 26.106 105.235 26.106 106.145C26.106 106.448 26.2569 107.358 26.4078 108.722C26.5587 110.39 26.8605 112.665 27.1623 115.091C27.4641 117.366 28.9731 119.489 31.0857 120.247C32.2929 120.702 33.5001 121.005 34.7073 121.308C39.687 122.673 43.6105 123.886 43.6105 130.861V133.894C43.9123 136.927 41.9506 139.808 38.178 141.931C34.4055 144.053 29.4258 145.267 24.1443 145.267ZM24.1443 91.1327C19.0136 91.1327 14.6375 93.5589 14.6375 96.44C14.6375 98.108 16.5992 100.079 18.41 101.141L21.5789 102.96C22.6352 103.567 23.3898 104.78 23.3898 106.145C23.3898 106.448 23.2389 107.358 23.088 108.874C22.7862 110.542 22.4843 112.817 22.3334 115.091C22.0316 117.821 20.2208 120.247 17.6555 121.157C16.4483 121.611 15.2411 121.915 14.0339 122.218C9.05417 123.583 5.73435 124.644 5.73435 130.861V133.591C5.43255 136.168 7.24336 138.746 10.7141 140.717C14.3357 142.84 19.1645 143.902 24.2952 143.902V144.508V143.902C29.4258 143.902 34.1037 142.84 37.7253 140.717C41.0452 138.746 42.856 136.32 42.5542 133.742V130.558C42.5542 124.341 39.3852 123.431 34.5564 122.066C33.3492 121.763 32.142 121.308 30.9348 120.853C28.3695 119.943 26.5587 117.517 26.2569 114.788C25.9551 112.513 25.6533 110.239 25.5024 108.571C25.3515 107.206 25.2006 106.296 25.2006 105.993C25.2006 104.628 25.8042 103.415 26.8605 102.809C26.8605 102.809 29.124 101.444 30.4821 100.534C32.142 99.4727 33.8019 97.8047 33.8019 96.1367C33.651 93.5589 29.2749 91.1327 24.1443 91.1327Z" fill="#161616"/>
<path d="M47.5337 67.1743H0.603516V69.7521C0.603516 69.7521 0.603516 71.4201 0.603516 71.5717C0.603516 79.1535 11.1666 85.3705 24.1441 85.3705C37.1215 85.3705 47.6846 79.1535 47.6846 71.5717C47.6846 71.5717 47.6846 69.9038 47.6846 69.7521V67.1743H47.5337Z" fill="#E5E5E5"/>
<path d="M24.1441 85.8255C10.8649 85.8255 0 79.4569 0 71.5718C0 71.5718 0 70.3587 0 69.9038C0 69.9038 0 69.9038 0 69.7522V67.1744C0 66.8711 0.301802 66.5679 0.603604 66.5679H47.6847C47.9865 66.5679 48.2883 66.8711 48.2883 67.1744V69.7522C48.2883 69.7522 48.2883 69.7522 48.2883 69.9038C48.2883 70.2071 48.2883 71.5718 48.2883 71.5718C48.1374 79.4569 37.2725 85.8255 24.1441 85.8255ZM1.20721 69.6006C1.20721 69.7522 1.20721 69.7522 1.20721 69.6006C1.20721 69.7522 1.20721 71.4202 1.20721 71.4202C1.20721 78.6987 11.4685 84.6125 24.1441 84.6125C36.8198 84.6125 47.0811 78.6987 47.0811 71.4202V69.7522C47.0811 69.7522 47.0811 69.7522 47.0811 69.6006V67.6293H1.20721V69.6006Z" fill="#161616"/>
<path d="M24.1441 81.125C37.1451 81.125 47.6846 74.947 47.6846 67.3262C47.6846 59.7053 37.1451 53.5273 24.1441 53.5273C11.143 53.5273 0.603516 59.7053 0.603516 67.3262C0.603516 74.947 11.143 81.125 24.1441 81.125Z" fill="white"/>
<path d="M24.1441 81.5797C10.8649 81.5797 0 75.211 0 67.326C0 59.4409 10.8649 53.0723 24.1441 53.0723C37.4234 53.0723 48.2883 59.4409 48.2883 67.326C48.2883 75.211 37.2725 81.5797 24.1441 81.5797ZM24.1441 54.1337C11.4685 54.1337 1.20721 60.0475 1.20721 67.326C1.20721 74.6045 11.4685 80.5182 24.1441 80.5182C36.8198 80.5182 47.0811 74.6045 47.0811 67.326C47.0811 60.0475 36.6689 54.1337 24.1441 54.1337Z" fill="#161616"/>
</svg>
