<svg width="231" height="123" viewBox="0 0 231 123" fill="none" xmlns="http://www.w3.org/2000/svg">
<g clip-path="url(#clip0_51_462)">
<path d="M122.986 123L196.721 68.1941L74.7148 16.0376L0.979492 70.8437L122.986 123Z" fill="#E5E5E5"/>
<path d="M122.286 119.653L194.482 65.8233L74.8544 14.6431L2.6582 68.473L122.286 119.653Z" fill="white"/>
<path d="M122.286 120.211H122.146L2.37846 68.8914C2.23855 68.7519 2.09863 68.6125 2.09863 68.473C2.09863 68.3336 2.09863 68.0546 2.23855 68.0546L74.4348 14.2247C74.5747 14.0853 74.8545 14.0853 74.9944 14.2247L194.622 65.405C194.762 65.5444 194.902 65.6839 194.902 65.8234C194.902 65.9628 194.902 66.2417 194.762 66.2417L122.566 120.072C122.566 120.072 122.426 120.211 122.286 120.211ZM3.6377 68.3336L122.146 118.956L193.363 65.8234L74.9944 15.2009L3.6377 68.3336Z" fill="#161616"/>
<path d="M113.331 118.956L191.404 74.051L78.6323 9.2041L0.55957 54.1089L113.331 118.956Z" fill="white"/>
<path d="M113.331 119.514C113.191 119.514 113.191 119.514 113.051 119.514L0.27983 54.5272C0.139915 54.5272 0 54.2483 0 54.1089C0 53.9694 0.139915 53.6905 0.27983 53.6905L78.3525 8.78574C78.4924 8.64629 78.7723 8.64629 78.9122 8.78574L191.684 73.6327C191.824 73.7721 191.964 73.9116 191.964 74.0511C191.964 74.1905 191.824 74.4694 191.684 74.4694L113.611 119.514C113.471 119.514 113.331 119.514 113.331 119.514ZM1.53907 54.1089L113.331 118.398L190.285 74.0511L78.6323 9.76193L1.53907 54.1089Z" fill="#161616"/>
<path d="M38.4768 51.0409L30.3617 55.643L38.3369 60.245L46.452 55.643L38.4768 51.0409ZM38.4768 61.2212C38.3369 61.2212 38.0571 61.2212 37.9172 61.0818L29.942 56.4797C29.6622 56.3403 29.3823 55.9219 29.3823 55.643C29.3823 55.2246 29.5222 54.9457 29.942 54.8062L38.0571 50.2042C38.3369 50.0647 38.7566 50.0647 39.0365 50.2042L47.0116 54.8062C47.2915 54.9457 47.5713 55.3641 47.5713 55.643C47.5713 56.0613 47.4314 56.3403 47.0116 56.4797L38.8966 61.0818C38.7566 61.2212 38.6167 61.2212 38.4768 61.2212Z" fill="#161616"/>
<path d="M50.3695 48.1125C50.2296 48.1125 49.9498 47.973 49.9498 47.8336C49.8099 47.5547 49.9498 47.2758 50.0897 47.1363L78.3526 30.82C78.6324 30.6805 78.9122 30.82 79.0522 30.9594C79.1921 31.2383 79.0522 31.5173 78.9122 31.6567L50.6494 48.1125C50.5095 48.1125 50.3695 48.1125 50.3695 48.1125Z" fill="#161616"/>
<path d="M41.8347 57.7351L40.8553 49.0889L38.7566 49.3678L39.4562 55.2249L28.5428 53.1331L28.123 55.0855L41.8347 57.7351Z" fill="#F6921E"/>
<path d="M57.0855 62.0582L48.9704 66.6603L56.9456 71.2623L65.0606 66.6603L57.0855 62.0582ZM56.9456 72.3779C56.8056 72.3779 56.5258 72.3779 56.3859 72.2385L48.4107 67.6365C48.1309 67.497 47.8511 67.0786 47.8511 66.7997C47.8511 66.3814 47.991 66.1024 48.4107 65.963L56.5258 61.3609C56.8056 61.2215 57.2254 61.2215 57.5052 61.3609L65.4804 65.963C65.7602 66.1024 66.0401 66.5208 66.0401 66.7997C66.0401 67.2181 65.9001 67.497 65.4804 67.6365L57.3653 72.2385C57.3653 72.2385 57.2254 72.3779 56.9456 72.3779Z" fill="#161616"/>
<path d="M68.8383 59.1296C68.6984 59.1296 68.4186 58.9901 68.4186 58.8507C68.2786 58.5718 68.4185 58.2928 68.5585 58.1534L96.8213 41.8371C97.1012 41.6976 97.381 41.8371 97.5209 41.9765C97.6608 42.2554 97.5209 42.5343 97.381 42.6738L69.1181 59.1296C69.1181 59.1296 68.9782 59.1296 68.8383 59.1296Z" fill="#161616"/>
<path d="M60.4434 68.7522L59.3241 60.106L57.3652 60.3849L58.0648 66.242L47.1514 64.1502L46.7317 66.1026L60.4434 68.7522Z" fill="#F6921E"/>
<path d="M75.5544 73.0748L67.4394 77.6769L75.5544 82.2789L83.6695 77.6769L75.5544 73.0748ZM75.5544 83.3945C75.4145 83.3945 75.1347 83.3945 74.9948 83.2551L67.0196 78.6531C66.7398 78.5136 66.46 78.0952 66.46 77.8163C66.46 77.3979 66.5999 77.119 67.0196 76.9796L75.1347 72.3775C75.4145 72.2381 75.8343 72.2381 76.1141 72.3775L84.0893 76.9796C84.3691 77.119 84.6489 77.5374 84.6489 77.8163C84.6489 78.2347 84.509 78.5136 84.0893 78.6531L75.9742 83.2551C75.9742 83.2551 75.6944 83.3945 75.5544 83.3945Z" fill="#161616"/>
<path d="M87.4472 70.2858C87.3073 70.2858 87.0274 70.1464 87.0274 70.0069C86.8875 69.728 87.0274 69.4491 87.1674 69.3096L115.43 52.9933C115.71 52.8539 115.99 52.9933 116.13 53.1328C116.27 53.4117 116.13 53.6906 115.99 53.83L87.727 70.1464C87.5871 70.1464 87.5871 70.2858 87.4472 70.2858Z" fill="#161616"/>
<path d="M78.9124 79.7688L77.9329 71.1226L75.9741 71.4015L76.6737 77.2586L65.6204 75.1668L65.3406 77.1192L78.9124 79.7688Z" fill="#F6921E"/>
<path d="M94.1631 84.0919L86.048 88.6939L94.0232 93.296L102.138 88.6939L94.1631 84.0919ZM94.1631 94.4116C94.0232 94.4116 93.7433 94.4116 93.6034 94.2722L85.6283 89.6701C85.3484 89.5307 85.0686 89.1123 85.0686 88.8334C85.0686 88.415 85.2085 88.1361 85.6283 87.9967L93.7433 83.3946C94.0232 83.2552 94.4429 83.2552 94.7227 83.3946L102.698 87.9967C102.978 88.1361 103.258 88.5545 103.258 88.8334C103.258 89.2518 103.118 89.5307 102.698 89.6701L94.5828 94.2722C94.4429 94.4116 94.303 94.4116 94.1631 94.4116Z" fill="#161616"/>
<path d="M106.056 81.3029C105.916 81.3029 105.636 81.1635 105.636 81.024C105.496 80.7451 105.636 80.4662 105.776 80.3267L134.039 64.0104C134.319 63.8709 134.599 64.0104 134.738 64.1499C134.878 64.4288 134.738 64.7077 134.599 64.8471L106.336 81.1635C106.196 81.3029 106.056 81.3029 106.056 81.3029Z" fill="#161616"/>
<path d="M97.521 90.7859L96.5416 82.1396L94.4429 82.4186L95.1425 88.2757L84.2291 86.1839L83.8093 88.1362L97.521 90.7859Z" fill="#F6921E"/>
<path d="M112.772 95.109L104.657 99.711L112.632 104.313L120.747 99.711L112.772 95.109ZM112.632 105.429C112.492 105.429 112.212 105.429 112.072 105.289L104.097 100.687C103.817 100.548 103.537 100.129 103.537 99.8505C103.537 99.4321 103.677 99.1532 104.097 99.0138L112.212 94.4117C112.492 94.2723 112.912 94.2723 113.192 94.4117L121.167 99.0138C121.446 99.1532 121.726 99.5716 121.726 99.8505C121.726 100.269 121.586 100.548 121.167 100.687L113.052 105.289C113.052 105.429 112.912 105.429 112.632 105.429Z" fill="#161616"/>
<path d="M124.525 92.32C124.385 92.32 124.105 92.1806 124.105 92.0411C123.965 91.7622 124.105 91.4833 124.245 91.3438L152.508 75.0275C152.787 74.888 153.067 75.0275 153.207 75.1669C153.347 75.4459 153.207 75.7248 153.067 75.8642L124.804 92.1806C124.804 92.32 124.664 92.32 124.525 92.32Z" fill="#161616"/>
<path d="M116.13 101.803L115.01 93.2964L113.052 93.4358L113.751 99.4324L102.838 97.2011L102.418 99.1535L116.13 101.803Z" fill="#F6921E"/>
<path d="M230.58 74.3298L144.672 22.8706L69.6775 55.2243L164.68 112.401L166.219 111.564L230.58 74.3298Z" fill="#F6921E"/>
<path d="M164.68 112.959C164.54 112.959 164.54 112.959 164.4 112.82L69.3977 55.6429C69.2578 55.5035 69.1179 55.364 69.1179 55.2246C69.1179 55.0851 69.2578 54.8062 69.3977 54.8062L144.392 22.313C144.532 22.313 144.672 22.313 144.812 22.313L230.86 73.9116C231 74.0511 231.14 74.1905 231.14 74.33C231.14 74.4695 231 74.7484 230.86 74.7484L166.499 111.983L164.96 112.82C164.82 112.959 164.82 112.959 164.68 112.959ZM70.7969 55.2246L164.68 111.844L165.939 111.146L229.461 74.33L144.532 23.4286L70.7969 55.2246Z" fill="#161616"/>
<path d="M168.038 106.265L229.181 70.983L141.454 18.1293C140.615 17.5715 139.495 17.5715 138.656 18.1293L79.6116 52.1565L168.038 106.265Z" fill="white"/>
<path d="M168.038 106.823C167.898 106.823 167.898 106.823 167.758 106.684L79.3318 52.7142C79.1919 52.5748 79.052 52.4353 79.052 52.2959C79.052 52.1564 79.1919 51.8775 79.3318 51.8775L138.376 17.7108C139.355 17.153 140.755 17.153 141.734 17.7108L229.321 70.5646C229.461 70.704 229.601 70.8435 229.601 70.983C229.601 71.1224 229.461 71.4013 229.321 71.4013L168.178 106.684C168.178 106.684 168.178 106.823 168.038 106.823ZM80.5911 52.1564L168.038 105.568L228.062 70.983L141.174 18.5476C140.475 18.1292 139.635 18.1292 138.936 18.5476L80.5911 52.1564Z" fill="#161616"/>
<path d="M168.038 102.639L229.181 67.3571L141.594 14.5033C140.755 13.9455 139.635 13.9455 138.796 14.5033L79.6116 48.5305L168.038 102.639Z" fill="white"/>
<path d="M168.038 103.058C167.898 103.058 167.898 103.058 167.758 102.919L79.3318 48.9491C79.1919 48.8097 79.052 48.6702 79.052 48.5307C79.052 48.3913 79.1919 48.1124 79.3318 48.1124L138.376 13.9457C139.355 13.3879 140.755 13.3879 141.734 13.9457L229.321 66.7995C229.461 66.9389 229.601 67.0784 229.601 67.2178C229.601 67.3573 229.461 67.6362 229.321 67.6362L168.178 102.919C168.178 103.058 168.178 103.058 168.038 103.058ZM80.5911 48.5307L168.038 101.942L228.062 67.2178L141.174 14.7824C140.475 14.3641 139.635 14.3641 138.936 14.7824L80.5911 48.5307Z" fill="#161616"/>
<path d="M168.038 98.7346L229.181 63.4523L141.454 10.5985C140.615 10.0407 139.495 10.0407 138.656 10.5985L79.6116 44.6258L168.038 98.7346Z" fill="white"/>
<path d="M168.038 99.2926C167.898 99.2926 167.898 99.2926 167.758 99.1532L79.3318 45.1838C79.1919 45.0443 79.052 44.9049 79.052 44.7654C79.052 44.626 79.1919 44.3471 79.3318 44.3471L138.376 10.0409C139.355 9.4831 140.755 9.4831 141.734 10.0409L229.321 62.8947C229.461 63.0341 229.601 63.1736 229.601 63.313C229.601 63.4525 229.461 63.7314 229.321 63.7314L168.178 99.0137C168.178 99.1532 168.178 99.2926 168.038 99.2926ZM80.5911 44.626L168.038 98.0375L228.062 63.4525L141.174 11.0171C140.475 10.5987 139.635 10.5987 138.936 11.0171L80.5911 44.626Z" fill="#161616"/>
<path d="M230.58 57.1772L137.257 0.976473C136.277 0.41865 135.158 0.41865 134.179 0.976473L71.2167 37.3744C68.8381 38.769 67.2991 41.2792 67.2991 44.0683V52.854C67.2991 54.1091 68.1386 55.2248 69.118 55.6431L163.701 112.681L162.441 100.548L165.38 94.9697L230.58 57.1772ZM85.7679 61.5003C83.5292 60.1057 81.5704 56.8982 81.5704 54.388C81.5704 51.7384 83.3893 50.7622 85.7679 52.0173C88.0065 53.2724 89.9653 56.6193 89.9653 59.1295C89.8254 61.7792 88.0065 62.7554 85.7679 61.5003Z" fill="white"/>
<path d="M163.841 113.099C163.701 113.099 163.701 113.099 163.561 112.959L68.9781 56.0614C67.7189 55.5036 66.8794 54.2485 66.8794 52.8539V44.0682C66.8794 41.1397 68.4185 38.3505 71.0769 36.956L134.039 0.558016C135.158 0.000192651 136.557 0.000192651 137.537 0.558016L230.86 56.7587C231 56.8982 231.14 57.0376 231.14 57.1771C231.14 57.3165 231 57.5954 230.86 57.5954L165.939 95.109L163.141 100.408L164.4 112.402C164.4 112.541 164.26 112.82 164.12 112.959C163.981 113.099 163.841 113.099 163.841 113.099ZM135.718 0.976383C135.298 0.976383 134.878 1.11584 134.458 1.25529L71.4966 37.6533C69.258 38.9084 67.8588 41.2791 67.8588 43.9288V52.7145C67.8588 53.6907 68.4185 54.5274 69.3979 55.0852L163.141 111.565L162.022 100.408C162.022 100.269 162.022 100.269 162.022 100.129L164.96 94.5512C164.96 94.4118 165.1 94.4118 165.1 94.2723L229.461 57.1771L136.977 1.39475C136.557 1.11584 136.137 0.976383 135.718 0.976383ZM87.5868 62.6158C86.8873 62.6158 86.1877 62.3369 85.4881 61.9186C82.9696 60.524 81.0108 57.1771 81.0108 54.2485C81.0108 52.1567 82.1302 50.7621 83.8091 50.7621C84.5087 50.7621 85.2083 51.041 85.9079 51.4594C88.4263 52.8539 90.3851 56.2009 90.3851 59.1295C90.3851 61.2213 89.2658 62.6158 87.5868 62.6158ZM83.8091 51.8778C82.6898 51.8778 81.9902 52.7145 81.9902 54.2485C81.9902 56.7587 83.8091 59.6873 85.9079 60.9424C86.4675 61.2213 87.0272 61.5002 87.4469 61.5002C88.5663 61.5002 89.2658 60.6635 89.2658 59.1295C89.2658 56.6192 87.4469 53.6907 85.3482 52.4356C84.9285 52.0172 84.3688 51.8778 83.8091 51.8778Z" fill="#161616"/>
<path d="M165.52 94.8297L230.58 57.1767L137.257 0.975985C136.277 0.418161 135.158 0.418161 134.179 0.975985L71.2168 37.3739L165.52 94.8297Z" fill="#E5E5E5"/>
<path d="M165.52 95.3878C165.38 95.3878 165.38 95.3878 165.24 95.2483L71.077 37.6531C70.937 37.5136 70.7971 37.3742 70.7971 37.2347C70.7971 37.0952 70.937 36.8163 71.077 36.8163L134.039 0.418367C135.158 -0.139456 136.557 -0.139456 137.537 0.418367L230.86 56.7585C231 56.898 231.14 57.0374 231.14 57.1769C231.14 57.3163 231 57.5952 230.86 57.5952L165.8 95.2483C165.66 95.3878 165.52 95.3878 165.52 95.3878ZM72.3362 37.2347L165.52 94.1327L229.461 57.1769L136.977 1.39456C136.277 0.976191 135.298 0.976191 134.459 1.39456L72.3362 37.2347Z" fill="#161616"/>
<path d="M166.219 111.565C165.939 111.704 165.659 111.843 165.24 111.843C164.4 111.843 163.421 111.146 163.421 110.031V101.245C163.421 98.874 164.68 96.7822 166.779 95.5271L230.58 58.5713V57.1768L166.079 94.4115C163.701 95.806 162.162 98.3162 162.162 101.105V109.891C162.162 112.262 164.68 113.796 166.779 112.541L230.44 75.7244V74.1904L166.219 111.565Z" fill="white"/>
<path d="M165.24 113.657C163.281 113.657 161.602 111.983 161.602 110.031V101.245C161.602 98.3164 163.141 95.5273 165.8 94.1327L230.3 56.898C230.44 56.7586 230.72 56.7586 230.86 56.898C231 57.0375 231.14 57.177 231.14 57.3164V58.5715C231.14 58.711 231 58.9899 230.86 58.9899L167.059 95.9457C165.24 97.0613 163.981 99.0137 163.981 101.106V109.891C163.981 111.007 165.24 111.565 166.079 111.007L230.44 73.7722C230.58 73.6327 230.86 73.6327 231 73.7722C231.14 73.9117 231.28 74.0511 231.28 74.1906V75.7246C231.28 75.864 231.14 76.1429 231 76.1429L167.339 112.959C166.499 113.378 165.939 113.657 165.24 113.657ZM230.021 58.1532L166.359 94.9695C164.121 96.2246 162.721 98.5953 162.721 101.245V110.031C162.721 111.565 164.121 112.541 165.24 112.541C165.66 112.541 166.079 112.401 166.499 112.262L230.021 75.5851V75.3062L166.499 112.123C166.079 112.401 165.66 112.401 165.24 112.401C164.121 112.401 162.861 111.425 162.861 110.031V101.245C162.861 98.7348 164.26 96.364 166.359 95.1089L230.021 58.1532Z" fill="#161616"/>
<path d="M85.7679 50.7618C82.8297 49.0883 80.4512 50.4829 80.4512 53.6904C80.4512 57.0373 82.8297 61.0815 85.7679 62.755C88.7062 64.4284 91.0847 63.0339 91.0847 59.8264C90.9448 56.4795 88.5663 52.4353 85.7679 50.7618ZM85.7679 61.4999C83.5293 60.1053 81.5705 56.8978 81.5705 54.3876C81.5705 51.738 83.3894 50.7618 85.7679 52.0169C88.0066 53.272 89.9654 56.6189 89.9654 59.1291C89.8255 61.7788 88.0066 62.755 85.7679 61.4999Z" fill="#161616"/>
<path d="M141.874 95.6665L103.397 72.3774V61.3604L141.874 84.6495V95.6665Z" fill="white"/>
<path d="M141.874 96.2243C141.734 96.2243 141.734 96.2243 141.594 96.0849L103.117 72.7957C102.978 72.6563 102.838 72.5168 102.838 72.3774V61.3604C102.838 61.2209 102.978 60.942 103.117 60.942C103.257 60.8025 103.537 60.8025 103.677 60.942L142.154 84.2311C142.294 84.3706 142.434 84.51 142.434 84.6495V95.527C142.434 95.6665 142.294 95.9454 142.154 95.9454C142.014 96.0849 142.014 96.2243 141.874 96.2243ZM103.957 72.0985L141.314 94.6903V84.9284L103.957 62.3366V72.0985Z" fill="#161616"/>
<path d="M132.36 89.8092L141.874 95.6663V84.6493L132.36 78.9316V89.8092Z" fill="#F6921E"/>
<path d="M141.874 96.2244C141.734 96.2244 141.734 96.2244 141.594 96.0849L132.08 90.3672C131.94 90.2278 131.8 90.0883 131.8 89.9488V79.0713C131.8 78.9318 131.94 78.6529 132.08 78.6529C132.22 78.5135 132.5 78.5135 132.64 78.6529L142.154 84.3706C142.294 84.5101 142.434 84.6495 142.434 84.789V95.6665C142.434 95.806 142.294 96.0849 142.154 96.0849C142.014 96.0849 142.014 96.2244 141.874 96.2244ZM132.919 89.5305L141.454 94.6903V84.9284L132.919 79.908V89.5305Z" fill="#161616"/>
</g>
<defs>
<clipPath id="clip0_51_462">
<rect width="231" height="123" fill="white"/>
</clipPath>
</defs>
</svg>
