<svg width="142" height="143" viewBox="0 0 142 143" fill="none" xmlns="http://www.w3.org/2000/svg">
<g clip-path="url(#clip0_51_528)">
<path d="M82.8434 142.167L47.9683 121.925C45.8258 120.735 46.1829 118.592 48.5635 117.163L79.1536 105.375C81.5341 103.946 85.224 103.827 87.3665 105.018L110.815 118.711C112.957 119.901 112.6 122.045 110.22 123.473L91.0563 141.81C88.6758 143.239 84.9859 143.358 82.8434 142.167Z" fill="#E5E5E5"/>
<path d="M81.1771 139.547L50.468 121.687C49.6348 121.211 49.2777 120.615 49.1587 119.901V116.329C49.1587 115.496 49.7538 116.924 50.9441 116.21L77.9634 105.851C80.1059 104.66 83.3196 104.422 85.2241 105.494L105.935 117.639C106.53 117.996 107.006 116.448 107.125 116.924C107.125 117.043 107.125 120.496 107.125 120.615C107.125 121.449 106.53 122.282 105.34 122.997L88.4378 139.19C86.2953 140.381 83.0816 140.619 81.1771 139.547Z" fill="#E5E5E5"/>
<path d="M84.3909 140.619C83.0816 140.619 81.8913 140.381 81.0581 139.785L50.349 121.925C49.3968 121.33 48.9207 120.616 48.9207 119.782C48.9207 119.782 48.9207 116.21 48.9207 116.091C48.9207 115.496 49.3968 115.377 49.5158 115.377C49.7538 115.377 49.8729 115.496 49.9919 115.496C50.23 115.615 50.587 115.734 50.9441 115.615L77.9634 105.256C79.9869 104.065 83.6767 103.827 85.5812 105.018L106.292 117.163C106.292 117.163 106.53 116.924 106.53 116.805C106.649 116.567 106.887 116.329 107.125 116.329C107.244 116.329 107.482 116.329 107.601 116.686C107.601 116.805 107.72 116.924 107.601 120.02C107.601 120.258 107.601 120.496 107.601 120.496C107.601 121.568 106.887 122.521 105.578 123.235L88.7949 139.309C87.4856 140.262 85.9383 140.619 84.3909 140.619ZM49.6348 116.686C49.6348 117.639 49.6348 119.782 49.6348 119.901C49.6348 120.377 49.9919 120.973 50.7061 121.33L81.4152 139.19C83.0816 140.143 86.2953 140.024 88.1998 138.833L104.983 122.759C106.054 122.163 106.649 121.33 106.649 120.735C106.649 120.735 106.649 120.496 106.649 120.258C106.649 119.782 106.649 118.71 106.649 117.996C106.411 118.234 105.935 118.353 105.578 118.115L84.986 105.851C83.3196 104.899 80.1059 105.018 78.2015 106.208L51.1822 116.567C50.7061 116.805 49.9919 116.805 49.6348 116.686Z" fill="#161616"/>
<path d="M81.177 135.975L50.4679 118.115C48.5634 117.044 48.8015 115.138 50.944 113.948L77.9632 103.589C80.1057 102.398 83.3195 102.16 85.2239 103.232L105.935 115.377C107.839 116.448 107.601 118.353 105.459 119.544L88.5567 135.737C86.2952 136.809 83.0814 137.047 81.177 135.975Z" fill="white"/>
<path d="M84.3908 137.047C83.0815 137.047 81.8912 136.809 81.058 136.213L50.3489 118.353C49.2776 117.877 48.8015 117.163 48.8015 116.21C48.8015 115.139 49.5157 114.186 50.825 113.472L77.8443 103.113C79.8677 101.922 83.5576 101.684 85.462 102.875L106.173 115.019C107.125 115.615 107.601 116.329 107.601 117.163C107.601 118.234 106.887 119.187 105.578 119.901L88.7948 135.975C87.4855 136.69 85.9381 137.047 84.3908 137.047ZM82.0102 102.875C80.5819 102.875 79.1536 103.232 78.2013 103.827L51.1821 114.305C50.2298 114.9 49.7537 115.615 49.7537 116.21C49.7537 116.925 50.3489 117.401 50.825 117.639L81.5341 135.499C83.2005 136.452 86.4142 136.333 88.3187 135.142L105.102 119.068C106.173 118.472 106.768 117.758 106.768 117.044C106.768 116.329 106.173 115.853 105.697 115.615L84.9859 103.589C84.2718 103.113 83.2005 102.875 82.0102 102.875Z" fill="#161616"/>
<path d="M104.03 116.091L84.6289 104.661C82.8435 103.708 79.8678 103.827 77.8444 104.899L65.1084 109.78C65.2274 109.899 65.3465 110.019 65.4655 110.019L94.3892 126.807C94.7463 127.045 95.2224 127.164 95.8175 127.283L103.673 119.782C105.578 118.83 105.697 117.044 104.03 116.091Z" fill="#E5E5E5"/>
<path d="M128.907 136.927L45.3496 88.5861C41.0646 86.0857 37.6128 79.537 37.6128 73.8217V9.76344C37.6128 4.0482 41.0646 1.42872 45.3496 3.92913L129.026 52.2705C133.311 54.7709 136.763 61.3196 136.763 67.0349V130.974C136.644 136.808 133.192 139.428 128.907 136.927Z" fill="white"/>
<path d="M132.002 138.237C130.931 138.237 129.859 137.88 128.669 137.285L45.1116 88.9435C40.7075 86.443 37.1367 79.5371 37.1367 73.7028V9.7636C37.1367 5.35811 39.1602 2.50049 42.2549 2.50049C43.3262 2.50049 44.3974 2.85769 45.5877 3.45303L129.264 51.7944C133.668 54.2948 137.239 61.0817 137.239 67.035V130.974C137.12 135.499 135.096 138.237 132.002 138.237ZM42.2549 3.45303C39.6363 3.45303 38.0889 5.95344 38.0889 9.7636V73.8219C38.0889 79.4181 41.4217 85.8477 45.5877 88.2291L129.264 136.57C130.216 137.166 131.169 137.404 132.121 137.404C134.739 137.404 136.287 134.903 136.287 131.093V67.035C136.287 61.4389 132.954 55.0092 128.788 52.6279L45.1116 4.2865C44.0403 3.69116 43.0881 3.45303 42.2549 3.45303Z" fill="#161616"/>
<path d="M129.978 132.403L47.492 84.7761C44.0402 82.6329 41.8977 78.2274 41.8977 73.7029V9.40646C41.8977 8.33485 43.088 7.73952 43.9212 8.21579C44.0402 8.21579 44.1592 8.33485 44.1592 8.33485L126.645 56.0809C130.692 58.4622 132.24 62.6296 132.24 67.1542V131.332C132.24 132.522 131.049 133.237 129.978 132.641C129.978 132.522 129.978 132.522 129.978 132.403Z" fill="white"/>
<path d="M130.811 133.237C130.454 133.237 130.097 133.118 129.859 132.999L129.74 132.88L47.254 85.2526C43.6832 82.9903 41.4216 78.5848 41.4216 73.8221V9.40662C41.4216 8.45408 42.2548 7.62061 43.207 7.62061C43.5641 7.62061 43.8022 7.73967 44.1593 7.85874L44.3973 7.97781L126.883 55.7238C130.692 57.8671 132.716 61.7963 132.716 67.1543V131.332C132.716 132.284 131.883 133.237 130.811 133.237ZM43.3261 8.45408C42.85 8.45408 42.3739 8.81128 42.3739 9.40662V73.8221C42.3739 78.2276 44.5163 82.395 47.7301 84.4191L130.335 132.165C130.93 132.522 131.883 132.165 131.883 131.213V67.0353C131.883 63.5823 130.93 58.9387 126.526 56.4383L43.8022 8.57314C43.5641 8.45408 43.4451 8.45408 43.3261 8.45408Z" fill="#161616"/>
<path d="M133.787 49.7705L50.2298 1.4291C48.5634 0.476562 47.016 0.238428 45.7067 0.714697C45.5877 0.833765 40.7075 3.33418 40.4695 3.45325C41.7788 2.85791 43.4452 2.97698 45.2306 3.92952L128.907 52.2709C133.192 54.7713 136.644 61.32 136.644 67.0353V130.974C136.644 134.547 135.335 136.928 133.192 137.523C133.311 137.523 133.549 137.523 133.906 137.285C134.025 137.285 139.024 134.547 139.143 134.427C140.572 133.356 141.524 131.332 141.524 128.355V64.5348C141.524 58.8196 138.072 52.1518 133.787 49.7705Z" fill="#E5E5E5"/>
<path d="M133.311 138.118C133.311 138.118 133.192 138.118 133.311 138.118C133.073 138.118 132.835 137.999 132.835 137.761C132.835 137.523 132.954 137.404 133.192 137.285C135.096 136.69 136.287 134.308 136.287 131.093V67.0352C136.287 61.439 132.954 55.0094 128.788 52.628L45.1115 4.28666C43.4451 3.33412 41.8978 3.21505 40.7075 3.81039C40.4695 3.92946 40.2314 3.81039 40.1124 3.57225C39.9933 3.33412 40.1124 3.09598 40.3504 2.97692C40.3504 2.97692 45.3496 0.357432 45.5876 0.238364C47.016 -0.356973 48.8014 -0.118838 50.4678 0.952769L134.144 49.2942C138.548 51.7946 142.119 58.7005 142.119 64.5348V128.474C142.119 131.451 141.167 133.713 139.5 134.904C139.5 134.904 139.024 135.142 135.454 137.047C134.739 137.404 134.263 137.642 134.144 137.761C133.787 137.999 133.549 138.118 133.311 138.118ZM42.969 2.61971C43.8022 2.73878 44.6354 3.09598 45.5876 3.57225L129.264 51.9136C133.668 54.4141 137.239 61.2009 137.239 67.1543V131.093C137.239 132.999 136.882 134.546 136.168 135.856C137.477 135.142 138.905 134.308 139.024 134.308C140.453 133.356 141.167 131.213 141.167 128.593V64.5348C141.167 58.9386 137.834 52.509 133.668 50.1276L49.9917 1.78624C48.4443 0.952769 47.016 0.714634 45.8257 1.1909C45.7067 1.1909 44.2783 1.90531 42.969 2.61971Z" fill="#161616"/>
<path d="M83.7954 74.2977L78.9153 79.6558C78.6773 79.8939 78.2011 79.7748 78.0821 79.4176L72.2498 47.8647L96.7695 68.7015C97.0075 68.9397 96.8885 69.416 96.5314 69.535L89.5088 70.9638L101.65 91.6816L95.8172 95.0155L83.7954 74.2977Z" fill="#F6921E"/>
<path d="M95.8173 95.4919C95.6982 95.4919 95.4602 95.3728 95.4602 95.2537L83.7955 75.0123L79.3914 79.894C78.9153 80.3703 77.9631 80.1322 77.8441 79.4178L72.0117 47.8649C72.0117 47.6268 72.0117 47.5077 72.2498 47.3886C72.3688 47.2695 72.6069 47.2695 72.7259 47.3886L97.2456 68.2254C97.4836 68.4636 97.6027 68.8208 97.4836 69.178C97.3646 69.5352 97.1266 69.7733 96.7695 69.8924L90.342 71.2021L102.007 91.4436C102.126 91.5626 102.126 91.6817 102.007 91.8008C102.007 91.9198 101.888 92.0389 101.769 92.0389L95.9363 95.3728C96.0553 95.4919 95.9363 95.4919 95.8173 95.4919ZM83.7955 73.8216C83.9145 73.8216 83.9145 73.8216 83.7955 73.8216C84.0335 73.8216 84.1525 73.9407 84.1525 74.0597L95.9363 94.4203L100.935 91.5626L89.2707 71.2021C89.1517 71.083 89.1517 70.964 89.2707 70.8449C89.2707 70.7258 89.3898 70.6068 89.6278 70.6068L96.6504 69.178L73.083 49.0556L78.6773 79.2987L83.5574 73.9407C83.5574 73.9407 83.6764 73.8216 83.7955 73.8216Z" fill="#161616"/>
<path d="M51.5388 105.613L42.4927 110.495L56.0618 135.499C56.895 136.928 59.5136 137.047 62.0132 135.737C64.5128 134.427 65.9411 132.046 65.1079 130.617L51.5388 105.613Z" fill="white"/>
<path d="M58.5615 137.166C57.2522 137.166 56.1809 136.69 55.7048 135.737L42.1357 110.733C42.1357 110.614 42.0166 110.495 42.1357 110.376C42.1357 110.257 42.2547 110.137 42.3737 110.137L51.4198 105.256C51.6579 105.137 51.8959 105.256 52.015 105.494L65.5841 130.498C66.5363 132.284 65.108 134.784 62.2513 136.213C61.0611 136.809 59.7518 137.166 58.5615 137.166ZM56.419 135.38C57.0141 136.57 59.6327 136.57 61.7752 135.38C64.0368 134.189 65.3461 132.165 64.7509 130.855L51.4198 106.208L43.0879 110.733L56.419 135.38Z" fill="#161616"/>
<path d="M51.539 105.613C52.3722 107.042 50.9439 109.304 48.4443 110.733C45.9447 112.042 43.2071 112.042 42.4929 110.495C41.6597 109.066 43.088 106.803 45.5876 105.375C48.0872 104.065 50.8248 104.184 51.539 105.613Z" fill="#161616"/>
<path d="M44.9925 112.161C43.6832 112.161 42.6119 111.685 42.1358 110.733C41.1836 109.066 42.6119 106.565 45.4686 105.017C46.6589 104.422 47.9682 103.946 49.1585 103.946C50.4678 103.946 51.539 104.422 52.0151 105.375C52.9673 107.042 51.539 109.542 48.6823 111.09C47.4921 111.804 46.1828 112.161 44.9925 112.161ZM49.0394 104.898C47.9682 104.898 46.8969 105.256 45.8257 105.851C43.5642 107.042 42.2548 109.066 42.85 110.375C43.4451 111.566 46.0637 111.566 48.2062 110.375C50.4678 109.185 51.7771 107.161 51.1819 105.851C50.9439 105.256 50.1107 104.898 49.0394 104.898Z" fill="#161616"/>
<path d="M45.5874 98.9448L40.2312 101.802L44.0401 108.946C44.5162 109.78 46.0636 109.899 47.6109 109.066C49.1583 108.232 49.9915 106.922 49.5154 106.089L45.5874 98.9448Z" fill="#F6921E"/>
<path d="M45.5875 110.256C44.7543 110.256 44.0402 109.899 43.6831 109.304L39.8742 102.16C39.8742 102.041 39.7552 101.922 39.8742 101.803C39.8742 101.684 39.9932 101.564 40.1122 101.564L45.4685 98.7069C45.7065 98.5878 45.9446 98.7069 46.0636 98.945L49.8725 106.089C50.4677 107.161 49.6345 108.828 47.849 109.78C47.1349 110.018 46.3017 110.256 45.5875 110.256ZM40.8264 102.041L44.5163 108.828C44.6353 109.185 45.1114 109.304 45.5875 109.304C46.1827 109.304 46.7778 109.066 47.3729 108.828C48.6822 108.113 49.3964 106.923 49.0393 106.446L45.3495 99.6594L40.8264 102.041Z" fill="#161616"/>
<path d="M30.3522 41.6735C23.5676 37.7443 17.4972 37.3871 13.0932 39.7684C12.9741 39.8875 6.54665 43.4595 6.30859 43.6976C10.8316 40.2447 17.6162 40.3637 25.115 44.6502C38.8031 52.5086 49.8727 71.6785 49.8727 87.3954C49.8727 95.3729 47.016 100.969 42.374 103.469C42.7311 103.35 43.0881 103.231 43.5642 102.993C43.6833 102.874 48.0873 100.255 48.2063 100.136C52.4913 97.5161 55.1099 92.039 55.1099 84.4187C55.1099 68.7018 44.0404 49.5319 30.3522 41.6735Z" fill="#E5E5E5"/>
<path d="M42.3739 103.946C42.1358 103.946 42.0168 103.827 42.0168 103.708C41.8978 103.469 42.0168 103.231 42.2548 103.112C47.0159 100.612 49.5155 95.0157 49.5155 87.3953C49.5155 71.7975 38.446 52.8658 24.9958 45.0073C21.0679 42.8641 17.3781 41.6734 14.0453 41.6734C11.7838 41.6734 9.76029 42.1497 8.0939 43.1023C7.73682 43.3404 7.37973 43.4595 7.14168 43.6976C7.02265 43.8167 6.7846 43.9357 6.66557 44.0548C6.54654 44.1739 6.30849 44.1739 6.07043 44.0548C5.9514 43.9357 5.83237 43.6976 5.9514 43.4595C5.9514 43.3404 6.07043 43.3404 6.54654 42.9832C6.90362 42.745 7.14168 42.626 7.49876 42.3878C9.4032 41.1972 12.736 39.4112 12.855 39.4112C14.7594 38.3396 16.9019 37.8633 19.2825 37.8633C22.8533 37.8633 26.6622 39.054 30.5901 41.3162C44.3973 49.2938 55.5859 68.5827 55.5859 84.4187C55.5859 92.039 53.0864 97.7542 48.4443 100.493C48.4443 100.493 43.9212 103.231 43.8022 103.35C43.3261 103.589 42.85 103.827 42.3739 103.946C42.3739 103.946 42.4929 103.946 42.3739 103.946ZM14.0453 40.84C17.6161 40.84 21.425 42.0306 25.3529 44.2929C39.1601 52.2704 50.3487 71.5594 50.3487 87.3953C50.3487 92.9915 48.9204 97.5161 46.4208 100.731C47.254 100.255 47.9682 99.7784 47.9682 99.7784C52.3722 97.1589 54.7527 91.6818 54.7527 84.4187C54.7527 68.9399 43.6832 49.8891 30.233 42.0306C26.4242 39.7684 22.7343 38.6968 19.2825 38.6968C17.14 38.6968 15.1165 39.173 13.3311 40.1256C13.3311 40.1256 12.617 40.4828 11.9028 40.959C12.4979 40.84 13.2121 40.84 14.0453 40.84Z" fill="#161616"/>
<path d="M42.8112 103.105C52.4021 97.4962 52.2966 79.4652 42.5756 62.8316C32.8546 46.198 17.1992 37.2607 7.60829 42.8696C-1.98261 48.4785 -1.87712 66.5096 7.8439 83.1431C17.5649 99.7767 33.2203 108.714 42.8112 103.105Z" fill="white"/>
<path d="M36.3034 105.375C32.7326 105.375 28.9237 104.184 24.9958 101.922C11.1886 93.9443 0 74.5363 0 58.7004C0 47.6271 5.35624 40.7212 14.0453 40.7212C17.6161 40.7212 21.425 41.9119 25.3529 44.1741C39.1601 52.1517 50.3487 71.4406 50.3487 87.2766C50.4677 98.4689 44.9925 105.375 36.3034 105.375ZM14.0453 41.6737C5.95138 41.6737 0.952221 48.2224 0.952221 58.7004C0.952221 74.2982 12.0218 93.2299 25.4719 101.088C29.2808 103.351 32.9707 104.422 36.4225 104.422C44.5163 104.422 49.6345 97.8736 49.6345 87.2766C49.6345 71.6787 38.565 52.747 25.1148 44.8886C21.1869 42.7453 17.4971 41.6737 14.0453 41.6737Z" fill="#161616"/>
<path d="M28.6856 91.6819C18.8064 85.9667 10.8315 72.2739 10.8315 60.9625C10.8315 56.438 12.1408 52.985 14.4023 50.8418C10.5934 52.3897 8.21289 56.557 8.21289 62.7485C8.21289 74.0599 16.1877 87.7527 26.067 93.4679C31.8994 96.8018 37.1366 96.5637 40.3504 93.4679C37.1366 94.6586 33.0897 94.1823 28.6856 91.6819Z" fill="#E5E5E5"/>
<path d="M34.161 98.9452C31.3044 98.9452 28.2097 97.9927 24.9959 96.2067C13.9263 89.777 4.99927 74.2983 4.99927 61.6771C4.99927 52.8661 9.40329 47.1509 16.4259 47.1509C19.2826 47.1509 22.3773 48.1034 25.5911 49.8894C36.6606 56.3191 45.5877 71.7978 45.5877 84.419C45.4687 93.23 41.0646 98.9452 34.161 98.9452ZM16.3069 47.9844C9.8794 47.9844 5.83246 53.2233 5.83246 61.558C5.83246 73.9411 14.6405 89.1817 25.472 95.3732C28.5667 97.1592 31.4234 97.9927 34.161 97.9927C40.5885 97.9927 44.6355 92.7537 44.6355 84.419C44.6355 72.036 35.8274 56.7953 24.9959 50.6038C21.9012 48.9369 19.0445 47.9844 16.3069 47.9844Z" fill="#161616"/>
</g>
<defs>
<clipPath id="clip0_51_528">
<rect width="142" height="143" fill="white"/>
</clipPath>
</defs>
</svg>
