<svg width="200" height="149" viewBox="0 0 200 149" fill="none" xmlns="http://www.w3.org/2000/svg">
<g clip-path="url(#clip0_51_574)">
<path d="M171.46 16.1054C171.57 15.7767 171.57 15.3384 171.57 15.0098C171.57 9.42227 164.984 4.8208 156.861 4.8208C148.738 4.8208 142.152 9.42227 142.152 15.0098V89.8384C142.152 95.4259 148.738 100.027 156.861 100.027C164.984 100.027 171.57 95.4259 171.57 89.8384C171.57 89.7289 171.57 89.5098 171.57 89.4002L171.46 16.1054Z" fill="#D6D6D6"/>
<path d="M124.259 17.7485C116.136 17.7485 109.55 22.35 109.55 27.9375V71.3228C109.55 76.9103 116.136 81.5118 124.259 81.5118C132.382 81.5118 138.968 76.9103 138.968 71.3228C138.968 71.2132 138.968 70.9941 138.968 70.8846L138.858 29.0331C138.968 28.7044 138.968 28.2662 138.968 27.9375C138.968 22.35 132.382 17.7485 124.259 17.7485Z" fill="#D6D6D6"/>
<path d="M93.8531 27.6089C85.6203 27.6089 79.0342 32.2104 79.0342 37.7979V52.917C79.0342 58.5045 85.6204 63.1059 93.7433 63.1059C101.866 63.1059 108.452 58.5045 108.452 52.917C108.452 52.8074 108.452 52.5883 108.452 52.4787L108.343 38.8934C108.452 38.5648 108.452 38.1265 108.452 37.7979C108.562 32.2104 101.976 27.6089 93.8531 27.6089Z" fill="#D6D6D6"/>
<path d="M143.908 10.6277C146.433 7.45045 151.262 5.25928 156.861 5.25928C162.459 5.25928 167.399 7.45045 169.814 10.6277H171.46L171.57 85.0181C171.57 85.1277 171.57 85.3468 171.57 85.4563C171.57 91.0438 164.984 95.6453 156.861 95.6453C148.738 95.6453 142.152 91.0438 142.152 85.4563V10.6277H143.908Z" fill="white"/>
<path d="M143.908 10.6277C146.433 7.45045 151.262 5.25928 156.861 5.25928C162.459 5.25928 167.399 7.45045 169.814 10.6277H171.46L171.57 85.0181C171.57 85.1277 171.57 85.3468 171.57 85.4563C171.57 91.0438 164.984 95.6453 156.861 95.6453C148.738 95.6453 142.152 91.0438 142.152 85.4563V10.6277H143.908Z" stroke="#232323" stroke-width="0.75" stroke-miterlimit="10" stroke-linejoin="round"/>
<path d="M156.861 20.8164C164.984 20.8164 171.57 16.2547 171.57 10.6274C171.57 5.00023 164.984 0.438477 156.861 0.438477C148.737 0.438477 142.152 5.00023 142.152 10.6274C142.152 16.2547 148.737 20.8164 156.861 20.8164Z" fill="white"/>
<path d="M156.861 20.8164C164.984 20.8164 171.57 16.2547 171.57 10.6274C171.57 5.00023 164.984 0.438477 156.861 0.438477C148.737 0.438477 142.152 5.00023 142.152 10.6274C142.152 16.2547 148.737 20.8164 156.861 20.8164Z" stroke="#232323" stroke-width="0.75" stroke-miterlimit="10" stroke-linejoin="round"/>
<path d="M111.197 23.5554C113.721 20.3782 118.551 18.187 124.15 18.187C129.748 18.187 134.687 20.3782 137.102 23.5554H138.749L138.859 66.5024C138.859 66.612 138.859 66.8311 138.859 66.9407C138.859 72.5282 132.272 77.1297 124.15 77.1297C116.027 77.1297 109.44 72.5282 109.44 66.9407V23.5554H111.197Z" fill="white"/>
<path d="M111.197 23.5554C113.721 20.3782 118.551 18.187 124.15 18.187C129.748 18.187 134.687 20.3782 137.102 23.5554H138.749L138.859 66.5024C138.859 66.612 138.859 66.8311 138.859 66.9407C138.859 72.5282 132.272 77.1297 124.15 77.1297C116.027 77.1297 109.44 72.5282 109.44 66.9407V23.5554H111.197Z" stroke="#232323" stroke-width="0.75" stroke-miterlimit="10" stroke-linejoin="round"/>
<path d="M124.259 33.7442C132.383 33.7442 138.969 29.1824 138.969 23.5552C138.969 17.928 132.383 13.3662 124.259 13.3662C116.136 13.3662 109.55 17.928 109.55 23.5552C109.55 29.1824 116.136 33.7442 124.259 33.7442Z" fill="white"/>
<path d="M124.259 33.7442C132.383 33.7442 138.969 29.1824 138.969 23.5552C138.969 17.928 132.383 13.3662 124.259 13.3662C116.136 13.3662 109.55 17.928 109.55 23.5552C109.55 29.1824 116.136 33.7442 124.259 33.7442Z" stroke="#232323" stroke-width="0.75" stroke-miterlimit="10" stroke-linejoin="round"/>
<path d="M80.7905 33.4157C83.3152 30.2385 88.145 28.0474 93.7433 28.0474C99.3415 28.0474 104.281 30.2385 106.696 33.4157H108.343L108.452 48.0966C108.452 48.2062 108.452 48.4253 108.452 48.5349C108.452 54.1224 101.866 58.7238 93.7433 58.7238C85.6204 58.7238 79.0342 54.1224 79.0342 48.5349V33.4157H80.7905Z" fill="white"/>
<path d="M80.7905 33.4157C83.3152 30.2385 88.145 28.0474 93.7433 28.0474C99.3415 28.0474 104.281 30.2385 106.696 33.4157H108.343L108.452 48.0966C108.452 48.2062 108.452 48.4253 108.452 48.5349C108.452 54.1224 101.866 58.7238 93.7433 58.7238C85.6204 58.7238 79.0342 54.1224 79.0342 48.5349V33.4157H80.7905Z" stroke="#232323" stroke-width="0.75" stroke-miterlimit="10" stroke-linejoin="round"/>
<path d="M93.8532 43.6045C101.977 43.6045 108.562 39.0427 108.562 33.4155C108.562 27.7883 101.977 23.2266 93.8532 23.2266C85.7295 23.2266 79.144 27.7883 79.144 33.4155C79.144 39.0427 85.7295 43.6045 93.8532 43.6045Z" fill="white"/>
<path d="M93.8532 43.6045C101.977 43.6045 108.562 39.0427 108.562 33.4155C108.562 27.7883 101.977 23.2266 93.8532 23.2266C85.7295 23.2266 79.144 27.7883 79.144 33.4155C79.144 39.0427 85.7295 43.6045 93.8532 43.6045Z" stroke="#232323" stroke-width="0.75" stroke-miterlimit="10" stroke-linejoin="round"/>
<path d="M131.723 103.862L61.0319 62.8873C59.4951 62.0109 57.629 62.0109 56.0923 62.8873L5.269 92.4682C4.39085 93.016 4.17131 94.002 4.50062 94.7689C4.17131 95.5359 4.39085 96.5219 5.269 97.0697L7.57416 98.3844L1.3173 102C0.439146 102.548 0.219607 103.534 0.548915 104.301C0.219607 105.067 0.439146 106.054 1.3173 106.601L72.7772 148.124C74.5336 149.11 76.7289 149.11 78.595 148.124L127.882 119.31C128.979 118.653 129.418 117.448 129.089 116.352C129.418 115.256 128.979 114.051 127.882 113.394L126.784 112.737L131.833 109.779C132.931 109.121 133.37 107.916 133.041 106.82C133.26 105.725 132.821 104.52 131.723 103.862Z" fill="#D6D6D6"/>
<path d="M127.881 113.832L78.5949 142.646C76.8386 143.742 74.6432 143.742 72.7772 142.646L1.31722 101.123C0.109755 100.466 0.109755 98.6036 1.31722 97.9462L52.1405 68.3654C53.6773 67.4889 55.5433 67.4889 57.0801 68.3654L127.772 109.34C129.528 110.326 129.528 112.846 127.881 113.832Z" fill="#F6921E"/>
<path d="M127.881 113.832L78.5949 142.646C76.8386 143.742 74.6432 143.742 72.7772 142.646L1.31722 101.123C0.109755 100.466 0.109755 98.6036 1.31722 97.9462L52.1405 68.3654C53.6773 67.4889 55.5433 67.4889 57.0801 68.3654L127.772 109.34C129.528 110.326 129.528 112.846 127.881 113.832Z" stroke="#232323" stroke-width="0.75" stroke-miterlimit="10" stroke-linejoin="round"/>
<path d="M127.881 112.408L78.5949 141.331C76.8386 142.427 74.6432 142.427 72.7772 141.331L1.31722 99.6991C0.109755 99.0418 0.109755 97.1793 1.31722 96.5219L52.1405 66.941C53.6773 66.0646 55.5433 66.0646 57.0801 66.941L127.772 107.916C129.528 108.902 129.528 111.422 127.881 112.408Z" fill="#F6921E"/>
<path d="M127.881 112.408L78.5949 141.331C76.8386 142.427 74.6432 142.427 72.7772 141.331L1.31722 99.6991C0.109755 99.0418 0.109755 97.1793 1.31722 96.5219L52.1405 66.941C53.6773 66.0646 55.5433 66.0646 57.0801 66.941L127.772 107.916C129.528 108.902 129.528 111.422 127.881 112.408Z" stroke="#232323" stroke-width="0.75" stroke-miterlimit="10" stroke-linejoin="round"/>
<path d="M89.0229 121.939L32.9307 89.4004" stroke="#232323" stroke-width="0.75" stroke-miterlimit="10" stroke-linecap="round" stroke-linejoin="round"/>
<path d="M84.7419 124.788L28.6497 92.249" stroke="#232323" stroke-width="0.75" stroke-miterlimit="10" stroke-linecap="round" stroke-linejoin="round"/>
<path d="M79.034 127.637L23.0515 95.0977" stroke="#232323" stroke-width="0.75" stroke-miterlimit="10" stroke-linecap="round" stroke-linejoin="round"/>
<path d="M114.05 109.559L102.195 116.242C101.647 116.571 100.878 116.571 100.22 116.242L88.5839 109.231C88.1449 108.902 88.1449 108.244 88.5839 107.916L100.439 101.014C101.098 100.685 101.866 100.685 102.525 101.014L114.05 107.697C114.819 108.135 114.819 109.231 114.05 109.559Z" fill="white"/>
<path d="M114.05 109.559L102.195 116.242C101.647 116.571 100.878 116.571 100.22 116.242L88.5839 109.231C88.1449 108.902 88.1449 108.244 88.5839 107.916L100.439 101.014C101.098 100.685 101.866 100.685 102.525 101.014L114.05 107.697C114.819 108.135 114.819 109.231 114.05 109.559Z" stroke="#232323" stroke-width="0.75" stroke-miterlimit="10" stroke-linejoin="round"/>
<path d="M112.404 110.655L98.573 102.438" stroke="#232323" stroke-width="0.75" stroke-miterlimit="10" stroke-linejoin="round"/>
<path d="M105.159 114.489L91.3281 106.382" stroke="#232323" stroke-width="0.75" stroke-miterlimit="10" stroke-linejoin="round"/>
<path d="M112.294 106.601L98.3535 114.928" stroke="#232323" stroke-width="0.75" stroke-miterlimit="10" stroke-linejoin="round"/>
<path d="M106.476 107.149L99.5608 111.312" stroke="#232323" stroke-width="0.75" stroke-miterlimit="10" stroke-linejoin="round"/>
<path d="M103.403 105.067L96.4873 109.231" stroke="#232323" stroke-width="0.75" stroke-miterlimit="10" stroke-linejoin="round"/>
<path d="M103.732 101.78C103.622 101.999 90.011 109.997 90.011 109.997" stroke="#232323" stroke-width="0.75" stroke-miterlimit="10" stroke-linejoin="round"/>
<path d="M131.723 104.301L82.4368 133.115C80.6805 134.21 78.4851 134.21 76.6191 133.115L5.26888 91.5917C4.06142 90.9344 4.06142 89.0719 5.26888 88.4145L56.0922 58.8336C57.6289 57.9572 59.495 57.9572 61.0318 58.8336L131.723 99.8086C133.48 100.795 133.48 103.314 131.723 104.301Z" fill="white"/>
<path d="M131.723 104.301L82.4368 133.115C80.6805 134.21 78.4851 134.21 76.6191 133.115L5.26888 91.5917C4.06142 90.9344 4.06142 89.0719 5.26888 88.4145L56.0922 58.8336C57.6289 57.9572 59.495 57.9572 61.0318 58.8336L131.723 99.8086C133.48 100.795 133.48 103.314 131.723 104.301Z" stroke="#232323" stroke-width="0.75" stroke-miterlimit="10" stroke-linejoin="round"/>
<path d="M131.723 102.876L82.4368 131.69C80.6805 132.786 78.4851 132.786 76.6191 131.69L5.26888 90.1674C4.06142 89.51 4.06142 87.6475 5.26888 86.9902L56.0922 57.4093C57.6289 56.5328 59.495 56.5328 61.0318 57.4093L131.723 98.3843C133.48 99.3703 133.48 101.89 131.723 102.876Z" fill="white"/>
<path d="M131.723 102.876L82.4368 131.69C80.6805 132.786 78.4851 132.786 76.6191 131.69L5.26888 90.1674C4.06142 89.51 4.06142 87.6475 5.26888 86.9902L56.0922 57.4093C57.6289 56.5328 59.495 56.5328 61.0318 57.4093L131.723 98.3843C133.48 99.3703 133.48 101.89 131.723 102.876Z" stroke="#232323" stroke-width="0.75" stroke-miterlimit="10" stroke-linejoin="round"/>
<path d="M92.865 112.408L36.8826 79.8687" stroke="#232323" stroke-width="0.75" stroke-miterlimit="10" stroke-linecap="round" stroke-linejoin="round"/>
<path d="M88.584 115.256L32.6016 82.7173" stroke="#232323" stroke-width="0.75" stroke-miterlimit="10" stroke-linecap="round" stroke-linejoin="round"/>
<path d="M82.9858 118.105L26.8936 85.5659" stroke="#232323" stroke-width="0.75" stroke-miterlimit="10" stroke-linecap="round" stroke-linejoin="round"/>
<path d="M118.002 100.027L106.147 106.711C105.598 107.039 104.83 107.039 104.171 106.711L92.6455 99.6988C92.2064 99.3701 92.2064 98.7127 92.6455 98.3841L104.501 91.4819C105.159 91.1532 105.928 91.1532 106.586 91.4819L118.112 98.1649C118.661 98.6032 118.661 99.5892 118.002 100.027Z" fill="white"/>
<path d="M118.002 100.027L106.147 106.711C105.598 107.039 104.83 107.039 104.171 106.711L92.6455 99.6988C92.2064 99.3701 92.2064 98.7127 92.6455 98.3841L104.501 91.4819C105.159 91.1532 105.928 91.1532 106.586 91.4819L118.112 98.1649C118.661 98.6032 118.661 99.5892 118.002 100.027Z" stroke="#232323" stroke-width="0.75" stroke-miterlimit="10" stroke-linejoin="round"/>
<path d="M116.246 101.123L102.415 92.9062" stroke="#232323" stroke-width="0.75" stroke-miterlimit="10" stroke-linejoin="round"/>
<path d="M109.111 104.957L95.28 96.8501" stroke="#232323" stroke-width="0.75" stroke-miterlimit="10" stroke-linejoin="round"/>
<path d="M116.246 97.0693L102.305 105.396" stroke="#232323" stroke-width="0.75" stroke-miterlimit="10" stroke-linejoin="round"/>
<path d="M110.428 97.6172L103.513 101.78" stroke="#232323" stroke-width="0.75" stroke-miterlimit="10" stroke-linejoin="round"/>
<path d="M107.245 95.5356L100.329 99.6989" stroke="#232323" stroke-width="0.75" stroke-miterlimit="10" stroke-linejoin="round"/>
<path d="M107.574 92.2485C107.464 92.4677 93.853 100.465 93.853 100.465" stroke="#232323" stroke-width="0.75" stroke-miterlimit="10" stroke-linejoin="round"/>
<path d="M78.4852 86.7705C78.5949 87.0992 78.5949 87.4279 78.7047 87.7565C78.4852 88.7426 78.3754 89.7286 78.3754 90.7146C78.3754 91.372 78.3754 91.9198 78.4852 92.4676L78.3754 97.6168C78.3754 97.9455 78.2656 98.3837 78.2656 98.7124C78.2656 101.561 79.2535 104.3 81.1196 106.71C81.2294 106.82 81.2294 106.929 81.3392 107.039C85.6202 112.298 93.7431 115.913 103.074 115.913C108.672 115.913 113.831 114.598 118.002 112.517C117.892 113.065 117.892 113.503 117.892 114.051C117.892 114.708 117.892 115.256 118.002 115.804L117.892 120.953C117.892 121.282 117.783 121.72 117.783 122.048C117.783 123.254 118.002 124.349 118.331 125.445C120.637 133.223 130.626 139.14 142.591 139.14C148.408 139.14 153.787 137.715 158.068 135.415C158.288 135.305 158.507 135.196 158.727 135.086C160.922 133.771 162.898 132.128 164.325 130.375C164.435 130.265 164.435 130.156 164.544 130.046C165.642 128.622 166.411 127.088 166.85 125.554C167.179 124.459 167.398 123.254 167.398 122.158V119.857C169.704 120.296 172.119 120.624 174.753 120.624C180.571 120.624 185.949 119.2 190.231 116.899C190.45 116.79 190.67 116.68 190.889 116.571C193.084 115.256 195.06 113.612 196.487 111.859C196.597 111.75 196.597 111.64 196.707 111.531C197.805 110.107 198.573 108.573 199.012 107.039C199.341 105.943 199.561 104.738 199.561 103.643V95.5352C199.561 94.5492 199.451 93.5632 199.232 92.5771C199.451 91.5911 199.561 90.6051 199.561 89.619V86.8801H78.4852V86.7705Z" fill="#D6D6D6"/>
<path d="M196.597 92.5771C192.426 87.2087 184.193 83.5933 174.753 83.5933C165.313 83.5933 157.08 87.2087 152.909 92.5771H150.165L150.055 99.9175C150.055 100.137 150.055 100.356 150.055 100.684C150.055 110.106 161.142 117.776 174.863 117.776C188.584 117.776 199.671 110.106 199.671 100.684V92.5771H196.597Z" fill="#00DEBF"/>
<path d="M174.753 117.776C188.454 117.776 199.561 110.124 199.561 100.684C199.561 91.2452 188.454 83.5933 174.753 83.5933C161.052 83.5933 149.945 91.2452 149.945 100.684C149.945 110.124 161.052 117.776 174.753 117.776Z" fill="white"/>
<path d="M196.597 92.5771C192.426 87.2087 184.193 83.5933 174.753 83.5933C165.313 83.5933 157.08 87.2087 152.909 92.5771H150.165L150.055 99.9175C150.055 100.137 150.055 100.356 150.055 100.684C150.055 110.106 161.142 117.776 174.863 117.776C188.584 117.776 199.671 110.106 199.671 100.684V92.5771H196.597Z" stroke="#222D4E" stroke-width="0.75" stroke-miterlimit="10" stroke-linejoin="round"/>
<path d="M174.753 117.776C188.454 117.776 199.561 110.124 199.561 100.684C199.561 91.2452 188.454 83.5933 174.753 83.5933C161.052 83.5933 149.945 91.2452 149.945 100.684C149.945 110.124 161.052 117.776 174.753 117.776Z" stroke="#222D4E" stroke-width="0.75" stroke-miterlimit="10" stroke-linejoin="round"/>
<path d="M174.753 109.668C188.454 109.668 199.561 102.016 199.561 92.577C199.561 83.1378 188.454 75.4858 174.753 75.4858C161.052 75.4858 149.945 83.1378 149.945 92.577C149.945 102.016 161.052 109.668 174.753 109.668Z" fill="white"/>
<path d="M174.753 109.668C188.454 109.668 199.561 102.016 199.561 92.577C199.561 83.1378 188.454 75.4858 174.753 75.4858C161.052 75.4858 149.945 83.1378 149.945 92.577C149.945 102.016 161.052 109.668 174.753 109.668Z" stroke="#222D4E" stroke-width="0.75" stroke-miterlimit="10" stroke-linejoin="round"/>
<path d="M174.863 117.776C174.863 117.557 174.863 117.337 174.863 117.228V109.778" stroke="#222D4E" stroke-width="0.75" stroke-miterlimit="10" stroke-linejoin="round"/>
<path d="M180.351 117.228V109.23" stroke="#222D4E" stroke-width="0.75" stroke-miterlimit="10" stroke-linejoin="round"/>
<path d="M185.401 116.023V108.134" stroke="#222D4E" stroke-width="0.75" stroke-miterlimit="10" stroke-linejoin="round"/>
<path d="M190.121 114.16V106.162" stroke="#222D4E" stroke-width="0.75" stroke-miterlimit="10" stroke-linejoin="round"/>
<path d="M194.182 111.421V103.423" stroke="#222D4E" stroke-width="0.75" stroke-miterlimit="10" stroke-linejoin="round"/>
<path d="M197.805 106.929V99.041" stroke="#222D4E" stroke-width="0.75" stroke-miterlimit="10" stroke-linejoin="round"/>
<path d="M169.374 117.228V109.23" stroke="#222D4E" stroke-width="0.75" stroke-miterlimit="10" stroke-linejoin="round"/>
<path d="M164.325 116.023V108.134" stroke="#222D4E" stroke-width="0.75" stroke-miterlimit="10" stroke-linejoin="round"/>
<path d="M159.605 114.16V106.162" stroke="#222D4E" stroke-width="0.75" stroke-miterlimit="10" stroke-linejoin="round"/>
<path d="M155.543 111.421V103.423" stroke="#222D4E" stroke-width="0.75" stroke-miterlimit="10" stroke-linejoin="round"/>
<path d="M151.921 106.929V99.041" stroke="#222D4E" stroke-width="0.75" stroke-miterlimit="10" stroke-linejoin="round"/>
<path d="M174.753 105.834C185.362 105.834 193.963 99.8984 193.963 92.5769C193.963 85.2555 185.362 79.3203 174.753 79.3203C164.144 79.3203 155.543 85.2555 155.543 92.5769C155.543 99.8984 164.144 105.834 174.753 105.834Z" fill="white"/>
<path d="M174.753 105.834C185.362 105.834 193.963 99.8984 193.963 92.5769C193.963 85.2555 185.362 79.3203 174.753 79.3203C164.144 79.3203 155.543 85.2555 155.543 92.5769C155.543 99.8984 164.144 105.834 174.753 105.834Z" stroke="#222D4E" stroke-width="0.75" stroke-miterlimit="10" stroke-linejoin="round"/>
<path d="M176.18 87.6471L171.24 89.7287L170.362 89.2905C169.374 88.7427 168.716 88.414 168.386 88.3045C167.947 88.1949 167.618 88.1949 167.179 88.414C166.85 88.5236 166.74 88.7427 166.85 88.8523C166.959 89.0714 167.289 89.2905 167.728 89.6192C168.606 90.0574 169.265 90.3861 169.923 90.3861C170.582 90.4956 172.119 90.3861 174.533 90.3861C176.619 90.2765 178.156 90.2765 179.034 90.3861C179.912 90.3861 180.9 90.6052 181.998 90.9339C183.096 91.2625 184.303 91.7008 185.401 92.3581C187.267 93.4537 188.364 94.4398 188.584 95.3162C188.804 96.3023 188.145 97.1787 186.718 98.0552L188.694 99.1508L186.389 100.137L184.303 99.0412C182.876 99.4795 181.12 99.6986 179.144 99.589C177.168 99.4795 175.082 98.7125 172.667 97.5074L171.679 96.9596L176.619 94.878L177.936 95.6449C179.363 96.4118 180.351 96.85 180.79 97.0692C181.229 97.1787 181.668 97.1787 182.108 97.0692C182.437 96.9596 182.547 96.7405 182.547 96.5214C182.437 96.3023 182.217 96.0831 181.778 95.864C180.571 95.2067 179.693 94.7684 179.034 94.5493C178.375 94.3302 177.278 94.2206 175.741 94.3302C173.216 94.4398 171.46 94.4398 170.362 94.3302C169.265 94.2206 168.167 94.1111 166.959 93.7824C165.642 93.4537 164.544 93.0155 163.447 92.3581C161.91 91.4817 161.032 90.6052 161.032 89.7287C160.922 88.8523 161.69 88.0853 163.117 87.2089L161.471 86.2228L163.776 85.2368L165.423 86.2228C167.179 85.675 168.825 85.5655 170.582 85.675C172.228 85.8942 173.875 86.3324 175.412 87.2089C175.412 87.2089 175.741 87.428 176.18 87.6471Z" fill="white"/>
<path d="M176.18 87.6471L171.24 89.7287L170.362 89.2905C169.374 88.7427 168.716 88.414 168.386 88.3045C167.947 88.1949 167.618 88.1949 167.179 88.414C166.85 88.5236 166.74 88.7427 166.85 88.8523C166.959 89.0714 167.289 89.2905 167.728 89.6192C168.606 90.0574 169.265 90.3861 169.923 90.3861C170.582 90.4956 172.119 90.3861 174.533 90.3861C176.619 90.2765 178.156 90.2765 179.034 90.3861C179.912 90.3861 180.9 90.6052 181.998 90.9339C183.096 91.2625 184.303 91.7008 185.401 92.3581C187.267 93.4537 188.364 94.4398 188.584 95.3162C188.804 96.3023 188.145 97.1787 186.718 98.0552L188.694 99.1508L186.389 100.137L184.303 99.0412C182.876 99.4795 181.12 99.6986 179.144 99.589C177.168 99.4795 175.082 98.7125 172.667 97.5074L171.679 96.9596L176.619 94.878L177.936 95.6449C179.363 96.4118 180.351 96.85 180.79 97.0692C181.229 97.1787 181.668 97.1787 182.108 97.0692C182.437 96.9596 182.547 96.7405 182.547 96.5214C182.437 96.3023 182.217 96.0831 181.778 95.864C180.571 95.2067 179.693 94.7684 179.034 94.5493C178.375 94.3302 177.278 94.2206 175.741 94.3302C173.216 94.4398 171.46 94.4398 170.362 94.3302C169.265 94.2206 168.167 94.1111 166.959 93.7824C165.642 93.4537 164.544 93.0155 163.447 92.3581C161.91 91.4817 161.032 90.6052 161.032 89.7287C160.922 88.8523 161.69 88.0853 163.117 87.2089L161.471 86.2228L163.776 85.2368L165.423 86.2228C167.179 85.675 168.825 85.5655 170.582 85.675C172.228 85.8942 173.875 86.3324 175.412 87.2089C175.412 87.2089 175.741 87.428 176.18 87.6471Z" stroke="#222D4E" stroke-width="0.75" stroke-miterlimit="10" stroke-linejoin="round"/>
<path d="M196.597 78.4443C192.426 73.0759 184.193 69.4604 174.753 69.4604C165.313 69.4604 157.08 73.0759 152.909 78.4443H150.165L150.055 85.7847C150.055 86.0038 150.055 86.2229 150.055 86.5516C150.055 95.9737 161.142 103.643 174.863 103.643C188.584 103.643 199.671 95.9737 199.671 86.5516V78.4443H196.597Z" fill="#00DEBF"/>
<path d="M174.753 103.643C188.454 103.643 199.561 95.9908 199.561 86.5516C199.561 77.1124 188.454 69.4604 174.753 69.4604C161.052 69.4604 149.945 77.1124 149.945 86.5516C149.945 95.9908 161.052 103.643 174.753 103.643Z" fill="white"/>
<path d="M196.597 78.4443C192.426 73.0759 184.193 69.4604 174.753 69.4604C165.313 69.4604 157.08 73.0759 152.909 78.4443H150.165L150.055 85.7847C150.055 86.0038 150.055 86.2229 150.055 86.5516C150.055 95.9737 161.142 103.643 174.863 103.643C188.584 103.643 199.671 95.9737 199.671 86.5516V78.4443H196.597Z" stroke="#222D4E" stroke-width="0.75" stroke-miterlimit="10" stroke-linejoin="round"/>
<path d="M174.753 103.643C188.454 103.643 199.561 95.9908 199.561 86.5516C199.561 77.1124 188.454 69.4604 174.753 69.4604C161.052 69.4604 149.945 77.1124 149.945 86.5516C149.945 95.9908 161.052 103.643 174.753 103.643Z" stroke="#222D4E" stroke-width="0.75" stroke-miterlimit="10" stroke-linejoin="round"/>
<path d="M174.753 95.5354C188.454 95.5354 199.561 87.8834 199.561 78.4442C199.561 69.005 188.454 61.353 174.753 61.353C161.052 61.353 149.945 69.005 149.945 78.4442C149.945 87.8834 161.052 95.5354 174.753 95.5354Z" fill="white"/>
<path d="M174.753 95.5354C188.454 95.5354 199.561 87.8834 199.561 78.4442C199.561 69.005 188.454 61.353 174.753 61.353C161.052 61.353 149.945 69.005 149.945 78.4442C149.945 87.8834 161.052 95.5354 174.753 95.5354Z" stroke="#222D4E" stroke-width="0.75" stroke-miterlimit="10" stroke-linejoin="round"/>
<path d="M174.863 103.643C174.863 103.424 174.863 103.205 174.863 103.095V95.645" stroke="#222D4E" stroke-width="0.75" stroke-miterlimit="10" stroke-linejoin="round"/>
<path d="M180.351 103.095V95.2065" stroke="#222D4E" stroke-width="0.75" stroke-miterlimit="10" stroke-linejoin="round"/>
<path d="M185.401 101.999V94.1108" stroke="#222D4E" stroke-width="0.75" stroke-miterlimit="10" stroke-linejoin="round"/>
<path d="M190.121 100.136V92.1387" stroke="#222D4E" stroke-width="0.75" stroke-miterlimit="10" stroke-linejoin="round"/>
<path d="M194.182 97.3977V89.3999" stroke="#222D4E" stroke-width="0.75" stroke-miterlimit="10" stroke-linejoin="round"/>
<path d="M197.805 92.9058V85.0176" stroke="#222D4E" stroke-width="0.75" stroke-miterlimit="10" stroke-linejoin="round"/>
<path d="M169.374 103.095V95.2065" stroke="#222D4E" stroke-width="0.75" stroke-miterlimit="10" stroke-linejoin="round"/>
<path d="M164.325 101.999V94.1108" stroke="#222D4E" stroke-width="0.75" stroke-miterlimit="10" stroke-linejoin="round"/>
<path d="M159.605 100.136V92.1387" stroke="#222D4E" stroke-width="0.75" stroke-miterlimit="10" stroke-linejoin="round"/>
<path d="M155.543 97.3977V89.3999" stroke="#222D4E" stroke-width="0.75" stroke-miterlimit="10" stroke-linejoin="round"/>
<path d="M151.921 92.9058V85.0176" stroke="#222D4E" stroke-width="0.75" stroke-miterlimit="10" stroke-linejoin="round"/>
<path d="M174.753 91.7007C185.362 91.7007 193.963 85.7655 193.963 78.4441C193.963 71.1227 185.362 65.1875 174.753 65.1875C164.144 65.1875 155.543 71.1227 155.543 78.4441C155.543 85.7655 164.144 91.7007 174.753 91.7007Z" fill="white"/>
<path d="M174.753 91.7007C185.362 91.7007 193.963 85.7655 193.963 78.4441C193.963 71.1227 185.362 65.1875 174.753 65.1875C164.144 65.1875 155.543 71.1227 155.543 78.4441C155.543 85.7655 164.144 91.7007 174.753 91.7007Z" stroke="#222D4E" stroke-width="0.75" stroke-miterlimit="10" stroke-linejoin="round"/>
<path d="M176.18 73.6237L171.24 75.7053L170.362 75.2671C169.374 74.7193 168.716 74.3906 168.386 74.281C167.947 74.1715 167.618 74.1715 167.179 74.3906C166.85 74.5001 166.74 74.7193 166.85 74.8288C166.959 75.0479 167.289 75.2671 167.728 75.5957C168.606 76.034 169.265 76.3626 169.923 76.3626C170.582 76.4722 172.119 76.3626 174.533 76.3626C176.619 76.2531 178.156 76.2531 179.034 76.3626C179.912 76.3626 180.9 76.5818 181.998 76.9104C183.096 77.2391 184.303 77.6773 185.401 78.3347C187.267 79.4303 188.364 80.4163 188.584 81.2928C188.804 82.2788 188.145 83.1553 186.718 84.0318L188.694 85.1273L186.389 86.1134L184.303 85.0178C182.876 85.456 181.12 85.6751 179.144 85.5656C177.168 85.456 175.082 84.6891 172.667 83.484L171.679 82.9362L176.619 80.8546L177.936 81.6215C179.363 82.3884 180.351 82.8266 180.79 83.0457C181.229 83.1553 181.668 83.1553 182.108 83.0457C182.437 82.9362 182.547 82.7171 182.547 82.4979C182.437 82.2788 182.217 82.0597 181.778 81.8406C180.571 81.1832 179.693 80.745 179.034 80.5259C178.375 80.3068 177.278 80.1972 175.741 80.3068C173.216 80.4163 171.46 80.4163 170.362 80.3068C169.265 80.1972 168.167 80.0876 166.959 79.759C165.642 79.4303 164.544 78.9921 163.447 78.3347C161.91 77.4582 161.032 76.5818 161.032 75.7053C160.922 74.8288 161.69 74.0619 163.117 73.1854L161.471 72.1994L163.776 71.2134L165.423 72.1994C167.179 71.6516 168.825 71.5421 170.582 71.6516C172.228 71.8707 173.875 72.309 175.412 73.1854C175.412 73.1854 175.741 73.4046 176.18 73.6237Z" fill="white"/>
<path d="M176.18 73.6237L171.24 75.7053L170.362 75.2671C169.374 74.7193 168.716 74.3906 168.386 74.281C167.947 74.1715 167.618 74.1715 167.179 74.3906C166.85 74.5001 166.74 74.7193 166.85 74.8288C166.959 75.0479 167.289 75.2671 167.728 75.5957C168.606 76.034 169.265 76.3626 169.923 76.3626C170.582 76.4722 172.119 76.3626 174.533 76.3626C176.619 76.2531 178.156 76.2531 179.034 76.3626C179.912 76.3626 180.9 76.5818 181.998 76.9104C183.096 77.2391 184.303 77.6773 185.401 78.3347C187.267 79.4303 188.364 80.4163 188.584 81.2928C188.804 82.2788 188.145 83.1553 186.718 84.0318L188.694 85.1273L186.389 86.1134L184.303 85.0178C182.876 85.456 181.12 85.6751 179.144 85.5656C177.168 85.456 175.082 84.6891 172.667 83.484L171.679 82.9362L176.619 80.8546L177.936 81.6215C179.363 82.3884 180.351 82.8266 180.79 83.0457C181.229 83.1553 181.668 83.1553 182.108 83.0457C182.437 82.9362 182.547 82.7171 182.547 82.4979C182.437 82.2788 182.217 82.0597 181.778 81.8406C180.571 81.1832 179.693 80.745 179.034 80.5259C178.375 80.3068 177.278 80.1972 175.741 80.3068C173.216 80.4163 171.46 80.4163 170.362 80.3068C169.265 80.1972 168.167 80.0876 166.959 79.759C165.642 79.4303 164.544 78.9921 163.447 78.3347C161.91 77.4582 161.032 76.5818 161.032 75.7053C160.922 74.8288 161.69 74.0619 163.117 73.1854L161.471 72.1994L163.776 71.2134L165.423 72.1994C167.179 71.6516 168.825 71.5421 170.582 71.6516C172.228 71.8707 173.875 72.309 175.412 73.1854C175.412 73.1854 175.741 73.4046 176.18 73.6237Z" stroke="#222D4E" stroke-width="0.75" stroke-miterlimit="10" stroke-linejoin="round"/>
<path d="M196.597 64.311C192.426 58.9426 184.193 55.3271 174.753 55.3271C165.313 55.3271 157.08 58.9426 152.909 64.311H150.165L150.055 71.6514C150.055 71.8705 150.055 72.0896 150.055 72.4183C150.055 81.8404 161.142 89.5095 174.863 89.5095C188.584 89.5095 199.671 81.8404 199.671 72.4183V64.311H196.597V64.311Z" fill="#00DEBF"/>
<path d="M174.753 89.5095C188.454 89.5095 199.561 81.8575 199.561 72.4183C199.561 62.9791 188.454 55.3271 174.753 55.3271C161.052 55.3271 149.945 62.9791 149.945 72.4183C149.945 81.8575 161.052 89.5095 174.753 89.5095Z" fill="white"/>
<path d="M196.597 64.311C192.426 58.9426 184.193 55.3271 174.753 55.3271C165.313 55.3271 157.08 58.9426 152.909 64.311H150.165L150.055 71.6514C150.055 71.8705 150.055 72.0896 150.055 72.4183C150.055 81.8404 161.142 89.5095 174.863 89.5095C188.584 89.5095 199.671 81.8404 199.671 72.4183V64.311H196.597V64.311Z" stroke="#222D4E" stroke-width="0.75" stroke-miterlimit="10" stroke-linejoin="round"/>
<path d="M174.753 89.5095C188.454 89.5095 199.561 81.8575 199.561 72.4183C199.561 62.9791 188.454 55.3271 174.753 55.3271C161.052 55.3271 149.945 62.9791 149.945 72.4183C149.945 81.8575 161.052 89.5095 174.753 89.5095Z" stroke="#222D4E" stroke-width="0.75" stroke-miterlimit="10" stroke-linejoin="round"/>
<path d="M174.753 81.4021C188.454 81.4021 199.561 73.7501 199.561 64.3109C199.561 54.8717 188.454 47.2197 174.753 47.2197C161.052 47.2197 149.945 54.8717 149.945 64.3109C149.945 73.7501 161.052 81.4021 174.753 81.4021Z" fill="white"/>
<path d="M174.753 81.4021C188.454 81.4021 199.561 73.7501 199.561 64.3109C199.561 54.8717 188.454 47.2197 174.753 47.2197C161.052 47.2197 149.945 54.8717 149.945 64.3109C149.945 73.7501 161.052 81.4021 174.753 81.4021Z" stroke="#222D4E" stroke-width="0.75" stroke-miterlimit="10" stroke-linejoin="round"/>
<path d="M174.863 89.5095C174.863 89.2904 174.863 89.0713 174.863 88.9617V81.5117" stroke="#222D4E" stroke-width="0.75" stroke-miterlimit="10" stroke-linejoin="round"/>
<path d="M180.351 88.9615V81.0732" stroke="#222D4E" stroke-width="0.75" stroke-miterlimit="10" stroke-linejoin="round"/>
<path d="M185.401 87.7564V79.8682" stroke="#222D4E" stroke-width="0.75" stroke-miterlimit="10" stroke-linejoin="round"/>
<path d="M190.121 85.8938V77.896" stroke="#222D4E" stroke-width="0.75" stroke-miterlimit="10" stroke-linejoin="round"/>
<path d="M194.182 83.2644V75.2666" stroke="#222D4E" stroke-width="0.75" stroke-miterlimit="10" stroke-linejoin="round"/>
<path d="M197.805 78.7727V70.7749" stroke="#222D4E" stroke-width="0.75" stroke-miterlimit="10" stroke-linejoin="round"/>
<path d="M169.374 88.9615V81.0732" stroke="#222D4E" stroke-width="0.75" stroke-miterlimit="10" stroke-linejoin="round"/>
<path d="M164.325 87.7564V79.8682" stroke="#222D4E" stroke-width="0.75" stroke-miterlimit="10" stroke-linejoin="round"/>
<path d="M159.605 85.8938V77.896" stroke="#222D4E" stroke-width="0.75" stroke-miterlimit="10" stroke-linejoin="round"/>
<path d="M155.543 83.2644V75.2666" stroke="#222D4E" stroke-width="0.75" stroke-miterlimit="10" stroke-linejoin="round"/>
<path d="M151.921 78.7727V70.7749" stroke="#222D4E" stroke-width="0.75" stroke-miterlimit="10" stroke-linejoin="round"/>
<path d="M174.753 77.5674C185.362 77.5674 193.963 71.6322 193.963 64.3108C193.963 56.9894 185.362 51.0542 174.753 51.0542C164.144 51.0542 155.543 56.9894 155.543 64.3108C155.543 71.6322 164.144 77.5674 174.753 77.5674Z" fill="white"/>
<path d="M174.753 77.5674C185.362 77.5674 193.963 71.6322 193.963 64.3108C193.963 56.9894 185.362 51.0542 174.753 51.0542C164.144 51.0542 155.543 56.9894 155.543 64.3108C155.543 71.6322 164.144 77.5674 174.753 77.5674Z" stroke="#222D4E" stroke-width="0.75" stroke-miterlimit="10" stroke-linejoin="round"/>
<path d="M176.18 59.381L171.24 61.4626L170.362 61.0244C169.374 60.4766 168.716 60.1479 168.386 60.0383C167.947 59.9288 167.618 59.9288 167.179 60.1479C166.85 60.2575 166.74 60.4766 166.85 60.5861C166.959 60.8053 167.289 61.0244 167.728 61.3531C168.606 61.7913 169.265 62.12 169.923 62.12C170.582 62.2295 172.119 62.12 174.533 62.12C176.619 62.0104 178.156 62.0104 179.034 62.12C179.912 62.12 180.9 62.3391 181.998 62.6678C183.096 62.9964 184.303 63.4347 185.401 64.092C187.267 65.1876 188.364 66.1736 188.584 67.0501C188.804 68.0361 188.145 68.9126 186.718 69.7891L188.694 70.8847L186.389 71.8707L184.303 70.7751C182.876 71.2133 181.12 71.4325 179.144 71.3229C177.168 71.2133 175.082 70.4464 172.667 69.2413L171.679 68.6935L176.619 66.6119L177.936 67.3788C179.363 68.1457 180.351 68.5839 180.79 68.8031C181.229 68.9126 181.668 68.9126 182.108 68.8031C182.437 68.6935 182.547 68.4744 182.547 68.2553C182.437 68.0361 182.217 67.817 181.778 67.5979C180.571 66.9406 179.693 66.5023 179.034 66.2832C178.375 66.0641 177.278 65.9545 175.741 66.0641C173.216 66.1736 171.46 66.1736 170.362 66.0641C169.265 65.9545 168.167 65.845 166.959 65.5163C165.752 65.1876 164.544 64.7494 163.447 64.092C161.91 63.2156 161.032 62.3391 161.032 61.4626C160.922 60.5861 161.69 59.8192 163.117 58.9428L161.471 57.9567L163.776 56.9707L165.423 57.9567C167.179 57.4089 168.825 57.2994 170.582 57.4089C172.228 57.6281 173.875 58.0663 175.412 58.9428C175.412 58.9428 175.741 59.1619 176.18 59.381Z" fill="white"/>
<path d="M176.18 59.381L171.24 61.4626L170.362 61.0244C169.374 60.4766 168.716 60.1479 168.386 60.0383C167.947 59.9288 167.618 59.9288 167.179 60.1479C166.85 60.2575 166.74 60.4766 166.85 60.5861C166.959 60.8053 167.289 61.0244 167.728 61.3531C168.606 61.7913 169.265 62.12 169.923 62.12C170.582 62.2295 172.119 62.12 174.533 62.12C176.619 62.0104 178.156 62.0104 179.034 62.12C179.912 62.12 180.9 62.3391 181.998 62.6678C183.096 62.9964 184.303 63.4347 185.401 64.092C187.267 65.1876 188.364 66.1736 188.584 67.0501C188.804 68.0361 188.145 68.9126 186.718 69.7891L188.694 70.8847L186.389 71.8707L184.303 70.7751C182.876 71.2133 181.12 71.4325 179.144 71.3229C177.168 71.2133 175.082 70.4464 172.667 69.2413L171.679 68.6935L176.619 66.6119L177.936 67.3788C179.363 68.1457 180.351 68.5839 180.79 68.8031C181.229 68.9126 181.668 68.9126 182.108 68.8031C182.437 68.6935 182.547 68.4744 182.547 68.2553C182.437 68.0361 182.217 67.817 181.778 67.5979C180.571 66.9406 179.693 66.5023 179.034 66.2832C178.375 66.0641 177.278 65.9545 175.741 66.0641C173.216 66.1736 171.46 66.1736 170.362 66.0641C169.265 65.9545 168.167 65.845 166.959 65.5163C165.752 65.1876 164.544 64.7494 163.447 64.092C161.91 63.2156 161.032 62.3391 161.032 61.4626C160.922 60.5861 161.69 59.8192 163.117 58.9428L161.471 57.9567L163.776 56.9707L165.423 57.9567C167.179 57.4089 168.825 57.2994 170.582 57.4089C172.228 57.6281 173.875 58.0663 175.412 58.9428C175.412 58.9428 175.741 59.1619 176.18 59.381Z" stroke="#222D4E" stroke-width="0.75" stroke-miterlimit="10" stroke-linejoin="round"/>
<path d="M124.918 87.7563C120.747 82.3879 112.514 78.7725 103.074 78.7725C93.6334 78.7725 85.5105 82.3879 81.2295 87.7563H78.4853L78.3755 95.0967C78.3755 95.3158 78.3755 95.535 78.3755 95.8636C78.3755 105.286 89.4622 112.955 103.183 112.955C116.905 112.955 127.991 105.286 127.991 95.8636V87.7563H124.918Z" fill="#00DEBF"/>
<path d="M103.074 112.955C116.775 112.955 127.881 105.303 127.881 95.8636C127.881 86.4244 116.775 78.7725 103.074 78.7725C89.3725 78.7725 78.2656 86.4244 78.2656 95.8636C78.2656 105.303 89.3725 112.955 103.074 112.955Z" fill="white"/>
<path d="M124.918 87.7563C120.747 82.3879 112.514 78.7725 103.074 78.7725C93.6334 78.7725 85.5105 82.3879 81.2295 87.7563H78.4853L78.3755 95.0967C78.3755 95.3158 78.3755 95.535 78.3755 95.8636C78.3755 105.286 89.4622 112.955 103.183 112.955C116.905 112.955 127.991 105.286 127.991 95.8636V87.7563H124.918Z" stroke="#222D4E" stroke-width="0.75" stroke-miterlimit="10" stroke-linejoin="round"/>
<path d="M103.074 112.955C116.775 112.955 127.881 105.303 127.881 95.8636C127.881 86.4244 116.775 78.7725 103.074 78.7725C89.3725 78.7725 78.2656 86.4244 78.2656 95.8636C78.2656 105.303 89.3725 112.955 103.074 112.955Z" stroke="#222D4E" stroke-width="0.75" stroke-miterlimit="10" stroke-linejoin="round"/>
<path d="M103.074 104.847C116.775 104.847 127.881 97.1954 127.881 87.7562C127.881 78.317 116.775 70.665 103.074 70.665C89.3725 70.665 78.2656 78.317 78.2656 87.7562C78.2656 97.1954 89.3725 104.847 103.074 104.847Z" fill="white"/>
<path d="M103.074 104.847C116.775 104.847 127.881 97.1954 127.881 87.7562C127.881 78.317 116.775 70.665 103.074 70.665C89.3725 70.665 78.2656 78.317 78.2656 87.7562C78.2656 97.1954 89.3725 104.847 103.074 104.847Z" stroke="#222D4E" stroke-width="0.75" stroke-miterlimit="10" stroke-linejoin="round"/>
<path d="M103.183 112.955C103.183 112.736 103.183 112.517 103.183 112.407V104.957" stroke="#222D4E" stroke-width="0.75" stroke-miterlimit="10" stroke-linejoin="round"/>
<path d="M108.672 112.407V104.519" stroke="#222D4E" stroke-width="0.75" stroke-miterlimit="10" stroke-linejoin="round"/>
<path d="M113.721 111.312V103.423" stroke="#222D4E" stroke-width="0.75" stroke-miterlimit="10" stroke-linejoin="round"/>
<path d="M118.441 109.449V101.451" stroke="#222D4E" stroke-width="0.75" stroke-miterlimit="10" stroke-linejoin="round"/>
<path d="M122.503 106.71V98.7119" stroke="#222D4E" stroke-width="0.75" stroke-miterlimit="10" stroke-linejoin="round"/>
<path d="M126.125 102.218V94.2202" stroke="#222D4E" stroke-width="0.75" stroke-miterlimit="10" stroke-linejoin="round"/>
<path d="M97.8047 112.407V104.519" stroke="#222D4E" stroke-width="0.75" stroke-miterlimit="10" stroke-linejoin="round"/>
<path d="M92.6455 111.312V103.423" stroke="#222D4E" stroke-width="0.75" stroke-miterlimit="10" stroke-linejoin="round"/>
<path d="M87.9253 109.449V101.451" stroke="#222D4E" stroke-width="0.75" stroke-miterlimit="10" stroke-linejoin="round"/>
<path d="M83.8638 106.71V98.7119" stroke="#222D4E" stroke-width="0.75" stroke-miterlimit="10" stroke-linejoin="round"/>
<path d="M80.2415 102.218V94.2202" stroke="#222D4E" stroke-width="0.75" stroke-miterlimit="10" stroke-linejoin="round"/>
<path d="M103.073 101.013C113.683 101.013 122.283 95.0776 122.283 87.7561C122.283 80.4347 113.683 74.4995 103.073 74.4995C92.4642 74.4995 83.8638 80.4347 83.8638 87.7561C83.8638 95.0776 92.4642 101.013 103.073 101.013Z" fill="white"/>
<path d="M103.073 101.013C113.683 101.013 122.283 95.0776 122.283 87.7561C122.283 80.4347 113.683 74.4995 103.073 74.4995C92.4642 74.4995 83.8638 80.4347 83.8638 87.7561C83.8638 95.0776 92.4642 101.013 103.073 101.013Z" stroke="#222D4E" stroke-width="0.75" stroke-miterlimit="10" stroke-linejoin="round"/>
<path d="M104.501 82.9357L99.5609 85.0173L98.6828 84.5791C97.6949 84.0313 97.0362 83.7026 96.7069 83.593C96.2679 83.4835 95.9386 83.4835 95.4995 83.7026C95.1702 83.8122 95.0604 84.0313 95.1702 84.1408C95.2799 84.36 95.6092 84.5791 96.0483 84.9077C96.9265 85.346 97.5851 85.6747 98.2437 85.6747C98.9023 85.7842 100.439 85.6747 102.854 85.6747C104.94 85.5651 106.476 85.5651 107.355 85.6747C108.233 85.6747 109.221 85.8938 110.318 86.2224C111.416 86.5511 112.624 86.9894 113.721 87.6467C115.587 88.7423 116.685 89.7283 116.905 90.6048C117.124 91.5908 116.465 92.4673 115.038 93.3438L117.014 94.4394L114.709 95.4254L112.624 94.3298C111.197 94.768 109.44 94.9872 107.464 94.8776C105.489 94.768 103.403 94.0011 100.988 92.796L100 92.2482L104.94 90.1666L106.257 90.9335C107.684 91.7004 108.672 92.1386 109.111 92.3577C109.55 92.4673 109.989 92.4673 110.428 92.3577C110.757 92.2482 110.867 92.0291 110.867 91.81C110.757 91.5908 110.538 91.3717 110.099 91.1526C108.891 90.4952 108.013 90.057 107.355 89.8379C106.696 89.6188 105.598 89.5092 104.061 89.6188C101.537 89.7283 99.7805 89.7283 98.6828 89.6188C97.6949 89.6188 96.4874 89.3997 95.2799 89.071C94.0725 88.7423 92.865 88.3041 91.7673 87.6467C90.2305 86.7702 89.3524 85.8938 89.3524 85.0173C89.2426 84.1408 90.011 83.3739 91.438 82.4975L89.7915 81.5114L92.0966 80.5254L93.7432 81.5114C95.4995 80.9636 97.146 80.8541 98.9023 80.9636C100.549 81.1827 102.195 81.621 103.732 82.4975C103.732 82.4975 104.061 82.7166 104.501 82.9357Z" fill="white"/>
<path d="M104.501 82.9357L99.5609 85.0173L98.6828 84.5791C97.6949 84.0313 97.0362 83.7026 96.7069 83.593C96.2679 83.4835 95.9386 83.4835 95.4995 83.7026C95.1702 83.8122 95.0604 84.0313 95.1702 84.1408C95.2799 84.36 95.6092 84.5791 96.0483 84.9077C96.9265 85.346 97.5851 85.6747 98.2437 85.6747C98.9023 85.7842 100.439 85.6747 102.854 85.6747C104.94 85.5651 106.476 85.5651 107.355 85.6747C108.233 85.6747 109.221 85.8938 110.318 86.2224C111.416 86.5511 112.624 86.9894 113.721 87.6467C115.587 88.7423 116.685 89.7283 116.905 90.6048C117.124 91.5908 116.465 92.4673 115.038 93.3438L117.014 94.4394L114.709 95.4254L112.624 94.3298C111.197 94.768 109.44 94.9872 107.464 94.8776C105.489 94.768 103.403 94.0011 100.988 92.796L100 92.2482L104.94 90.1666L106.257 90.9335C107.684 91.7004 108.672 92.1386 109.111 92.3577C109.55 92.4673 109.989 92.4673 110.428 92.3577C110.757 92.2482 110.867 92.0291 110.867 91.81C110.757 91.5908 110.538 91.3717 110.099 91.1526C108.891 90.4952 108.013 90.057 107.355 89.8379C106.696 89.6188 105.598 89.5092 104.061 89.6188C101.537 89.7283 99.7805 89.7283 98.6828 89.6188C97.6949 89.6188 96.4874 89.3997 95.2799 89.071C94.0725 88.7423 92.865 88.3041 91.7673 87.6467C90.2305 86.7702 89.3524 85.8938 89.3524 85.0173C89.2426 84.1408 90.011 83.3739 91.438 82.4975L89.7915 81.5114L92.0966 80.5254L93.7432 81.5114C95.4995 80.9636 97.146 80.8541 98.9023 80.9636C100.549 81.1827 102.195 81.621 103.732 82.4975C103.732 82.4975 104.061 82.7166 104.501 82.9357Z" stroke="#222D4E" stroke-width="0.75" stroke-miterlimit="10" stroke-linejoin="round"/>
<path d="M124.918 73.7329C120.747 68.3645 112.514 64.749 103.074 64.749C93.6334 64.749 85.5105 68.3645 81.2295 73.7329H78.4853L78.3755 81.0733C78.3755 81.2924 78.3755 81.5115 78.3755 81.8402C78.3755 91.2623 89.4622 98.9314 103.183 98.9314C116.905 98.9314 127.991 91.2623 127.991 81.8402V73.7329H124.918Z" fill="#00DEBF"/>
<path d="M103.074 98.9314C116.775 98.9314 127.881 91.2794 127.881 81.8402C127.881 72.401 116.775 64.749 103.074 64.749C89.3725 64.749 78.2656 72.401 78.2656 81.8402C78.2656 91.2794 89.3725 98.9314 103.074 98.9314Z" fill="white"/>
<path d="M124.918 73.7329C120.747 68.3645 112.514 64.749 103.074 64.749C93.6334 64.749 85.5105 68.3645 81.2295 73.7329H78.4853L78.3755 81.0733C78.3755 81.2924 78.3755 81.5115 78.3755 81.8402C78.3755 91.2623 89.4622 98.9314 103.183 98.9314C116.905 98.9314 127.991 91.2623 127.991 81.8402V73.7329H124.918Z" stroke="#222D4E" stroke-width="0.75" stroke-miterlimit="10" stroke-linejoin="round"/>
<path d="M103.074 98.9314C116.775 98.9314 127.881 91.2794 127.881 81.8402C127.881 72.401 116.775 64.749 103.074 64.749C89.3725 64.749 78.2656 72.401 78.2656 81.8402C78.2656 91.2794 89.3725 98.9314 103.074 98.9314Z" stroke="#222D4E" stroke-width="0.75" stroke-miterlimit="10" stroke-linejoin="round"/>
<path d="M103.074 90.824C116.775 90.824 127.881 83.172 127.881 73.7328C127.881 64.2936 116.775 56.6416 103.074 56.6416C89.3725 56.6416 78.2656 64.2936 78.2656 73.7328C78.2656 83.172 89.3725 90.824 103.074 90.824Z" fill="white"/>
<path d="M103.074 90.824C116.775 90.824 127.881 83.172 127.881 73.7328C127.881 64.2936 116.775 56.6416 103.074 56.6416C89.3725 56.6416 78.2656 64.2936 78.2656 73.7328C78.2656 83.172 89.3725 90.824 103.074 90.824Z" stroke="#222D4E" stroke-width="0.75" stroke-miterlimit="10" stroke-linejoin="round"/>
<path d="M103.183 98.9314C103.183 98.7123 103.183 98.4932 103.183 98.3836V90.9336" stroke="#222D4E" stroke-width="0.75" stroke-miterlimit="10" stroke-linejoin="round"/>
<path d="M108.672 98.3834V90.4951" stroke="#222D4E" stroke-width="0.75" stroke-miterlimit="10" stroke-linejoin="round"/>
<path d="M113.721 97.2881V89.3999" stroke="#222D4E" stroke-width="0.75" stroke-miterlimit="10" stroke-linejoin="round"/>
<path d="M118.441 95.316V87.4277" stroke="#222D4E" stroke-width="0.75" stroke-miterlimit="10" stroke-linejoin="round"/>
<path d="M122.503 92.6863V84.6885" stroke="#222D4E" stroke-width="0.75" stroke-miterlimit="10" stroke-linejoin="round"/>
<path d="M126.125 88.1946V80.1968" stroke="#222D4E" stroke-width="0.75" stroke-miterlimit="10" stroke-linejoin="round"/>
<path d="M97.8047 98.3834V90.4951" stroke="#222D4E" stroke-width="0.75" stroke-miterlimit="10" stroke-linejoin="round"/>
<path d="M92.6455 97.2881V89.3999" stroke="#222D4E" stroke-width="0.75" stroke-miterlimit="10" stroke-linejoin="round"/>
<path d="M87.9253 95.316V87.4277" stroke="#222D4E" stroke-width="0.75" stroke-miterlimit="10" stroke-linejoin="round"/>
<path d="M83.8638 92.6863V84.6885" stroke="#222D4E" stroke-width="0.75" stroke-miterlimit="10" stroke-linejoin="round"/>
<path d="M80.2415 88.1946V80.1968" stroke="#222D4E" stroke-width="0.75" stroke-miterlimit="10" stroke-linejoin="round"/>
<path d="M103.073 86.9893C113.683 86.9893 122.283 81.0541 122.283 73.7327C122.283 66.4113 113.683 60.4761 103.073 60.4761C92.4642 60.4761 83.8638 66.4113 83.8638 73.7327C83.8638 81.0541 92.4642 86.9893 103.073 86.9893Z" fill="white"/>
<path d="M103.073 86.9893C113.683 86.9893 122.283 81.0541 122.283 73.7327C122.283 66.4113 113.683 60.4761 103.073 60.4761C92.4642 60.4761 83.8638 66.4113 83.8638 73.7327C83.8638 81.0541 92.4642 86.9893 103.073 86.9893Z" stroke="#222D4E" stroke-width="0.75" stroke-miterlimit="10" stroke-linejoin="round"/>
<path d="M104.501 68.9122L99.5609 70.9939L98.6828 70.5556C97.6949 70.0078 97.0362 69.6792 96.7069 69.5696C96.2679 69.46 95.9386 69.46 95.4995 69.6792C95.1702 69.7887 95.0604 70.0078 95.1702 70.1174C95.2799 70.3365 95.6092 70.5556 96.0483 70.8843C96.9265 71.3225 97.5851 71.6512 98.2437 71.6512C98.9023 71.7608 100.439 71.6512 102.854 71.6512C104.94 71.5417 106.476 71.5417 107.355 71.6512C108.233 71.6512 109.221 71.8703 110.318 72.199C111.416 72.5277 112.624 72.9659 113.721 73.6233C115.587 74.7189 116.685 75.7049 116.905 76.5814C117.124 77.5674 116.465 78.4439 115.038 79.3203L117.014 80.4159L114.709 81.402L112.624 80.3064C111.197 80.7446 109.44 80.9637 107.464 80.8542C105.489 80.7446 103.403 79.9777 100.988 78.7725L100 78.2247L104.94 76.1431L106.257 76.91C107.684 77.6769 108.672 78.1152 109.111 78.3343C109.55 78.4439 109.989 78.4439 110.428 78.3343C110.757 78.2247 110.867 78.0056 110.867 77.7865C110.757 77.5674 110.538 77.3483 110.099 77.1292C108.891 76.4718 108.013 76.0336 107.355 75.8144C106.696 75.5953 105.598 75.4858 104.061 75.5953C101.537 75.7049 99.7805 75.7049 98.6828 75.5953C97.6949 75.5953 96.4874 75.3762 95.2799 75.0475C93.9627 74.7189 92.865 74.2806 91.7673 73.6233C90.2305 72.7468 89.3524 71.8703 89.3524 70.9939C89.2426 70.1174 90.011 69.3505 91.438 68.474L89.7915 67.488L92.0966 66.502L93.7432 67.488C95.4995 66.9402 97.146 66.8306 98.9023 66.9402C100.549 67.1593 102.195 67.5975 103.732 68.474C103.732 68.474 104.061 68.5836 104.501 68.9122Z" fill="white"/>
<path d="M104.501 68.9122L99.5609 70.9939L98.6828 70.5556C97.6949 70.0078 97.0362 69.6792 96.7069 69.5696C96.2679 69.46 95.9386 69.46 95.4995 69.6792C95.1702 69.7887 95.0604 70.0078 95.1702 70.1174C95.2799 70.3365 95.6092 70.5556 96.0483 70.8843C96.9265 71.3225 97.5851 71.6512 98.2437 71.6512C98.9023 71.7608 100.439 71.6512 102.854 71.6512C104.94 71.5417 106.476 71.5417 107.355 71.6512C108.233 71.6512 109.221 71.8703 110.318 72.199C111.416 72.5277 112.624 72.9659 113.721 73.6233C115.587 74.7189 116.685 75.7049 116.905 76.5814C117.124 77.5674 116.465 78.4439 115.038 79.3203L117.014 80.4159L114.709 81.402L112.624 80.3064C111.197 80.7446 109.44 80.9637 107.464 80.8542C105.489 80.7446 103.403 79.9777 100.988 78.7725L100 78.2247L104.94 76.1431L106.257 76.91C107.684 77.6769 108.672 78.1152 109.111 78.3343C109.55 78.4439 109.989 78.4439 110.428 78.3343C110.757 78.2247 110.867 78.0056 110.867 77.7865C110.757 77.5674 110.538 77.3483 110.099 77.1292C108.891 76.4718 108.013 76.0336 107.355 75.8144C106.696 75.5953 105.598 75.4858 104.061 75.5953C101.537 75.7049 99.7805 75.7049 98.6828 75.5953C97.6949 75.5953 96.4874 75.3762 95.2799 75.0475C93.9627 74.7189 92.865 74.2806 91.7673 73.6233C90.2305 72.7468 89.3524 71.8703 89.3524 70.9939C89.2426 70.1174 90.011 69.3505 91.438 68.474L89.7915 67.488L92.0966 66.502L93.7432 67.488C95.4995 66.9402 97.146 66.8306 98.9023 66.9402C100.549 67.1593 102.195 67.5975 103.732 68.474C103.732 68.474 104.061 68.5836 104.501 68.9122Z" stroke="#222D4E" stroke-width="0.75" stroke-miterlimit="10" stroke-linejoin="round"/>
<path d="M124.918 57.9565C120.747 52.5881 112.514 48.9727 103.074 48.9727C93.6334 48.9727 85.5105 52.5881 81.2295 57.9565H78.4853L78.3755 65.2969C78.3755 65.516 78.3755 65.7352 78.3755 66.0638C78.3755 75.4859 89.4622 83.155 103.183 83.155C116.905 83.155 127.991 75.4859 127.991 66.0638V57.9565H124.918V57.9565Z" fill="#00DEBF"/>
<path d="M103.074 83.155C116.775 83.155 127.881 75.503 127.881 66.0638C127.881 56.6246 116.775 48.9727 103.074 48.9727C89.3725 48.9727 78.2656 56.6246 78.2656 66.0638C78.2656 75.503 89.3725 83.155 103.074 83.155Z" fill="white"/>
<path d="M124.918 57.9565C120.747 52.5881 112.514 48.9727 103.074 48.9727C93.6334 48.9727 85.5105 52.5881 81.2295 57.9565H78.4853L78.3755 65.2969C78.3755 65.516 78.3755 65.7352 78.3755 66.0638C78.3755 75.4859 89.4622 83.155 103.183 83.155C116.905 83.155 127.991 75.4859 127.991 66.0638V57.9565H124.918V57.9565Z" stroke="#222D4E" stroke-width="0.75" stroke-miterlimit="10" stroke-linejoin="round"/>
<path d="M103.074 83.155C116.775 83.155 127.881 75.503 127.881 66.0638C127.881 56.6246 116.775 48.9727 103.074 48.9727C89.3725 48.9727 78.2656 56.6246 78.2656 66.0638C78.2656 75.503 89.3725 83.155 103.074 83.155Z" stroke="#222D4E" stroke-width="0.75" stroke-miterlimit="10" stroke-linejoin="round"/>
<path d="M103.074 75.0476C116.775 75.0476 127.881 67.3956 127.881 57.9564C127.881 48.5172 116.775 40.8652 103.074 40.8652C89.3725 40.8652 78.2656 48.5172 78.2656 57.9564C78.2656 67.3956 89.3725 75.0476 103.074 75.0476Z" fill="white"/>
<path d="M103.074 75.0476C116.775 75.0476 127.881 67.3956 127.881 57.9564C127.881 48.5172 116.775 40.8652 103.074 40.8652C89.3725 40.8652 78.2656 48.5172 78.2656 57.9564C78.2656 67.3956 89.3725 75.0476 103.074 75.0476Z" stroke="#222D4E" stroke-width="0.75" stroke-miterlimit="10" stroke-linejoin="round"/>
<path d="M103.183 83.155C103.183 82.9359 103.183 82.7168 103.183 82.6072V75.1572" stroke="#222D4E" stroke-width="0.75" stroke-miterlimit="10" stroke-linejoin="round"/>
<path d="M108.672 82.6072V74.6094" stroke="#222D4E" stroke-width="0.75" stroke-miterlimit="10" stroke-linejoin="round"/>
<path d="M113.721 81.4019V73.5137" stroke="#222D4E" stroke-width="0.75" stroke-miterlimit="10" stroke-linejoin="round"/>
<path d="M118.441 79.5393V71.5415" stroke="#222D4E" stroke-width="0.75" stroke-miterlimit="10" stroke-linejoin="round"/>
<path d="M122.503 76.8005V68.8027" stroke="#222D4E" stroke-width="0.75" stroke-miterlimit="10" stroke-linejoin="round"/>
<path d="M126.125 72.3086V64.4204" stroke="#222D4E" stroke-width="0.75" stroke-miterlimit="10" stroke-linejoin="round"/>
<path d="M97.8047 82.6072V74.6094" stroke="#222D4E" stroke-width="0.75" stroke-miterlimit="10" stroke-linejoin="round"/>
<path d="M92.6455 81.4019V73.5137" stroke="#222D4E" stroke-width="0.75" stroke-miterlimit="10" stroke-linejoin="round"/>
<path d="M87.9253 79.5393V71.5415" stroke="#222D4E" stroke-width="0.75" stroke-miterlimit="10" stroke-linejoin="round"/>
<path d="M83.8638 76.8005V68.8027" stroke="#222D4E" stroke-width="0.75" stroke-miterlimit="10" stroke-linejoin="round"/>
<path d="M80.2415 72.3086V64.4204" stroke="#222D4E" stroke-width="0.75" stroke-miterlimit="10" stroke-linejoin="round"/>
<path d="M103.073 71.2129C113.683 71.2129 122.283 65.2778 122.283 57.9563C122.283 50.6349 113.683 44.6997 103.073 44.6997C92.4642 44.6997 83.8638 50.6349 83.8638 57.9563C83.8638 65.2778 92.4642 71.2129 103.073 71.2129Z" fill="white"/>
<path d="M103.073 71.2129C113.683 71.2129 122.283 65.2778 122.283 57.9563C122.283 50.6349 113.683 44.6997 103.073 44.6997C92.4642 44.6997 83.8638 50.6349 83.8638 57.9563C83.8638 65.2778 92.4642 71.2129 103.073 71.2129Z" stroke="#222D4E" stroke-width="0.75" stroke-miterlimit="10" stroke-linejoin="round"/>
<path d="M104.5 53.0265L99.5608 55.1081L98.6827 54.6699C97.6948 54.1221 97.0362 53.7934 96.5971 53.6839C96.158 53.5743 95.8287 53.5743 95.3896 53.7934C95.0603 53.903 94.9505 54.1221 95.0603 54.2317C95.1701 54.4508 95.4994 54.6699 95.9385 54.9986C96.8166 55.4368 97.4752 55.7655 98.1338 55.7655C98.7925 55.875 100.329 55.7655 102.744 55.7655C104.83 55.6559 106.367 55.6559 107.245 55.7655C108.123 55.7655 109.111 55.9846 110.208 56.3133C111.306 56.6419 112.514 57.0802 113.611 57.7375C115.477 58.8331 116.575 59.8192 116.795 60.6956C117.014 61.6817 116.356 62.5581 114.929 63.4346L116.904 64.5302L114.599 65.5162L112.514 64.4206C111.087 64.8589 109.33 65.078 107.354 64.9684C105.379 64.8589 103.293 64.0919 100.878 62.8868L99.8902 62.339L104.83 60.2574L106.147 61.0243C107.574 61.7912 108.562 62.2294 109.001 62.4486C109.44 62.5581 109.879 62.5581 110.318 62.4486C110.648 62.339 110.757 62.1199 110.757 61.9008C110.648 61.6817 110.428 61.4625 109.989 61.2434C108.781 60.5861 107.903 60.1478 107.245 59.9287C106.586 59.7096 105.488 59.6 103.952 59.7096C101.427 59.8192 99.6706 59.8192 98.5729 59.7096C97.585 59.7096 96.3775 59.4905 95.1701 59.1618C93.9626 58.8331 92.7551 58.3949 91.6574 57.7375C90.1207 56.8611 89.2425 55.9846 89.2425 55.1081C89.1328 54.2317 89.9011 53.4647 91.3281 52.5883L89.6816 51.6022L91.9868 50.6162L93.6333 51.6022C95.3896 51.0544 97.0362 50.9449 98.7925 51.0544C100.439 51.2736 102.086 51.7118 103.622 52.5883C103.732 52.5883 104.061 52.8074 104.5 53.0265Z" fill="white"/>
<path d="M104.5 53.0265L99.5608 55.1081L98.6827 54.6699C97.6948 54.1221 97.0362 53.7934 96.5971 53.6839C96.158 53.5743 95.8287 53.5743 95.3896 53.7934C95.0603 53.903 94.9505 54.1221 95.0603 54.2317C95.1701 54.4508 95.4994 54.6699 95.9385 54.9986C96.8166 55.4368 97.4752 55.7655 98.1338 55.7655C98.7925 55.875 100.329 55.7655 102.744 55.7655C104.83 55.6559 106.367 55.6559 107.245 55.7655C108.123 55.7655 109.111 55.9846 110.208 56.3133C111.306 56.6419 112.514 57.0802 113.611 57.7375C115.477 58.8331 116.575 59.8192 116.795 60.6956C117.014 61.6817 116.356 62.5581 114.929 63.4346L116.904 64.5302L114.599 65.5162L112.514 64.4206C111.087 64.8589 109.33 65.078 107.354 64.9684C105.379 64.8589 103.293 64.0919 100.878 62.8868L99.8902 62.339L104.83 60.2574L106.147 61.0243C107.574 61.7912 108.562 62.2294 109.001 62.4486C109.44 62.5581 109.879 62.5581 110.318 62.4486C110.648 62.339 110.757 62.1199 110.757 61.9008C110.648 61.6817 110.428 61.4625 109.989 61.2434C108.781 60.5861 107.903 60.1478 107.245 59.9287C106.586 59.7096 105.488 59.6 103.952 59.7096C101.427 59.8192 99.6706 59.8192 98.5729 59.7096C97.585 59.7096 96.3775 59.4905 95.1701 59.1618C93.9626 58.8331 92.7551 58.3949 91.6574 57.7375C90.1207 56.8611 89.2425 55.9846 89.2425 55.1081C89.1328 54.2317 89.9011 53.4647 91.3281 52.5883L89.6816 51.6022L91.9868 50.6162L93.6333 51.6022C95.3896 51.0544 97.0362 50.9449 98.7925 51.0544C100.439 51.2736 102.086 51.7118 103.622 52.5883C103.732 52.5883 104.061 52.8074 104.5 53.0265Z" stroke="#222D4E" stroke-width="0.75" stroke-miterlimit="10" stroke-linejoin="round"/>
<path d="M164.544 111.202C160.373 105.834 152.141 102.218 142.7 102.218C133.26 102.218 125.027 105.834 120.856 111.202H118.112L118.002 118.543C118.002 118.762 118.002 118.981 118.002 119.309C118.002 128.731 129.089 136.401 142.81 136.401C156.531 136.401 167.618 128.731 167.618 119.309V111.202H164.544Z" fill="#00DEBF"/>
<path d="M142.7 136.401C156.401 136.401 167.508 128.749 167.508 119.309C167.508 109.87 156.401 102.218 142.7 102.218C128.999 102.218 117.892 109.87 117.892 119.309C117.892 128.749 128.999 136.401 142.7 136.401Z" fill="white"/>
<path d="M164.544 111.202C160.373 105.834 152.141 102.218 142.7 102.218C133.26 102.218 125.027 105.834 120.856 111.202H118.112L118.002 118.543C118.002 118.762 118.002 118.981 118.002 119.309C118.002 128.731 129.089 136.401 142.81 136.401C156.531 136.401 167.618 128.731 167.618 119.309V111.202H164.544Z" stroke="#222D4E" stroke-width="0.75" stroke-miterlimit="10" stroke-linejoin="round"/>
<path d="M142.7 136.401C156.401 136.401 167.508 128.749 167.508 119.309C167.508 109.87 156.401 102.218 142.7 102.218C128.999 102.218 117.892 109.87 117.892 119.309C117.892 128.749 128.999 136.401 142.7 136.401Z" stroke="#222D4E" stroke-width="0.75" stroke-miterlimit="10" stroke-linejoin="round"/>
<path d="M142.7 128.293C156.401 128.293 167.508 120.641 167.508 111.202C167.508 101.763 156.401 94.1108 142.7 94.1108C128.999 94.1108 117.892 101.763 117.892 111.202C117.892 120.641 128.999 128.293 142.7 128.293Z" fill="white"/>
<path d="M142.7 128.293C156.401 128.293 167.508 120.641 167.508 111.202C167.508 101.763 156.401 94.1108 142.7 94.1108C128.999 94.1108 117.892 101.763 117.892 111.202C117.892 120.641 128.999 128.293 142.7 128.293Z" stroke="#222D4E" stroke-width="0.75" stroke-miterlimit="10" stroke-linejoin="round"/>
<path d="M142.81 136.401C142.81 136.182 142.81 135.962 142.81 135.853V128.403" stroke="#222D4E" stroke-width="0.75" stroke-miterlimit="10" stroke-linejoin="round"/>
<path d="M148.188 135.853V127.855" stroke="#222D4E" stroke-width="0.75" stroke-miterlimit="10" stroke-linejoin="round"/>
<path d="M153.348 134.648V126.759" stroke="#222D4E" stroke-width="0.75" stroke-miterlimit="10" stroke-linejoin="round"/>
<path d="M158.068 132.785V124.787" stroke="#222D4E" stroke-width="0.75" stroke-miterlimit="10" stroke-linejoin="round"/>
<path d="M162.02 130.046V122.048" stroke="#222D4E" stroke-width="0.75" stroke-miterlimit="10" stroke-linejoin="round"/>
<path d="M165.752 125.554V117.666" stroke="#222D4E" stroke-width="0.75" stroke-miterlimit="10" stroke-linejoin="round"/>
<path d="M137.322 135.853V127.855" stroke="#222D4E" stroke-width="0.75" stroke-miterlimit="10" stroke-linejoin="round"/>
<path d="M132.162 134.648V126.759" stroke="#222D4E" stroke-width="0.75" stroke-miterlimit="10" stroke-linejoin="round"/>
<path d="M127.442 132.785V124.787" stroke="#222D4E" stroke-width="0.75" stroke-miterlimit="10" stroke-linejoin="round"/>
<path d="M123.49 130.046V122.048" stroke="#222D4E" stroke-width="0.75" stroke-miterlimit="10" stroke-linejoin="round"/>
<path d="M119.758 125.554V117.666" stroke="#222D4E" stroke-width="0.75" stroke-miterlimit="10" stroke-linejoin="round"/>
<path d="M142.7 124.459C153.309 124.459 161.91 118.523 161.91 111.202C161.91 103.881 153.309 97.9453 142.7 97.9453C132.091 97.9453 123.49 103.881 123.49 111.202C123.49 118.523 132.091 124.459 142.7 124.459Z" fill="white"/>
<path d="M142.7 124.459C153.309 124.459 161.91 118.523 161.91 111.202C161.91 103.881 153.309 97.9453 142.7 97.9453C132.091 97.9453 123.49 103.881 123.49 111.202C123.49 118.523 132.091 124.459 142.7 124.459Z" stroke="#222D4E" stroke-width="0.75" stroke-miterlimit="10" stroke-linejoin="round"/>
<path d="M144.017 106.272L139.078 108.354L138.2 107.915C137.212 107.368 136.553 107.039 136.224 106.929C135.785 106.82 135.455 106.82 135.016 107.039C134.687 107.149 134.577 107.368 134.687 107.477C134.797 107.696 135.126 107.915 135.565 108.244C136.443 108.682 137.102 109.011 137.761 109.011C138.419 109.121 139.956 109.011 142.371 109.011C144.456 108.902 145.993 108.902 146.871 109.011C147.75 109.011 148.738 109.23 149.835 109.559C150.933 109.888 152.14 110.326 153.238 110.983C155.104 112.079 156.202 113.065 156.421 113.941C156.641 114.927 155.982 115.804 154.555 116.68L156.531 117.776L154.226 118.762L152.14 117.666C150.713 118.104 148.957 118.324 146.981 118.214C145.005 118.104 142.92 117.338 140.505 116.132L139.517 115.585L144.457 113.503L145.774 114.27C147.201 115.037 148.189 115.475 148.628 115.694C149.067 115.804 149.506 115.804 149.945 115.694C150.274 115.585 150.384 115.365 150.384 115.146C150.274 114.927 150.055 114.708 149.616 114.489C148.408 113.832 147.53 113.393 146.871 113.174C146.213 112.955 145.115 112.846 143.578 112.955C141.054 113.065 139.297 113.065 138.2 112.955C137.212 112.955 136.004 112.736 134.797 112.407C133.48 112.079 132.382 111.64 131.284 110.983C129.747 110.107 128.869 109.23 128.869 108.354C128.759 107.477 129.528 106.71 130.955 105.834L129.308 104.848L131.613 103.862L133.26 104.848C135.016 104.3 136.663 104.19 138.419 104.3C140.066 104.519 141.712 104.957 143.249 105.834C143.359 105.834 143.578 106.053 144.017 106.272Z" fill="white"/>
<path d="M144.017 106.272L139.078 108.354L138.2 107.915C137.212 107.368 136.553 107.039 136.224 106.929C135.785 106.82 135.455 106.82 135.016 107.039C134.687 107.149 134.577 107.368 134.687 107.477C134.797 107.696 135.126 107.915 135.565 108.244C136.443 108.682 137.102 109.011 137.761 109.011C138.419 109.121 139.956 109.011 142.371 109.011C144.456 108.902 145.993 108.902 146.871 109.011C147.75 109.011 148.738 109.23 149.835 109.559C150.933 109.888 152.14 110.326 153.238 110.983C155.104 112.079 156.202 113.065 156.421 113.941C156.641 114.927 155.982 115.804 154.555 116.68L156.531 117.776L154.226 118.762L152.14 117.666C150.713 118.104 148.957 118.324 146.981 118.214C145.005 118.104 142.92 117.338 140.505 116.132L139.517 115.585L144.457 113.503L145.774 114.27C147.201 115.037 148.189 115.475 148.628 115.694C149.067 115.804 149.506 115.804 149.945 115.694C150.274 115.585 150.384 115.365 150.384 115.146C150.274 114.927 150.055 114.708 149.616 114.489C148.408 113.832 147.53 113.393 146.871 113.174C146.213 112.955 145.115 112.846 143.578 112.955C141.054 113.065 139.297 113.065 138.2 112.955C137.212 112.955 136.004 112.736 134.797 112.407C133.48 112.079 132.382 111.64 131.284 110.983C129.747 110.107 128.869 109.23 128.869 108.354C128.759 107.477 129.528 106.71 130.955 105.834L129.308 104.848L131.613 103.862L133.26 104.848C135.016 104.3 136.663 104.19 138.419 104.3C140.066 104.519 141.712 104.957 143.249 105.834C143.359 105.834 143.578 106.053 144.017 106.272Z" stroke="#222D4E" stroke-width="0.75" stroke-miterlimit="10" stroke-linejoin="round"/>
<path d="M164.544 97.0688C160.373 91.7004 152.141 88.085 142.7 88.085C133.26 88.085 125.027 91.7004 120.856 97.0688H118.112L118.002 104.409C118.002 104.628 118.002 104.847 118.002 105.176C118.002 114.598 129.089 122.267 142.81 122.267C156.531 122.267 167.618 114.598 167.618 105.176V97.0688H164.544Z" fill="#00DEBF"/>
<path d="M142.7 122.267C156.401 122.267 167.508 114.615 167.508 105.176C167.508 95.7369 156.401 88.085 142.7 88.085C128.999 88.085 117.892 95.7369 117.892 105.176C117.892 114.615 128.999 122.267 142.7 122.267Z" fill="white"/>
<path d="M164.544 97.0688C160.373 91.7004 152.141 88.085 142.7 88.085C133.26 88.085 125.027 91.7004 120.856 97.0688H118.112L118.002 104.409C118.002 104.628 118.002 104.847 118.002 105.176C118.002 114.598 129.089 122.267 142.81 122.267C156.531 122.267 167.618 114.598 167.618 105.176V97.0688H164.544Z" stroke="#222D4E" stroke-width="0.75" stroke-miterlimit="10" stroke-linejoin="round"/>
<path d="M142.7 122.267C156.401 122.267 167.508 114.615 167.508 105.176C167.508 95.7369 156.401 88.085 142.7 88.085C128.999 88.085 117.892 95.7369 117.892 105.176C117.892 114.615 128.999 122.267 142.7 122.267Z" stroke="#222D4E" stroke-width="0.75" stroke-miterlimit="10" stroke-linejoin="round"/>
<path d="M142.7 114.16C156.401 114.16 167.508 106.508 167.508 97.0687C167.508 87.6295 156.401 79.9775 142.7 79.9775C128.999 79.9775 117.892 87.6295 117.892 97.0687C117.892 106.508 128.999 114.16 142.7 114.16Z" fill="white"/>
<path d="M142.7 114.16C156.401 114.16 167.508 106.508 167.508 97.0687C167.508 87.6295 156.401 79.9775 142.7 79.9775C128.999 79.9775 117.892 87.6295 117.892 97.0687C117.892 106.508 128.999 114.16 142.7 114.16Z" stroke="#222D4E" stroke-width="0.75" stroke-miterlimit="10" stroke-linejoin="round"/>
<path d="M142.81 122.267C142.81 122.048 142.81 121.829 142.81 121.72V114.27" stroke="#222D4E" stroke-width="0.75" stroke-miterlimit="10" stroke-linejoin="round"/>
<path d="M148.188 121.719V113.831" stroke="#222D4E" stroke-width="0.75" stroke-miterlimit="10" stroke-linejoin="round"/>
<path d="M153.348 120.624V112.735" stroke="#222D4E" stroke-width="0.75" stroke-miterlimit="10" stroke-linejoin="round"/>
<path d="M158.068 118.761V110.763" stroke="#222D4E" stroke-width="0.75" stroke-miterlimit="10" stroke-linejoin="round"/>
<path d="M162.02 116.022V108.024" stroke="#222D4E" stroke-width="0.75" stroke-miterlimit="10" stroke-linejoin="round"/>
<path d="M165.752 111.53V103.642" stroke="#222D4E" stroke-width="0.75" stroke-miterlimit="10" stroke-linejoin="round"/>
<path d="M137.322 121.719V113.831" stroke="#222D4E" stroke-width="0.75" stroke-miterlimit="10" stroke-linejoin="round"/>
<path d="M132.162 120.624V112.735" stroke="#222D4E" stroke-width="0.75" stroke-miterlimit="10" stroke-linejoin="round"/>
<path d="M127.442 118.761V110.763" stroke="#222D4E" stroke-width="0.75" stroke-miterlimit="10" stroke-linejoin="round"/>
<path d="M123.49 116.022V108.024" stroke="#222D4E" stroke-width="0.75" stroke-miterlimit="10" stroke-linejoin="round"/>
<path d="M119.758 111.53V103.642" stroke="#222D4E" stroke-width="0.75" stroke-miterlimit="10" stroke-linejoin="round"/>
<path d="M142.7 110.325C153.309 110.325 161.91 104.39 161.91 97.0686C161.91 89.7472 153.309 83.812 142.7 83.812C132.091 83.812 123.49 89.7472 123.49 97.0686C123.49 104.39 132.091 110.325 142.7 110.325Z" fill="white"/>
<path d="M142.7 110.325C153.309 110.325 161.91 104.39 161.91 97.0686C161.91 89.7472 153.309 83.812 142.7 83.812C132.091 83.812 123.49 89.7472 123.49 97.0686C123.49 104.39 132.091 110.325 142.7 110.325Z" stroke="#222D4E" stroke-width="0.75" stroke-miterlimit="10" stroke-linejoin="round"/>
<path d="M144.017 92.2482L139.078 94.3298L138.2 93.8916C137.212 93.3438 136.553 93.0151 136.224 92.9055C135.785 92.796 135.455 92.796 135.016 93.0151C134.687 93.1247 134.577 93.3438 134.687 93.4533C134.797 93.6725 135.126 93.8916 135.565 94.2202C136.443 94.6585 137.102 94.9872 137.761 94.9872C138.419 95.0967 139.956 94.9872 142.371 94.9872C144.456 94.8776 145.993 94.8776 146.871 94.9872C147.75 94.9872 148.738 95.2063 149.835 95.5349C150.933 95.8636 152.14 96.3019 153.238 96.9592C155.104 98.0548 156.202 99.0408 156.421 99.9173C156.641 100.903 155.982 101.78 154.555 102.656L156.531 103.752L154.226 104.738L152.14 103.642C150.713 104.081 148.957 104.3 146.981 104.19C145.005 104.081 142.92 103.314 140.505 102.108L139.517 101.561L144.457 99.4791L145.774 100.246C147.201 101.013 148.189 101.451 148.628 101.67C149.067 101.78 149.506 101.78 149.945 101.67C150.274 101.561 150.384 101.342 150.384 101.122C150.274 100.903 150.055 100.684 149.616 100.465C148.408 99.8077 147.53 99.3695 146.871 99.1504C146.213 98.9313 145.115 98.8217 143.578 98.9313C141.054 99.0408 139.297 99.0408 138.2 98.9313C137.212 98.9313 136.004 98.7122 134.797 98.3835C133.48 98.0548 132.382 97.6166 131.284 96.9592C129.747 96.0827 128.869 95.2063 128.869 94.3298C128.759 93.4533 129.528 92.6864 130.955 91.81L129.308 90.8239L131.613 89.8379L133.26 90.8239C135.016 90.2761 136.663 90.1666 138.419 90.2761C140.066 90.4952 141.712 90.9335 143.249 91.81C143.359 91.81 143.578 92.0291 144.017 92.2482Z" fill="white"/>
<path d="M144.017 92.2482L139.078 94.3298L138.2 93.8916C137.212 93.3438 136.553 93.0151 136.224 92.9055C135.785 92.796 135.455 92.796 135.016 93.0151C134.687 93.1247 134.577 93.3438 134.687 93.4533C134.797 93.6725 135.126 93.8916 135.565 94.2202C136.443 94.6585 137.102 94.9872 137.761 94.9872C138.419 95.0967 139.956 94.9872 142.371 94.9872C144.456 94.8776 145.993 94.8776 146.871 94.9872C147.75 94.9872 148.738 95.2063 149.835 95.5349C150.933 95.8636 152.14 96.3019 153.238 96.9592C155.104 98.0548 156.202 99.0408 156.421 99.9173C156.641 100.903 155.982 101.78 154.555 102.656L156.531 103.752L154.226 104.738L152.14 103.642C150.713 104.081 148.957 104.3 146.981 104.19C145.005 104.081 142.92 103.314 140.505 102.108L139.517 101.561L144.457 99.4791L145.774 100.246C147.201 101.013 148.189 101.451 148.628 101.67C149.067 101.78 149.506 101.78 149.945 101.67C150.274 101.561 150.384 101.342 150.384 101.122C150.274 100.903 150.055 100.684 149.616 100.465C148.408 99.8077 147.53 99.3695 146.871 99.1504C146.213 98.9313 145.115 98.8217 143.578 98.9313C141.054 99.0408 139.297 99.0408 138.2 98.9313C137.212 98.9313 136.004 98.7122 134.797 98.3835C133.48 98.0548 132.382 97.6166 131.284 96.9592C129.747 96.0827 128.869 95.2063 128.869 94.3298C128.759 93.4533 129.528 92.6864 130.955 91.81L129.308 90.8239L131.613 89.8379L133.26 90.8239C135.016 90.2761 136.663 90.1666 138.419 90.2761C140.066 90.4952 141.712 90.9335 143.249 91.81C143.359 91.81 143.578 92.0291 144.017 92.2482Z" stroke="#222D4E" stroke-width="0.75" stroke-miterlimit="10" stroke-linejoin="round"/>
</g>
<defs>
<clipPath id="clip0_51_574">
<rect width="200" height="149" fill="white"/>
</clipPath>
</defs>
</svg>
