<svg width="382" height="24" viewBox="0 0 382 24" fill="none" xmlns="http://www.w3.org/2000/svg">
<path d="M330 1L330.272 0.301135C330.185 0.26734 330.093 0.25 330 0.25V1ZM373.5 19.5C373.5 21.7091 375.291 23.5 377.5 23.5C379.709 23.5 381.5 21.7091 381.5 19.5C381.5 17.2909 379.709 15.5 377.5 15.5C375.291 15.5 373.5 17.2909 373.5 19.5ZM4.06154 1.75C4.47575 1.75 4.81154 1.41421 4.81154 1C4.81154 0.585786 4.47575 0.25 4.06154 0.25V1.75ZM9.13846 0.25C8.72425 0.25 8.38846 0.585786 8.38846 1C8.38846 1.41421 8.72425 1.75 9.13846 1.75V0.25ZM17.2615 1.75C17.6758 1.75 18.0115 1.41421 18.0115 1C18.0115 0.585786 17.6758 0.25 17.2615 0.25V1.75ZM22.3385 0.25C21.9242 0.25 21.5885 0.585786 21.5885 1C21.5885 1.41421 21.9242 1.75 22.3385 1.75V0.25ZM30.4615 1.75C30.8758 1.75 31.2115 1.41421 31.2115 1C31.2115 0.585786 30.8758 0.25 30.4615 0.25V1.75ZM35.5385 0.25C35.1243 0.25 34.7885 0.585786 34.7885 1C34.7885 1.41421 35.1243 1.75 35.5385 1.75V0.25ZM43.6615 1.75C44.0758 1.75 44.4115 1.41421 44.4115 1C44.4115 0.585786 44.0758 0.25 43.6615 0.25V1.75ZM48.7385 0.25C48.3243 0.25 47.9885 0.585786 47.9885 1C47.9885 1.41421 48.3243 1.75 48.7385 1.75V0.25ZM56.8615 1.75C57.2758 1.75 57.6115 1.41421 57.6115 1C57.6115 0.585786 57.2758 0.25 56.8615 0.25V1.75ZM61.9385 0.25C61.5243 0.25 61.1885 0.585786 61.1885 1C61.1885 1.41421 61.5243 1.75 61.9385 1.75V0.25ZM70.0615 1.75C70.4758 1.75 70.8115 1.41421 70.8115 1C70.8115 0.585786 70.4758 0.25 70.0615 0.25V1.75ZM75.1385 0.25C74.7242 0.25 74.3885 0.585786 74.3885 1C74.3885 1.41421 74.7242 1.75 75.1385 1.75V0.25ZM83.2615 1.75C83.6758 1.75 84.0115 1.41421 84.0115 1C84.0115 0.585786 83.6758 0.25 83.2615 0.25V1.75ZM88.3385 0.25C87.9242 0.25 87.5885 0.585786 87.5885 1C87.5885 1.41421 87.9242 1.75 88.3385 1.75V0.25ZM96.4615 1.75C96.8757 1.75 97.2115 1.41421 97.2115 1C97.2115 0.585786 96.8757 0.25 96.4615 0.25V1.75ZM101.538 0.25C101.124 0.25 100.788 0.585786 100.788 1C100.788 1.41421 101.124 1.75 101.538 1.75V0.25ZM109.662 1.75C110.076 1.75 110.412 1.41421 110.412 1C110.412 0.585786 110.076 0.25 109.662 0.25V1.75ZM114.738 0.25C114.324 0.25 113.988 0.585786 113.988 1C113.988 1.41421 114.324 1.75 114.738 1.75V0.25ZM122.862 1.75C123.276 1.75 123.612 1.41421 123.612 1C123.612 0.585786 123.276 0.25 122.862 0.25V1.75ZM127.938 0.25C127.524 0.25 127.188 0.585786 127.188 1C127.188 1.41421 127.524 1.75 127.938 1.75V0.25ZM136.062 1.75C136.476 1.75 136.812 1.41421 136.812 1C136.812 0.585786 136.476 0.25 136.062 0.25V1.75ZM141.138 0.25C140.724 0.25 140.388 0.585786 140.388 1C140.388 1.41421 140.724 1.75 141.138 1.75V0.25ZM149.262 1.75C149.676 1.75 150.012 1.41421 150.012 1C150.012 0.585786 149.676 0.25 149.262 0.25V1.75ZM154.338 0.25C153.924 0.25 153.588 0.585786 153.588 1C153.588 1.41421 153.924 1.75 154.338 1.75V0.25ZM162.462 1.75C162.876 1.75 163.212 1.41421 163.212 1C163.212 0.585786 162.876 0.25 162.462 0.25V1.75ZM167.538 0.25C167.124 0.25 166.788 0.585786 166.788 1C166.788 1.41421 167.124 1.75 167.538 1.75V0.25ZM175.662 1.75C176.076 1.75 176.412 1.41421 176.412 1C176.412 0.585786 176.076 0.25 175.662 0.25V1.75ZM180.738 0.25C180.324 0.25 179.988 0.585786 179.988 1C179.988 1.41421 180.324 1.75 180.738 1.75V0.25ZM188.862 1.75C189.276 1.75 189.612 1.41421 189.612 1C189.612 0.585786 189.276 0.25 188.862 0.25V1.75ZM193.938 0.25C193.524 0.25 193.188 0.585786 193.188 1C193.188 1.41421 193.524 1.75 193.938 1.75V0.25ZM202.062 1.75C202.476 1.75 202.812 1.41421 202.812 1C202.812 0.585786 202.476 0.25 202.062 0.25V1.75ZM207.138 0.25C206.724 0.25 206.388 0.585786 206.388 1C206.388 1.41421 206.724 1.75 207.138 1.75V0.25ZM215.262 1.75C215.676 1.75 216.012 1.41421 216.012 1C216.012 0.585786 215.676 0.25 215.262 0.25V1.75ZM220.338 0.25C219.924 0.25 219.588 0.585786 219.588 1C219.588 1.41421 219.924 1.75 220.338 1.75V0.25ZM228.462 1.75C228.876 1.75 229.212 1.41421 229.212 1C229.212 0.585786 228.876 0.25 228.462 0.25V1.75ZM233.538 0.25C233.124 0.25 232.788 0.585786 232.788 1C232.788 1.41421 233.124 1.75 233.538 1.75V0.25ZM241.661 1.75C242.076 1.75 242.411 1.41421 242.411 1C242.411 0.585786 242.076 0.25 241.661 0.25V1.75ZM246.738 0.25C246.324 0.25 245.988 0.585786 245.988 1C245.988 1.41421 246.324 1.75 246.738 1.75V0.25ZM254.861 1.75C255.276 1.75 255.611 1.41421 255.611 1C255.611 0.585786 255.276 0.25 254.861 0.25V1.75ZM259.938 0.25C259.524 0.25 259.188 0.585786 259.188 1C259.188 1.41421 259.524 1.75 259.938 1.75V0.25ZM268.061 1.75C268.476 1.75 268.811 1.41421 268.811 1C268.811 0.585786 268.476 0.25 268.061 0.25V1.75ZM273.138 0.25C272.724 0.25 272.388 0.585786 272.388 1C272.388 1.41421 272.724 1.75 273.138 1.75V0.25ZM281.262 1.75C281.676 1.75 282.012 1.41421 282.012 1C282.012 0.585786 281.676 0.25 281.262 0.25V1.75ZM286.338 0.25C285.924 0.25 285.588 0.585786 285.588 1C285.588 1.41421 285.924 1.75 286.338 1.75V0.25ZM294.462 1.75C294.876 1.75 295.212 1.41421 295.212 1C295.212 0.585786 294.876 0.25 294.462 0.25V1.75ZM299.538 0.25C299.124 0.25 298.788 0.585786 298.788 1C298.788 1.41421 299.124 1.75 299.538 1.75V0.25ZM307.662 1.75C308.076 1.75 308.412 1.41421 308.412 1C308.412 0.585786 308.076 0.25 307.662 0.25V1.75ZM312.738 0.25C312.324 0.25 311.988 0.585786 311.988 1C311.988 1.41421 312.324 1.75 312.738 1.75V0.25ZM320.862 1.75C321.276 1.75 321.612 1.41421 321.612 1C321.612 0.585786 321.276 0.25 320.862 0.25V1.75ZM325.938 0.25C325.524 0.25 325.188 0.585786 325.188 1C325.188 1.41421 325.524 1.75 325.938 1.75V0.25ZM333.382 3.12194C333.768 3.27227 334.202 3.08124 334.353 2.69527C334.503 2.30929 334.312 1.87454 333.926 1.72421L333.382 3.12194ZM338.493 3.50306C338.107 3.35273 337.673 3.54376 337.522 3.92973C337.372 4.31571 337.563 4.75046 337.949 4.90079L338.493 3.50306ZM345.257 7.74694C345.643 7.89727 346.077 7.70624 346.228 7.32027C346.378 6.93429 346.187 6.49954 345.801 6.34921L345.257 7.74694ZM350.368 8.12806C349.982 7.97773 349.548 8.16876 349.397 8.55473C349.247 8.94071 349.438 9.37546 349.824 9.52579L350.368 8.12806ZM357.132 12.3719C357.518 12.5223 357.952 12.3312 358.103 11.9453C358.253 11.5593 358.062 11.1245 357.676 10.9742L357.132 12.3719ZM362.243 12.7531C361.857 12.6027 361.423 12.7938 361.272 13.1797C361.122 13.5657 361.313 14.0005 361.699 14.1508L362.243 12.7531ZM369.007 16.9969C369.393 17.1473 369.827 16.9562 369.978 16.5703C370.128 16.1843 369.937 15.7495 369.551 15.5992L369.007 16.9969ZM374.118 17.3781C373.732 17.2277 373.298 17.4188 373.147 17.8047C372.997 18.1907 373.188 18.6255 373.574 18.7758L374.118 17.3781ZM0 1.75H4.06154V0.25H0V1.75ZM9.13846 1.75H17.2615V0.25H9.13846V1.75ZM22.3385 1.75H30.4615V0.25H22.3385V1.75ZM35.5385 1.75H43.6615V0.25H35.5385V1.75ZM48.7385 1.75H56.8615V0.25H48.7385V1.75ZM61.9385 1.75H70.0615V0.25H61.9385V1.75ZM75.1385 1.75H83.2615V0.25H75.1385V1.75ZM88.3385 1.75H96.4615V0.25H88.3385V1.75ZM101.538 1.75H109.662V0.25H101.538V1.75ZM114.738 1.75H122.862V0.25H114.738V1.75ZM127.938 1.75H136.062V0.25H127.938V1.75ZM141.138 1.75H149.262V0.25H141.138V1.75ZM154.338 1.75H162.462V0.25H154.338V1.75ZM167.538 1.75H175.662V0.25H167.538V1.75ZM180.738 1.75H188.862V0.25H180.738V1.75ZM193.938 1.75H202.062V0.25H193.938V1.75ZM207.138 1.75H215.262V0.25H207.138V1.75ZM220.338 1.75H228.462V0.25H220.338V1.75ZM233.538 1.75H241.661V0.25H233.538V1.75ZM246.738 1.75H254.861V0.25H246.738V1.75ZM259.938 1.75H268.061V0.25H259.938V1.75ZM273.138 1.75H281.262V0.25H273.138V1.75ZM286.338 1.75H294.462V0.25H286.338V1.75ZM299.538 1.75H307.662V0.25H299.538V1.75ZM312.738 1.75H320.862V0.25H312.738V1.75ZM325.938 1.75H330V0.25H325.938V1.75ZM329.728 1.69887L333.382 3.12194L333.926 1.72421L330.272 0.301135L329.728 1.69887ZM337.949 4.90079L345.257 7.74694L345.801 6.34921L338.493 3.50306L337.949 4.90079ZM349.824 9.52579L357.132 12.3719L357.676 10.9742L350.368 8.12806L349.824 9.52579ZM361.699 14.1508L369.007 16.9969L369.551 15.5992L362.243 12.7531L361.699 14.1508ZM373.574 18.7758L377.228 20.1989L377.772 18.8011L374.118 17.3781L373.574 18.7758Z" fill="white" fill-opacity="0.27"/>
</svg>
