<svg width="353" height="47" viewBox="0 0 353 47" fill="none" xmlns="http://www.w3.org/2000/svg">
<path d="M233 46V46.75C233.086 46.75 233.172 46.7351 233.254 46.7058L233 46ZM344.5 4.5C344.5 6.70914 346.291 8.5 348.5 8.5C350.709 8.5 352.5 6.70914 352.5 4.5C352.5 2.29086 350.709 0.5 348.5 0.5C346.291 0.5 344.5 2.29086 344.5 4.5ZM3.98291 46.75C4.39712 46.75 4.73291 46.4142 4.73291 46C4.73291 45.5858 4.39712 45.25 3.98291 45.25V46.75ZM8.96154 45.25C8.54732 45.25 8.21154 45.5858 8.21154 46C8.21154 46.4142 8.54732 46.75 8.96154 46.75V45.25ZM16.9273 46.75C17.3416 46.75 17.6773 46.4142 17.6773 46C17.6773 45.5858 17.3416 45.25 16.9273 45.25V46.75ZM21.906 45.25C21.4918 45.25 21.156 45.5858 21.156 46C21.156 46.4142 21.4918 46.75 21.906 46.75V45.25ZM29.8718 46.75C30.286 46.75 30.6218 46.4142 30.6218 46C30.6218 45.5858 30.286 45.25 29.8718 45.25V46.75ZM34.8504 45.25C34.4362 45.25 34.1004 45.5858 34.1004 46C34.1004 46.4142 34.4362 46.75 34.8504 46.75V45.25ZM42.8162 46.75C43.2304 46.75 43.5662 46.4142 43.5662 46C43.5662 45.5858 43.2304 45.25 42.8162 45.25V46.75ZM47.7949 45.25C47.3807 45.25 47.0449 45.5858 47.0449 46C47.0449 46.4142 47.3807 46.75 47.7949 46.75V45.25ZM55.7607 46.75C56.1749 46.75 56.5107 46.4142 56.5107 46C56.5107 45.5858 56.1749 45.25 55.7607 45.25V46.75ZM60.7393 45.25C60.3251 45.25 59.9893 45.5858 59.9893 46C59.9893 46.4142 60.3251 46.75 60.7393 46.75V45.25ZM68.7051 46.75C69.1193 46.75 69.4551 46.4142 69.4551 46C69.4551 45.5858 69.1193 45.25 68.7051 45.25V46.75ZM73.6838 45.25C73.2695 45.25 72.9338 45.5858 72.9338 46C72.9338 46.4142 73.2695 46.75 73.6838 46.75V45.25ZM81.6496 46.75C82.0638 46.75 82.3996 46.4142 82.3996 46C82.3996 45.5858 82.0638 45.25 81.6496 45.25V46.75ZM86.6282 45.25C86.214 45.25 85.8782 45.5858 85.8782 46C85.8782 46.4142 86.214 46.75 86.6282 46.75V45.25ZM94.594 46.75C95.0082 46.75 95.344 46.4142 95.344 46C95.344 45.5858 95.0082 45.25 94.594 45.25V46.75ZM99.5726 45.25C99.1584 45.25 98.8226 45.5858 98.8226 46C98.8226 46.4142 99.1584 46.75 99.5726 46.75V45.25ZM107.538 46.75C107.953 46.75 108.288 46.4142 108.288 46C108.288 45.5858 107.953 45.25 107.538 45.25V46.75ZM112.517 45.25C112.103 45.25 111.767 45.5858 111.767 46C111.767 46.4142 112.103 46.75 112.517 46.75V45.25ZM120.483 46.75C120.897 46.75 121.233 46.4142 121.233 46C121.233 45.5858 120.897 45.25 120.483 45.25V46.75ZM125.462 45.25C125.047 45.25 124.712 45.5858 124.712 46C124.712 46.4142 125.047 46.75 125.462 46.75V45.25ZM133.427 46.75C133.842 46.75 134.177 46.4142 134.177 46C134.177 45.5858 133.842 45.25 133.427 45.25V46.75ZM138.406 45.25C137.992 45.25 137.656 45.5858 137.656 46C137.656 46.4142 137.992 46.75 138.406 46.75V45.25ZM146.372 46.75C146.786 46.75 147.122 46.4142 147.122 46C147.122 45.5858 146.786 45.25 146.372 45.25V46.75ZM151.35 45.25C150.936 45.25 150.6 45.5858 150.6 46C150.6 46.4142 150.936 46.75 151.35 46.75V45.25ZM159.316 46.75C159.73 46.75 160.066 46.4142 160.066 46C160.066 45.5858 159.73 45.25 159.316 45.25V46.75ZM164.295 45.25C163.881 45.25 163.545 45.5858 163.545 46C163.545 46.4142 163.881 46.75 164.295 46.75V45.25ZM172.261 46.75C172.675 46.75 173.011 46.4142 173.011 46C173.011 45.5858 172.675 45.25 172.261 45.25V46.75ZM177.239 45.25C176.825 45.25 176.489 45.5858 176.489 46C176.489 46.4142 176.825 46.75 177.239 46.75V45.25ZM185.205 46.75C185.619 46.75 185.955 46.4142 185.955 46C185.955 45.5858 185.619 45.25 185.205 45.25V46.75ZM190.184 45.25C189.77 45.25 189.434 45.5858 189.434 46C189.434 46.4142 189.77 46.75 190.184 46.75V45.25ZM198.15 46.75C198.564 46.75 198.9 46.4142 198.9 46C198.9 45.5858 198.564 45.25 198.15 45.25V46.75ZM203.128 45.25C202.714 45.25 202.378 45.5858 202.378 46C202.378 46.4142 202.714 46.75 203.128 46.75V45.25ZM211.094 46.75C211.508 46.75 211.844 46.4142 211.844 46C211.844 45.5858 211.508 45.25 211.094 45.25V46.75ZM216.073 45.25C215.658 45.25 215.323 45.5858 215.323 46C215.323 46.4142 215.658 46.75 216.073 46.75V45.25ZM224.038 46.75C224.453 46.75 224.788 46.4142 224.788 46C224.788 45.5858 224.453 45.25 224.038 45.25V46.75ZM229.017 45.25C228.603 45.25 228.267 45.5858 228.267 46C228.267 46.4142 228.603 46.75 229.017 46.75V45.25ZM237.202 45.287C237.592 45.147 237.795 44.7174 237.655 44.3276C237.514 43.9378 237.085 43.7353 236.695 43.8754L237.202 45.287ZM241.631 42.1019C241.241 42.2419 241.039 42.6715 241.179 43.0613C241.319 43.4511 241.748 43.6536 242.138 43.5135L241.631 42.1019ZM250.036 40.6759C250.425 40.5358 250.628 40.1063 250.488 39.7165C250.348 39.3267 249.918 39.1242 249.528 39.2643L250.036 40.6759ZM254.464 37.4908C254.075 37.6308 253.872 38.0604 254.012 38.4502C254.152 38.84 254.582 39.0425 254.972 38.9024L254.464 37.4908ZM262.869 36.0648C263.259 35.9247 263.461 35.4952 263.321 35.1054C263.181 34.7156 262.752 34.5131 262.362 34.6532L262.869 36.0648ZM267.298 32.8796C266.908 33.0197 266.705 33.4493 266.845 33.8391C266.986 34.2289 267.415 34.4314 267.805 34.2913L267.298 32.8796ZM275.702 31.4537C276.092 31.3136 276.295 30.8841 276.155 30.4943C276.014 30.1044 275.585 29.902 275.195 30.042L275.702 31.4537ZM280.131 28.2685C279.741 28.4086 279.539 28.8382 279.679 29.228C279.819 29.6178 280.248 29.8202 280.638 29.6802L280.131 28.2685ZM288.536 26.8426C288.925 26.7025 289.128 26.273 288.988 25.8831C288.848 25.4933 288.418 25.2909 288.028 25.4309L288.536 26.8426ZM292.964 23.6574C292.575 23.7975 292.372 24.227 292.512 24.6169C292.652 25.0067 293.082 25.2091 293.472 25.0691L292.964 23.6574ZM301.369 22.2315C301.759 22.0914 301.961 21.6618 301.821 21.272C301.681 20.8822 301.252 20.6798 300.862 20.8198L301.369 22.2315ZM305.798 19.0463C305.408 19.1864 305.205 19.6159 305.345 20.0057C305.486 20.3956 305.915 20.598 306.305 20.458L305.798 19.0463ZM314.202 17.6204C314.592 17.4803 314.795 17.0507 314.655 16.6609C314.514 16.2711 314.085 16.0686 313.695 16.2087L314.202 17.6204ZM318.631 14.4352C318.241 14.5753 318.039 15.0048 318.179 15.3946C318.319 15.7844 318.748 15.9869 319.138 15.8468L318.631 14.4352ZM327.036 13.0092C327.425 12.8692 327.628 12.4396 327.488 12.0498C327.348 11.66 326.918 11.4575 326.528 11.5976L327.036 13.0092ZM331.464 9.8241C331.075 9.96416 330.872 10.3937 331.012 10.7835C331.152 11.1733 331.582 11.3758 331.972 11.2357L331.464 9.8241ZM339.869 8.39813C340.259 8.25807 340.461 7.82852 340.321 7.4387C340.181 7.04889 339.752 6.84643 339.362 6.98649L339.869 8.39813ZM344.298 5.21298C343.908 5.35305 343.705 5.7826 343.845 6.17241C343.986 6.56223 344.415 6.76469 344.805 6.62463L344.298 5.21298ZM0 46.75H3.98291V45.25H0V46.75ZM8.96154 46.75H16.9273V45.25H8.96154V46.75ZM21.906 46.75H29.8718V45.25H21.906V46.75ZM34.8504 46.75H42.8162V45.25H34.8504V46.75ZM47.7949 46.75H55.7607V45.25H47.7949V46.75ZM60.7393 46.75H68.7051V45.25H60.7393V46.75ZM73.6838 46.75H81.6496V45.25H73.6838V46.75ZM86.6282 46.75H94.594V45.25H86.6282V46.75ZM99.5726 46.75H107.538V45.25H99.5726V46.75ZM112.517 46.75H120.483V45.25H112.517V46.75ZM125.462 46.75H133.427V45.25H125.462V46.75ZM138.406 46.75H146.372V45.25H138.406V46.75ZM151.35 46.75H159.316V45.25H151.35V46.75ZM164.295 46.75H172.261V45.25H164.295V46.75ZM177.239 46.75H185.205V45.25H177.239V46.75ZM190.184 46.75H198.15V45.25H190.184V46.75ZM203.128 46.75H211.094V45.25H203.128V46.75ZM216.073 46.75H224.038V45.25H216.073V46.75ZM229.017 46.75H233V45.25H229.017V46.75ZM233.254 46.7058L237.202 45.287L236.695 43.8754L232.746 45.2942L233.254 46.7058ZM242.138 43.5135L250.036 40.6759L249.528 39.2643L241.631 42.1019L242.138 43.5135ZM254.972 38.9024L262.869 36.0648L262.362 34.6532L254.464 37.4908L254.972 38.9024ZM267.805 34.2913L275.702 31.4537L275.195 30.042L267.298 32.8796L267.805 34.2913ZM280.638 29.6802L288.536 26.8426L288.028 25.4309L280.131 28.2685L280.638 29.6802ZM293.472 25.0691L301.369 22.2315L300.862 20.8198L292.964 23.6574L293.472 25.0691ZM306.305 20.458L314.202 17.6204L313.695 16.2087L305.798 19.0463L306.305 20.458ZM319.138 15.8468L327.036 13.0092L326.528 11.5976L318.631 14.4352L319.138 15.8468ZM331.972 11.2357L339.869 8.39813L339.362 6.98649L331.464 9.8241L331.972 11.2357ZM344.805 6.62463L348.754 5.20582L348.246 3.79418L344.298 5.21298L344.805 6.62463Z" fill="white" fill-opacity="0.27"/>
</svg>
