<svg width="363" height="47" viewBox="0 0 363 47" fill="none" xmlns="http://www.w3.org/2000/svg">
<path d="M284 46V46.75C284.128 46.75 284.253 46.7174 284.365 46.6552L284 46ZM354.5 4.5C354.5 6.70914 356.291 8.5 358.5 8.5C360.709 8.5 362.5 6.70914 362.5 4.5C362.5 2.29086 360.709 0.5 358.5 0.5C356.291 0.5 354.5 2.29086 354.5 4.5ZM3.97203 46.75C4.38624 46.75 4.72203 46.4142 4.72203 46C4.72203 45.5858 4.38624 45.25 3.97203 45.25V46.75ZM8.93706 45.25C8.52285 45.25 8.18706 45.5858 8.18706 46C8.18706 46.4142 8.52285 46.75 8.93706 46.75V45.25ZM16.8811 46.75C17.2953 46.75 17.6311 46.4142 17.6311 46C17.6311 45.5858 17.2953 45.25 16.8811 45.25V46.75ZM21.8462 45.25C21.4319 45.25 21.0962 45.5858 21.0962 46C21.0962 46.4142 21.4319 46.75 21.8462 46.75V45.25ZM29.7902 46.75C30.2044 46.75 30.5402 46.4142 30.5402 46C30.5402 45.5858 30.2044 45.25 29.7902 45.25V46.75ZM34.7552 45.25C34.341 45.25 34.0052 45.5858 34.0052 46C34.0052 46.4142 34.341 46.75 34.7552 46.75V45.25ZM42.6993 46.75C43.1135 46.75 43.4493 46.4142 43.4493 46C43.4493 45.5858 43.1135 45.25 42.6993 45.25V46.75ZM47.6643 45.25C47.2501 45.25 46.9143 45.5858 46.9143 46C46.9143 46.4142 47.2501 46.75 47.6643 46.75V45.25ZM55.6084 46.75C56.0226 46.75 56.3584 46.4142 56.3584 46C56.3584 45.5858 56.0226 45.25 55.6084 45.25V46.75ZM60.5734 45.25C60.1592 45.25 59.8234 45.5858 59.8234 46C59.8234 46.4142 60.1592 46.75 60.5734 46.75V45.25ZM68.5175 46.75C68.9317 46.75 69.2675 46.4142 69.2675 46C69.2675 45.5858 68.9317 45.25 68.5175 45.25V46.75ZM73.4825 45.25C73.0683 45.25 72.7325 45.5858 72.7325 46C72.7325 46.4142 73.0683 46.75 73.4825 46.75V45.25ZM81.4266 46.75C81.8408 46.75 82.1766 46.4142 82.1766 46C82.1766 45.5858 81.8408 45.25 81.4266 45.25V46.75ZM86.3916 45.25C85.9774 45.25 85.6416 45.5858 85.6416 46C85.6416 46.4142 85.9774 46.75 86.3916 46.75V45.25ZM94.3357 46.75C94.7499 46.75 95.0857 46.4142 95.0857 46C95.0857 45.5858 94.7499 45.25 94.3357 45.25V46.75ZM99.3007 45.25C98.8865 45.25 98.5507 45.5858 98.5507 46C98.5507 46.4142 98.8865 46.75 99.3007 46.75V45.25ZM107.245 46.75C107.659 46.75 107.995 46.4142 107.995 46C107.995 45.5858 107.659 45.25 107.245 45.25V46.75ZM112.21 45.25C111.796 45.25 111.46 45.5858 111.46 46C111.46 46.4142 111.796 46.75 112.21 46.75V45.25ZM120.154 46.75C120.568 46.75 120.904 46.4142 120.904 46C120.904 45.5858 120.568 45.25 120.154 45.25V46.75ZM125.119 45.25C124.705 45.25 124.369 45.5858 124.369 46C124.369 46.4142 124.705 46.75 125.119 46.75V45.25ZM133.063 46.75C133.477 46.75 133.813 46.4142 133.813 46C133.813 45.5858 133.477 45.25 133.063 45.25V46.75ZM138.028 45.25C137.614 45.25 137.278 45.5858 137.278 46C137.278 46.4142 137.614 46.75 138.028 46.75V45.25ZM145.972 46.75C146.386 46.75 146.722 46.4142 146.722 46C146.722 45.5858 146.386 45.25 145.972 45.25V46.75ZM150.937 45.25C150.523 45.25 150.187 45.5858 150.187 46C150.187 46.4142 150.523 46.75 150.937 46.75V45.25ZM158.881 46.75C159.295 46.75 159.631 46.4142 159.631 46C159.631 45.5858 159.295 45.25 158.881 45.25V46.75ZM163.846 45.25C163.432 45.25 163.096 45.5858 163.096 46C163.096 46.4142 163.432 46.75 163.846 46.75V45.25ZM171.79 46.75C172.204 46.75 172.54 46.4142 172.54 46C172.54 45.5858 172.204 45.25 171.79 45.25V46.75ZM176.755 45.25C176.341 45.25 176.005 45.5858 176.005 46C176.005 46.4142 176.341 46.75 176.755 46.75V45.25ZM184.699 46.75C185.114 46.75 185.449 46.4142 185.449 46C185.449 45.5858 185.114 45.25 184.699 45.25V46.75ZM189.664 45.25C189.25 45.25 188.914 45.5858 188.914 46C188.914 46.4142 189.25 46.75 189.664 46.75V45.25ZM197.608 46.75C198.023 46.75 198.358 46.4142 198.358 46C198.358 45.5858 198.023 45.25 197.608 45.25V46.75ZM202.573 45.25C202.159 45.25 201.823 45.5858 201.823 46C201.823 46.4142 202.159 46.75 202.573 46.75V45.25ZM210.518 46.75C210.932 46.75 211.268 46.4142 211.268 46C211.268 45.5858 210.932 45.25 210.518 45.25V46.75ZM215.483 45.25C215.068 45.25 214.733 45.5858 214.733 46C214.733 46.4142 215.068 46.75 215.483 46.75V45.25ZM223.427 46.75C223.841 46.75 224.177 46.4142 224.177 46C224.177 45.5858 223.841 45.25 223.427 45.25V46.75ZM228.392 45.25C227.977 45.25 227.642 45.5858 227.642 46C227.642 46.4142 227.977 46.75 228.392 46.75V45.25ZM236.336 46.75C236.75 46.75 237.086 46.4142 237.086 46C237.086 45.5858 236.75 45.25 236.336 45.25V46.75ZM241.301 45.25C240.887 45.25 240.551 45.5858 240.551 46C240.551 46.4142 240.887 46.75 241.301 46.75V45.25ZM249.245 46.75C249.659 46.75 249.995 46.4142 249.995 46C249.995 45.5858 249.659 45.25 249.245 45.25V46.75ZM254.21 45.25C253.796 45.25 253.46 45.5858 253.46 46C253.46 46.4142 253.796 46.75 254.21 46.75V45.25ZM262.154 46.75C262.568 46.75 262.904 46.4142 262.904 46C262.904 45.5858 262.568 45.25 262.154 45.25V46.75ZM267.119 45.25C266.705 45.25 266.369 45.5858 266.369 46C266.369 46.4142 266.705 46.75 267.119 46.75V45.25ZM275.063 46.75C275.477 46.75 275.813 46.4142 275.813 46C275.813 45.5858 275.477 45.25 275.063 45.25V46.75ZM280.028 45.25C279.614 45.25 279.278 45.5858 279.278 46C279.278 46.4142 279.614 46.75 280.028 46.75V45.25ZM287.64 44.831C288.002 44.6295 288.132 44.1727 287.93 43.8108C287.728 43.449 287.272 43.319 286.91 43.5206L287.64 44.831ZM291.003 41.2404C290.641 41.442 290.511 41.8987 290.713 42.2606C290.914 42.6224 291.371 42.7524 291.733 42.5508L291.003 41.2404ZM298.283 38.9025C298.644 38.7009 298.774 38.2441 298.573 37.8823C298.371 37.5204 297.914 37.3905 297.553 37.592L298.283 38.9025ZM301.646 35.3118C301.284 35.5134 301.154 35.9702 301.356 36.332C301.557 36.6939 302.014 36.8238 302.376 36.6222L301.646 35.3118ZM308.925 32.9739C309.287 32.7723 309.417 32.3156 309.216 31.9537C309.014 31.5918 308.557 31.4619 308.195 31.6635L308.925 32.9739ZM312.289 29.3833C311.927 29.5848 311.797 30.0416 311.999 30.4034C312.2 30.7653 312.657 30.8952 313.019 30.6937L312.289 29.3833ZM319.568 27.0453C319.93 26.8437 320.06 26.387 319.858 26.0251C319.657 25.6633 319.2 25.5333 318.838 25.7349L319.568 27.0453ZM322.932 23.4547C322.57 23.6563 322.44 24.113 322.642 24.4749C322.843 24.8367 323.3 24.9667 323.662 24.7651L322.932 23.4547ZM330.211 21.1167C330.573 20.9152 330.703 20.4584 330.501 20.0966C330.3 19.7347 329.843 19.6048 329.481 19.8063L330.211 21.1167ZM333.575 17.5261C333.213 17.7277 333.083 18.1844 333.284 18.5463C333.486 18.9082 333.943 19.0381 334.305 18.8365L333.575 17.5261ZM340.854 15.1882C341.216 14.9866 341.346 14.5298 341.144 14.168C340.943 13.8061 340.486 13.6762 340.124 13.8778L340.854 15.1882ZM344.217 11.5975C343.856 11.7991 343.726 12.2559 343.927 12.6177C344.129 12.9796 344.586 13.1095 344.947 12.908L344.217 11.5975ZM351.497 9.2596C351.859 9.05803 351.989 8.60128 351.787 8.23942C351.585 7.87756 351.129 7.74762 350.767 7.9492L351.497 9.2596ZM354.86 5.66898C354.498 5.87055 354.368 6.3273 354.57 6.68916C354.772 7.05102 355.228 7.18096 355.59 6.97938L354.86 5.66898ZM0 46.75H3.97203V45.25H0V46.75ZM8.93706 46.75H16.8811V45.25H8.93706V46.75ZM21.8462 46.75H29.7902V45.25H21.8462V46.75ZM34.7552 46.75H42.6993V45.25H34.7552V46.75ZM47.6643 46.75H55.6084V45.25H47.6643V46.75ZM60.5734 46.75H68.5175V45.25H60.5734V46.75ZM73.4825 46.75H81.4266V45.25H73.4825V46.75ZM86.3916 46.75H94.3357V45.25H86.3916V46.75ZM99.3007 46.75H107.245V45.25H99.3007V46.75ZM112.21 46.75H120.154V45.25H112.21V46.75ZM125.119 46.75H133.063V45.25H125.119V46.75ZM138.028 46.75H145.972V45.25H138.028V46.75ZM150.937 46.75H158.881V45.25H150.937V46.75ZM163.846 46.75H171.79V45.25H163.846V46.75ZM176.755 46.75H184.699V45.25H176.755V46.75ZM189.664 46.75H197.608V45.25H189.664V46.75ZM202.573 46.75H210.518V45.25H202.573V46.75ZM215.483 46.75H223.427V45.25H215.483V46.75ZM228.392 46.75H236.336V45.25H228.392V46.75ZM241.301 46.75H249.245V45.25H241.301V46.75ZM254.21 46.75H262.154V45.25H254.21V46.75ZM267.119 46.75H275.063V45.25H267.119V46.75ZM280.028 46.75H284V45.25H280.028V46.75ZM284.365 46.6552L287.64 44.831L286.91 43.5206L283.635 45.3448L284.365 46.6552ZM291.733 42.5508L298.283 38.9025L297.553 37.592L291.003 41.2404L291.733 42.5508ZM302.376 36.6222L308.925 32.9739L308.195 31.6635L301.646 35.3118L302.376 36.6222ZM313.019 30.6937L319.568 27.0453L318.838 25.7349L312.289 29.3833L313.019 30.6937ZM323.662 24.7651L330.211 21.1167L329.481 19.8063L322.932 23.4547L323.662 24.7651ZM334.305 18.8365L340.854 15.1882L340.124 13.8778L333.575 17.5261L334.305 18.8365ZM344.947 12.908L351.497 9.2596L350.767 7.9492L344.217 11.5975L344.947 12.908ZM355.59 6.97938L358.865 5.1552L358.135 3.8448L354.86 5.66898L355.59 6.97938Z" fill="white" fill-opacity="0.27"/>
</svg>
