<svg width="311" height="52" viewBox="0 0 311 52" fill="none" xmlns="http://www.w3.org/2000/svg">
<path d="M69.5 1.5L69.069 0.886237C69.1952 0.797574 69.3457 0.75 69.5 0.75V1.5ZM8 47.5C8 49.7091 6.20914 51.5 4 51.5C1.79086 51.5 0 49.7091 0 47.5C0 45.2909 1.79086 43.5 4 43.5C6.20914 43.5 8 45.2909 8 47.5ZM306.597 2.25C306.183 2.25 305.847 1.91421 305.847 1.5C305.847 1.08579 306.183 0.75 306.597 0.75V2.25ZM301.719 0.75C302.133 0.75 302.469 1.08579 302.469 1.5C302.469 1.91421 302.133 2.25 301.719 2.25V0.75ZM293.913 2.25C293.499 2.25 293.163 1.91421 293.163 1.5C293.163 1.08579 293.499 0.75 293.913 0.75V2.25ZM289.034 0.75C289.449 0.75 289.784 1.08579 289.784 1.5C289.784 1.91421 289.449 2.25 289.034 2.25V0.75ZM281.229 2.25C280.815 2.25 280.479 1.91421 280.479 1.5C280.479 1.08579 280.815 0.75 281.229 0.75V2.25ZM276.35 0.75C276.764 0.75 277.1 1.08579 277.1 1.5C277.1 1.91421 276.764 2.25 276.35 2.25V0.75ZM268.545 2.25C268.13 2.25 267.795 1.91421 267.795 1.5C267.795 1.08579 268.13 0.75 268.545 0.75V2.25ZM263.666 0.75C264.08 0.75 264.416 1.08579 264.416 1.5C264.416 1.91421 264.08 2.25 263.666 2.25V0.75ZM255.86 2.25C255.446 2.25 255.11 1.91421 255.11 1.5C255.11 1.08579 255.446 0.75 255.86 0.75V2.25ZM250.982 0.75C251.396 0.75 251.732 1.08579 251.732 1.5C251.732 1.91421 251.396 2.25 250.982 2.25V0.75ZM243.176 2.25C242.762 2.25 242.426 1.91421 242.426 1.5C242.426 1.08579 242.762 0.75 243.176 0.75V2.25ZM238.298 0.75C238.712 0.75 239.048 1.08579 239.048 1.5C239.048 1.91421 238.712 2.25 238.298 2.25V0.75ZM230.492 2.25C230.078 2.25 229.742 1.91421 229.742 1.5C229.742 1.08579 230.078 0.75 230.492 0.75V2.25ZM225.613 0.75C226.028 0.75 226.363 1.08579 226.363 1.5C226.363 1.91421 226.028 2.25 225.613 2.25V0.75ZM217.808 2.25C217.394 2.25 217.058 1.91421 217.058 1.5C217.058 1.08579 217.394 0.75 217.808 0.75V2.25ZM212.929 0.75C213.343 0.75 213.679 1.08579 213.679 1.5C213.679 1.91421 213.343 2.25 212.929 2.25V0.75ZM205.124 2.25C204.709 2.25 204.374 1.91421 204.374 1.5C204.374 1.08579 204.709 0.75 205.124 0.75V2.25ZM200.245 0.75C200.659 0.75 200.995 1.08579 200.995 1.5C200.995 1.91421 200.659 2.25 200.245 2.25V0.75ZM192.439 2.25C192.025 2.25 191.689 1.91421 191.689 1.5C191.689 1.08579 192.025 0.75 192.439 0.75V2.25ZM187.561 0.75C187.975 0.75 188.311 1.08579 188.311 1.5C188.311 1.91421 187.975 2.25 187.561 2.25V0.75ZM179.755 2.25C179.341 2.25 179.005 1.91421 179.005 1.5C179.005 1.08579 179.341 0.75 179.755 0.75V2.25ZM174.877 0.75C175.291 0.75 175.627 1.08579 175.627 1.5C175.627 1.91421 175.291 2.25 174.877 2.25V0.75ZM167.071 2.25C166.657 2.25 166.321 1.91421 166.321 1.5C166.321 1.08579 166.657 0.75 167.071 0.75V2.25ZM162.192 0.75C162.607 0.75 162.942 1.08579 162.942 1.5C162.942 1.91421 162.607 2.25 162.192 2.25V0.75ZM154.387 2.25C153.972 2.25 153.637 1.91421 153.637 1.5C153.637 1.08579 153.972 0.75 154.387 0.75V2.25ZM149.508 0.75C149.922 0.75 150.258 1.08579 150.258 1.5C150.258 1.91421 149.922 2.25 149.508 2.25V0.75ZM141.702 2.25C141.288 2.25 140.952 1.91421 140.952 1.5C140.952 1.08579 141.288 0.75 141.702 0.75V2.25ZM136.824 0.75C137.238 0.75 137.574 1.08579 137.574 1.5C137.574 1.91421 137.238 2.25 136.824 2.25V0.75ZM129.018 2.25C128.604 2.25 128.268 1.91421 128.268 1.5C128.268 1.08579 128.604 0.75 129.018 0.75V2.25ZM124.14 0.75C124.554 0.75 124.89 1.08579 124.89 1.5C124.89 1.91421 124.554 2.25 124.14 2.25V0.75ZM116.334 2.25C115.92 2.25 115.584 1.91421 115.584 1.5C115.584 1.08579 115.92 0.75 116.334 0.75V2.25ZM111.456 0.75C111.87 0.75 112.206 1.08579 112.206 1.5C112.206 1.91421 111.87 2.25 111.456 2.25V0.75ZM103.65 2.25C103.236 2.25 102.9 1.91421 102.9 1.5C102.9 1.08579 103.236 0.75 103.65 0.75V2.25ZM98.7713 0.75C99.1855 0.75 99.5213 1.08579 99.5213 1.5C99.5213 1.91421 99.1855 2.25 98.7713 2.25V0.75ZM90.9657 2.25C90.5515 2.25 90.2157 1.91421 90.2157 1.5C90.2157 1.08579 90.5515 0.75 90.9657 0.75V2.25ZM86.0871 0.75C86.5013 0.75 86.8371 1.08579 86.8371 1.5C86.8371 1.91421 86.5013 2.25 86.0871 2.25V0.75ZM78.2815 2.25C77.8672 2.25 77.5315 1.91421 77.5315 1.5C77.5315 1.08579 77.8672 0.75 78.2815 0.75V2.25ZM73.4029 0.75C73.8171 0.75 74.1529 1.08579 74.1529 1.5C74.1529 1.91421 73.8171 2.25 73.4029 2.25V0.75ZM66.5721 4.47274C66.2331 4.71079 65.7653 4.62899 65.5273 4.29001C65.2892 3.95104 65.371 3.48327 65.71 3.24521L66.5721 4.47274ZM61.5113 6.19393C61.8502 5.95587 62.318 6.03768 62.5561 6.37665C62.7941 6.71562 62.7123 7.1834 62.3734 7.42145L61.5113 6.19393ZM55.6554 12.1394C55.3164 12.3775 54.8486 12.2957 54.6106 11.9567C54.3725 11.6177 54.4543 11.1499 54.7933 10.9119L55.6554 12.1394ZM50.5946 13.8606C50.9336 13.6225 51.4013 13.7043 51.6394 14.0433C51.8775 14.3823 51.7957 14.8501 51.4567 15.0881L50.5946 13.8606ZM44.7387 19.8061C44.3997 20.0441 43.932 19.9623 43.6939 19.6233C43.4559 19.2844 43.5377 18.8166 43.8766 18.5785L44.7387 19.8061ZM39.6779 21.5273C40.0169 21.2892 40.4847 21.371 40.7227 21.71C40.9608 22.049 40.879 22.5167 40.54 22.7548L39.6779 21.5273ZM33.8221 27.4727C33.4831 27.7108 33.0153 27.629 32.7773 27.29C32.5392 26.951 32.621 26.4833 32.96 26.2452L33.8221 27.4727ZM28.7613 29.1939C29.1003 28.9559 29.568 29.0377 29.8061 29.3767C30.0441 29.7156 29.9623 30.1834 29.6234 30.4215L28.7613 29.1939ZM22.9054 35.1394C22.5664 35.3775 22.0987 35.2957 21.8606 34.9567C21.6225 34.6177 21.7043 34.1499 22.0433 33.9119L22.9054 35.1394ZM17.8446 36.8606C18.1836 36.6225 18.6513 36.7043 18.8894 37.0433C19.1275 37.3823 19.0457 37.8501 18.7067 38.0881L17.8446 36.8606ZM11.9887 42.8061C11.6497 43.0441 11.182 42.9623 10.9439 42.6234C10.7059 42.2844 10.7877 41.8166 11.1266 41.5785L11.9887 42.8061ZM6.92792 44.5273C7.26691 44.2892 7.73468 44.371 7.97275 44.71C8.21078 45.049 8.12897 45.5167 7.79001 45.7548L6.92792 44.5273ZM310.5 2.25H306.597V0.75H310.5V2.25ZM301.719 2.25H293.913V0.75H301.719V2.25ZM289.034 2.25H281.229V0.75H289.034V2.25ZM276.35 2.25H268.545V0.75H276.35V2.25ZM263.666 2.25H255.86V0.75H263.666V2.25ZM250.982 2.25H243.176V0.75H250.982V2.25ZM238.298 2.25H230.492V0.75H238.298V2.25ZM225.613 2.25H217.808V0.75H225.613V2.25ZM212.929 2.25H205.124V0.75H212.929V2.25ZM200.245 2.25H192.439V0.75H200.245V2.25ZM187.561 2.25H179.755V0.75H187.561V2.25ZM174.877 2.25H167.071V0.75H174.877V2.25ZM162.192 2.25H154.387V0.75H162.192V2.25ZM149.508 2.25H141.702V0.75H149.508V2.25ZM136.824 2.25H129.018V0.75H136.824V2.25ZM124.14 2.25H116.334V0.75H124.14V2.25ZM111.456 2.25H103.65V0.75H111.456V2.25ZM98.7713 2.25H90.9657V0.75H98.7713V2.25ZM86.0871 2.25H78.2815V0.75H86.0871V2.25ZM73.4029 2.25H69.5V0.75H73.4029V2.25ZM69.931 2.11376L66.5721 4.47274L65.71 3.24521L69.069 0.886237L69.931 2.11376ZM62.3734 7.42145L55.6554 12.1394L54.7933 10.9119L61.5113 6.19393L62.3734 7.42145ZM51.4567 15.0881L44.7387 19.8061L43.8766 18.5785L50.5946 13.8606L51.4567 15.0881ZM40.54 22.7548L33.8221 27.4727L32.96 26.2452L39.6779 21.5273L40.54 22.7548ZM29.6234 30.4215L22.9054 35.1394L22.0433 33.9119L28.7613 29.1939L29.6234 30.4215ZM18.7067 38.0881L11.9887 42.8061L11.1266 41.5785L17.8446 36.8606L18.7067 38.0881ZM7.79001 45.7548L4.43103 48.1138L3.56897 46.8862L6.92792 44.5273L7.79001 45.7548Z" fill="white" fill-opacity="0.27"/>
</svg>
