<svg width="271" height="80" viewBox="0 0 271 80" fill="none" xmlns="http://www.w3.org/2000/svg">
<path d="M70.5 78.5V79.25C70.2862 79.25 70.0826 79.1588 69.9403 78.9992L70.5 78.5ZM8.5 4.5C8.5 6.70914 6.70914 8.5 4.5 8.5C2.29086 8.5 0.5 6.70914 0.5 4.5C0.5 2.29086 2.29086 0.5 4.5 0.5C6.70914 0.5 8.5 2.29086 8.5 4.5ZM266.397 79.25C265.983 79.25 265.647 78.9142 265.647 78.5C265.647 78.0858 265.983 77.75 266.397 77.75V79.25ZM261.269 77.75C261.683 77.75 262.019 78.0858 262.019 78.5C262.019 78.9142 261.683 79.25 261.269 79.25V77.75ZM253.064 79.25C252.65 79.25 252.314 78.9142 252.314 78.5C252.314 78.0858 252.65 77.75 253.064 77.75V79.25ZM247.936 77.75C248.35 77.75 248.686 78.0858 248.686 78.5C248.686 78.9142 248.35 79.25 247.936 79.25V77.75ZM239.731 79.25C239.317 79.25 238.981 78.9142 238.981 78.5C238.981 78.0858 239.317 77.75 239.731 77.75V79.25ZM234.603 77.75C235.017 77.75 235.353 78.0858 235.353 78.5C235.353 78.9142 235.017 79.25 234.603 79.25V77.75ZM226.397 79.25C225.983 79.25 225.647 78.9142 225.647 78.5C225.647 78.0858 225.983 77.75 226.397 77.75V79.25ZM221.269 77.75C221.683 77.75 222.019 78.0858 222.019 78.5C222.019 78.9142 221.683 79.25 221.269 79.25V77.75ZM213.064 79.25C212.65 79.25 212.314 78.9142 212.314 78.5C212.314 78.0858 212.65 77.75 213.064 77.75V79.25ZM207.936 77.75C208.35 77.75 208.686 78.0858 208.686 78.5C208.686 78.9142 208.35 79.25 207.936 79.25V77.75ZM199.731 79.25C199.317 79.25 198.981 78.9142 198.981 78.5C198.981 78.0858 199.317 77.75 199.731 77.75V79.25ZM194.603 77.75C195.017 77.75 195.353 78.0858 195.353 78.5C195.353 78.9142 195.017 79.25 194.603 79.25V77.75ZM186.397 79.25C185.983 79.25 185.647 78.9142 185.647 78.5C185.647 78.0858 185.983 77.75 186.397 77.75V79.25ZM181.269 77.75C181.683 77.75 182.019 78.0858 182.019 78.5C182.019 78.9142 181.683 79.25 181.269 79.25V77.75ZM173.064 79.25C172.65 79.25 172.314 78.9142 172.314 78.5C172.314 78.0858 172.65 77.75 173.064 77.75V79.25ZM167.936 77.75C168.35 77.75 168.686 78.0858 168.686 78.5C168.686 78.9142 168.35 79.25 167.936 79.25V77.75ZM159.731 79.25C159.317 79.25 158.981 78.9142 158.981 78.5C158.981 78.0858 159.317 77.75 159.731 77.75V79.25ZM154.603 77.75C155.017 77.75 155.353 78.0858 155.353 78.5C155.353 78.9142 155.017 79.25 154.603 79.25V77.75ZM146.397 79.25C145.983 79.25 145.647 78.9142 145.647 78.5C145.647 78.0858 145.983 77.75 146.397 77.75V79.25ZM141.269 77.75C141.683 77.75 142.019 78.0858 142.019 78.5C142.019 78.9142 141.683 79.25 141.269 79.25V77.75ZM133.064 79.25C132.65 79.25 132.314 78.9142 132.314 78.5C132.314 78.0858 132.65 77.75 133.064 77.75V79.25ZM127.936 77.75C128.35 77.75 128.686 78.0858 128.686 78.5C128.686 78.9142 128.35 79.25 127.936 79.25V77.75ZM119.731 79.25C119.317 79.25 118.981 78.9142 118.981 78.5C118.981 78.0858 119.317 77.75 119.731 77.75V79.25ZM114.603 77.75C115.017 77.75 115.353 78.0858 115.353 78.5C115.353 78.9142 115.017 79.25 114.603 79.25V77.75ZM106.397 79.25C105.983 79.25 105.647 78.9142 105.647 78.5C105.647 78.0858 105.983 77.75 106.397 77.75V79.25ZM101.269 77.75C101.683 77.75 102.019 78.0858 102.019 78.5C102.019 78.9142 101.683 79.25 101.269 79.25V77.75ZM93.0641 79.25C92.6499 79.25 92.3141 78.9142 92.3141 78.5C92.3141 78.0858 92.6499 77.75 93.0641 77.75V79.25ZM87.9359 77.75C88.3501 77.75 88.6859 78.0858 88.6859 78.5C88.6859 78.9142 88.3501 79.25 87.9359 79.25V77.75ZM79.7308 79.25C79.3166 79.25 78.9808 78.9142 78.9808 78.5C78.9808 78.0858 79.3166 77.75 79.7308 77.75V79.25ZM74.6026 77.75C75.0168 77.75 75.3526 78.0858 75.3526 78.5C75.3526 78.9142 75.0168 79.25 74.6026 79.25V77.75ZM67.4018 76.1531C67.1261 75.8439 67.1532 75.3698 67.4623 75.0941C67.7715 74.8184 68.2456 74.8455 68.5213 75.1546L67.4018 76.1531ZM65.3482 71.5969C65.6239 71.9061 65.5968 72.3802 65.2877 72.6559C64.9785 72.9316 64.5044 72.9045 64.2287 72.5954L65.3482 71.5969ZM59.1518 66.9031C58.8761 66.5939 58.9032 66.1198 59.2123 65.8441C59.5215 65.5684 59.9956 65.5955 60.2713 65.9046L59.1518 66.9031ZM57.0982 62.3469C57.3739 62.6561 57.3468 63.1302 57.0377 63.4059C56.7285 63.6816 56.2544 63.6545 55.9787 63.3454L57.0982 62.3469ZM50.9018 57.6531C50.6261 57.3439 50.6532 56.8698 50.9623 56.5941C51.2715 56.3184 51.7456 56.3455 52.0213 56.6546L50.9018 57.6531ZM48.8482 53.0969C49.1239 53.4061 49.0968 53.8802 48.7877 54.1559C48.4785 54.4316 48.0045 54.4045 47.7287 54.0954L48.8482 53.0969ZM42.6518 48.4031C42.3761 48.0939 42.4032 47.6198 42.7123 47.3441C43.0215 47.0684 43.4956 47.0955 43.7713 47.4046L42.6518 48.4031ZM40.5982 43.8469C40.8739 44.1561 40.8468 44.6302 40.5377 44.9059C40.2285 45.1816 39.7545 45.1545 39.4787 44.8454L40.5982 43.8469ZM34.4018 39.1531C34.1261 38.8439 34.1532 38.3698 34.4623 38.0941C34.7715 37.8184 35.2456 37.8455 35.5213 38.1546L34.4018 39.1531ZM32.3482 34.5969C32.6239 34.9061 32.5968 35.3802 32.2877 35.6559C31.9785 35.9316 31.5045 35.9045 31.2287 35.5954L32.3482 34.5969ZM26.1518 29.9031C25.8761 29.5939 25.9032 29.1198 26.2123 28.8441C26.5215 28.5684 26.9956 28.5955 27.2713 28.9046L26.1518 29.9031ZM24.0982 25.3469C24.3739 25.6561 24.3468 26.1302 24.0377 26.4059C23.7285 26.6816 23.2545 26.6545 22.9787 26.3454L24.0982 25.3469ZM17.9018 20.6531C17.6261 20.3439 17.6532 19.8698 17.9623 19.5941C18.2715 19.3184 18.7456 19.3455 19.0213 19.6546L17.9018 20.6531ZM15.8482 16.0969C16.1239 16.4061 16.0968 16.8802 15.7877 17.1559C15.4785 17.4316 15.0045 17.4045 14.7287 17.0954L15.8482 16.0969ZM9.65182 11.4031C9.3761 11.0939 9.4032 10.6198 9.71234 10.3441C10.0215 10.0684 10.4955 10.0955 10.7713 10.4046L9.65182 11.4031ZM7.59818 6.84694C7.8739 7.15607 7.8468 7.63017 7.53769 7.90588C7.22855 8.18158 6.75446 8.15449 6.47873 7.84537L7.59818 6.84694ZM270.5 79.25H266.397V77.75H270.5V79.25ZM261.269 79.25H253.064V77.75H261.269V79.25ZM247.936 79.25H239.731V77.75H247.936V79.25ZM234.603 79.25H226.397V77.75H234.603V79.25ZM221.269 79.25H213.064V77.75H221.269V79.25ZM207.936 79.25H199.731V77.75H207.936V79.25ZM194.603 79.25H186.397V77.75H194.603V79.25ZM181.269 79.25H173.064V77.75H181.269V79.25ZM167.936 79.25H159.731V77.75H167.936V79.25ZM154.603 79.25H146.397V77.75H154.603V79.25ZM141.269 79.25H133.064V77.75H141.269V79.25ZM127.936 79.25H119.731V77.75H127.936V79.25ZM114.603 79.25H106.397V77.75H114.603V79.25ZM101.269 79.25H93.0641V77.75H101.269V79.25ZM87.9359 79.25H79.7308V77.75H87.9359V79.25ZM74.6026 79.25H70.5V77.75H74.6026V79.25ZM69.9403 78.9992L67.4018 76.1531L68.5213 75.1546L71.0597 78.0008L69.9403 78.9992ZM64.2287 72.5954L59.1518 66.9031L60.2713 65.9046L65.3482 71.5969L64.2287 72.5954ZM55.9787 63.3454L50.9018 57.6531L52.0213 56.6546L57.0982 62.3469L55.9787 63.3454ZM47.7287 54.0954L42.6518 48.4031L43.7713 47.4046L48.8482 53.0969L47.7287 54.0954ZM39.4787 44.8454L34.4018 39.1531L35.5213 38.1546L40.5982 43.8469L39.4787 44.8454ZM31.2287 35.5954L26.1518 29.9031L27.2713 28.9046L32.3482 34.5969L31.2287 35.5954ZM22.9787 26.3454L17.9018 20.6531L19.0213 19.6546L24.0982 25.3469L22.9787 26.3454ZM14.7287 17.0954L9.65182 11.4031L10.7713 10.4046L15.8482 16.0969L14.7287 17.0954ZM6.47873 7.84537L3.94028 4.99921L5.05972 4.00079L7.59818 6.84694L6.47873 7.84537Z" fill="white" fill-opacity="0.27"/>
</svg>
