<svg width="83" height="209" viewBox="0 0 83 209" fill="none" xmlns="http://www.w3.org/2000/svg">
<path d="M1 148H0.25C0.25 148.239 0.364239 148.464 0.557488 148.606L1 148ZM75 205C75 207.209 76.7909 209 79 209C81.2091 209 83 207.209 83 205C83 202.791 81.2091 201 79 201C76.7909 201 75 202.791 75 205ZM0.25 4.62587C0.25 5.04009 0.585786 5.37587 1 5.37587C1.41421 5.37587 1.75 5.04009 1.75 4.62587H0.25ZM1.75 9.78322C1.75 9.369 1.41421 9.03322 1 9.03322C0.585786 9.03322 0.25 9.369 0.25 9.78322H1.75ZM0.25 18.035C0.25 18.4492 0.585786 18.785 1 18.785C1.41421 18.785 1.75 18.4492 1.75 18.035H0.25ZM1.75 23.1923C1.75 22.7781 1.41421 22.4423 1 22.4423C0.585786 22.4423 0.25 22.7781 0.25 23.1923H1.75ZM0.25 31.4441C0.25 31.8583 0.585786 32.1941 1 32.1941C1.41421 32.1941 1.75 31.8583 1.75 31.4441H0.25ZM1.75 36.6014C1.75 36.1872 1.41421 35.8514 1 35.8514C0.585786 35.8514 0.25 36.1872 0.25 36.6014H1.75ZM0.25 44.8531C0.25 45.2674 0.585786 45.6031 1 45.6031C1.41421 45.6031 1.75 45.2674 1.75 44.8531H0.25ZM1.75 50.0105C1.75 49.5963 1.41421 49.2605 1 49.2605C0.585786 49.2605 0.25 49.5963 0.25 50.0105H1.75ZM0.25 58.2622C0.25 58.6764 0.585786 59.0122 1 59.0122C1.41421 59.0122 1.75 58.6764 1.75 58.2622H0.25ZM1.75 63.4196C1.75 63.0054 1.41421 62.6696 1 62.6696C0.585786 62.6696 0.25 63.0054 0.25 63.4196H1.75ZM0.25 71.6713C0.25 72.0855 0.585786 72.4213 1 72.4213C1.41421 72.4213 1.75 72.0855 1.75 71.6713H0.25ZM1.75 76.8287C1.75 76.4145 1.41421 76.0787 1 76.0787C0.585786 76.0787 0.25 76.4145 0.25 76.8287H1.75ZM0.25 85.0804C0.25 85.4946 0.585786 85.8304 1 85.8304C1.41421 85.8304 1.75 85.4946 1.75 85.0804H0.25ZM1.75 90.2378C1.75 89.8235 1.41421 89.4878 1 89.4878C0.585786 89.4878 0.25 89.8235 0.25 90.2378H1.75ZM0.25 98.4895C0.25 98.9037 0.585786 99.2395 1 99.2395C1.41421 99.2395 1.75 98.9037 1.75 98.4895H0.25ZM1.75 103.647C1.75 103.233 1.41421 102.897 1 102.897C0.585786 102.897 0.25 103.233 0.25 103.647H1.75ZM0.25 111.899C0.25 112.313 0.585786 112.649 1 112.649C1.41421 112.649 1.75 112.313 1.75 111.899H0.25ZM1.75 117.056C1.75 116.642 1.41421 116.306 1 116.306C0.585786 116.306 0.25 116.642 0.25 117.056H1.75ZM0.25 125.308C0.25 125.722 0.585786 126.058 1 126.058C1.41421 126.058 1.75 125.722 1.75 125.308H0.25ZM1.75 130.465C1.75 130.051 1.41421 129.715 1 129.715C0.585786 129.715 0.25 130.051 0.25 130.465H1.75ZM0.25 138.717C0.25 139.131 0.585786 139.467 1 139.467C1.41421 139.467 1.75 139.131 1.75 138.717H0.25ZM1.75 143.874C1.75 143.46 1.41421 143.124 1 143.124C0.585786 143.124 0.25 143.46 0.25 143.874H1.75ZM3.98606 151.111C4.32049 151.355 4.78972 151.282 5.03411 150.948C5.27851 150.614 5.20552 150.144 4.87108 149.9L3.98606 151.111ZM9.1568 153.032C8.82237 152.787 8.35313 152.86 8.10874 153.195C7.86435 153.529 7.93734 153.999 8.27177 154.243L9.1568 153.032ZM15.1289 159.254C15.4633 159.498 15.9326 159.425 16.177 159.091C16.4214 158.756 16.3484 158.287 16.0139 158.043L15.1289 159.254ZM20.2997 161.175C19.9652 160.93 19.496 161.003 19.2516 161.338C19.0072 161.672 19.0802 162.141 19.4146 162.386L20.2997 161.175ZM26.2718 167.397C26.6062 167.641 27.0754 167.568 27.3198 167.234C27.5642 166.899 27.4912 166.43 27.1568 166.186L26.2718 167.397ZM31.4425 169.318C31.1081 169.073 30.6388 169.146 30.3945 169.481C30.1501 169.815 30.2231 170.284 30.5575 170.529L31.4425 169.318ZM37.4146 175.54C37.7491 175.784 38.2183 175.711 38.4627 175.377C38.7071 175.042 38.6341 174.573 38.2997 174.329L37.4146 175.54ZM42.5854 177.46C42.2509 177.216 41.7817 177.289 41.5373 177.623C41.2929 177.958 41.3659 178.427 41.7003 178.671L42.5854 177.46ZM48.5575 183.682C48.8919 183.927 49.3611 183.854 49.6055 183.519C49.8499 183.185 49.7769 182.716 49.4425 182.471L48.5575 183.682ZM53.7282 185.603C53.3938 185.359 52.9246 185.432 52.6802 185.766C52.4358 186.101 52.5088 186.57 52.8432 186.814L53.7282 185.603ZM59.7003 191.825C60.0348 192.07 60.504 191.997 60.7484 191.662C60.9928 191.328 60.9198 190.859 60.5854 190.614L59.7003 191.825ZM64.8711 193.746C64.5367 193.502 64.0674 193.575 63.823 193.909C63.5786 194.244 63.6516 194.713 63.9861 194.957L64.8711 193.746ZM70.8432 199.968C71.1776 200.213 71.6469 200.14 71.8913 199.805C72.1357 199.471 72.0627 199.001 71.7282 198.757L70.8432 199.968ZM76.0139 201.889C75.6795 201.645 75.2103 201.718 74.9659 202.052C74.7215 202.386 74.7945 202.856 75.1289 203.1L76.0139 201.889ZM0.25 0.5V4.62587H1.75V0.5H0.25ZM0.25 9.78322V18.035H1.75V9.78322H0.25ZM0.25 23.1923V31.4441H1.75V23.1923H0.25ZM0.25 36.6014V44.8531H1.75V36.6014H0.25ZM0.25 50.0105V58.2622H1.75V50.0105H0.25ZM0.25 63.4196V71.6713H1.75V63.4196H0.25ZM0.25 76.8287V85.0804H1.75V76.8287H0.25ZM0.25 90.2378V98.4895H1.75V90.2378H0.25ZM0.25 103.647V111.899H1.75V103.647H0.25ZM0.25 117.056V125.308H1.75V117.056H0.25ZM0.25 130.465V138.717H1.75V130.465H0.25ZM0.25 143.874V148H1.75V143.874H0.25ZM0.557488 148.606L3.98606 151.111L4.87108 149.9L1.44251 147.394L0.557488 148.606ZM8.27177 154.243L15.1289 159.254L16.0139 158.043L9.1568 153.032L8.27177 154.243ZM19.4146 162.386L26.2718 167.397L27.1568 166.186L20.2997 161.175L19.4146 162.386ZM30.5575 170.529L37.4146 175.54L38.2997 174.329L31.4425 169.318L30.5575 170.529ZM41.7003 178.671L48.5575 183.682L49.4425 182.471L42.5854 177.46L41.7003 178.671ZM52.8432 186.814L59.7003 191.825L60.5854 190.614L53.7282 185.603L52.8432 186.814ZM63.9861 194.957L70.8432 199.968L71.7282 198.757L64.8711 193.746L63.9861 194.957ZM75.1289 203.1L78.5575 205.606L79.4425 204.394L76.0139 201.889L75.1289 203.1Z" fill="white" fill-opacity="0.27"/>
</svg>
