<svg width="47" height="201" viewBox="0 0 47 201" fill="none" xmlns="http://www.w3.org/2000/svg">
<path d="M45.5 42L46.0065 41.4469C46.1616 41.5889 46.25 41.7896 46.25 42H45.5ZM8 4C8 6.20914 6.20914 8 4 8C1.79086 8 0 6.20914 0 4C0 1.79086 1.79086 0 4 0C6.20914 0 8 1.79086 8 4ZM44.75 196.436C44.75 196.022 45.0858 195.686 45.5 195.686C45.9142 195.686 46.25 196.022 46.25 196.436H44.75ZM46.25 191.356C46.25 191.77 45.9142 192.106 45.5 192.106C45.0858 192.106 44.75 191.77 44.75 191.356H46.25ZM44.75 183.228C44.75 182.813 45.0858 182.478 45.5 182.478C45.9142 182.478 46.25 182.813 46.25 183.228H44.75ZM46.25 178.147C46.25 178.562 45.9142 178.897 45.5 178.897C45.0858 178.897 44.75 178.562 44.75 178.147H46.25ZM44.75 170.019C44.75 169.605 45.0858 169.269 45.5 169.269C45.9142 169.269 46.25 169.605 46.25 170.019H44.75ZM46.25 164.939C46.25 165.353 45.9142 165.689 45.5 165.689C45.0858 165.689 44.75 165.353 44.75 164.939H46.25ZM44.75 156.811C44.75 156.397 45.0858 156.061 45.5 156.061C45.9142 156.061 46.25 156.397 46.25 156.811H44.75ZM46.25 151.731C46.25 152.145 45.9142 152.481 45.5 152.481C45.0858 152.481 44.75 152.145 44.75 151.731H46.25ZM44.75 143.603C44.75 143.188 45.0858 142.853 45.5 142.853C45.9142 142.853 46.25 143.188 46.25 143.603H44.75ZM46.25 138.522C46.25 138.937 45.9142 139.272 45.5 139.272C45.0858 139.272 44.75 138.937 44.75 138.522H46.25ZM44.75 130.394C44.75 129.98 45.0858 129.644 45.5 129.644C45.9142 129.644 46.25 129.98 46.25 130.394H44.75ZM46.25 125.314C46.25 125.728 45.9142 126.064 45.5 126.064C45.0858 126.064 44.75 125.728 44.75 125.314H46.25ZM44.75 117.186C44.75 116.772 45.0858 116.436 45.5 116.436C45.9142 116.436 46.25 116.772 46.25 117.186H44.75ZM46.25 112.106C46.25 112.52 45.9142 112.856 45.5 112.856C45.0858 112.856 44.75 112.52 44.75 112.106H46.25ZM44.75 103.978C44.75 103.563 45.0858 103.228 45.5 103.228C45.9142 103.228 46.25 103.563 46.25 103.978H44.75ZM46.25 98.8974C46.25 99.3116 45.9142 99.6474 45.5 99.6474C45.0858 99.6474 44.75 99.3116 44.75 98.8974H46.25ZM44.75 90.7692C44.75 90.355 45.0858 90.0192 45.5 90.0192C45.9142 90.0192 46.25 90.355 46.25 90.7692H44.75ZM46.25 85.6891C46.25 86.1033 45.9142 86.4391 45.5 86.4391C45.0858 86.4391 44.75 86.1033 44.75 85.6891H46.25ZM44.75 77.5609C44.75 77.1467 45.0858 76.8109 45.5 76.8109C45.9142 76.8109 46.25 77.1467 46.25 77.5609H44.75ZM46.25 72.4808C46.25 72.895 45.9142 73.2308 45.5 73.2308C45.0858 73.2308 44.75 72.895 44.75 72.4808H46.25ZM44.75 64.3526C44.75 63.9383 45.0858 63.6026 45.5 63.6026C45.9142 63.6026 46.25 63.9383 46.25 64.3526H44.75ZM46.25 59.2724C46.25 59.6866 45.9142 60.0224 45.5 60.0224C45.0858 60.0224 44.75 59.6866 44.75 59.2724H46.25ZM44.75 51.1442C44.75 50.73 45.0858 50.3942 45.5 50.3942C45.9142 50.3942 46.25 50.73 46.25 51.1442H44.75ZM46.25 46.0641C46.25 46.4783 45.9142 46.8141 45.5 46.8141C45.0858 46.8141 44.75 46.4783 44.75 46.0641H46.25ZM41.8012 39.6301C41.4957 39.3503 41.4748 38.8759 41.7546 38.5704C42.0343 38.2649 42.5087 38.2441 42.8142 38.5238L41.8012 39.6301ZM38.8238 34.8699C39.1293 35.1497 39.1502 35.6241 38.8705 35.9296C38.5907 36.2351 38.1163 36.2559 37.8108 35.9762L38.8238 34.8699ZM31.4262 30.1301C31.1207 29.8503 31.0998 29.3759 31.3795 29.0704C31.6593 28.7649 32.1337 28.7441 32.4392 29.0238L31.4262 30.1301ZM28.4488 25.3699C28.7543 25.6497 28.7752 26.1241 28.4954 26.4296C28.2157 26.7351 27.7413 26.7559 27.4358 26.4762L28.4488 25.3699ZM21.0512 20.6301C20.7457 20.3503 20.7248 19.8759 21.0046 19.5704C21.2843 19.2649 21.7587 19.2441 22.0642 19.5238L21.0512 20.6301ZM18.0738 15.8699C18.3793 16.1497 18.4002 16.6241 18.1204 16.9296C17.8407 17.2351 17.3663 17.2559 17.0608 16.9762L18.0738 15.8699ZM10.6762 11.1301C10.3707 10.8503 10.3498 10.3759 10.6296 10.0704C10.9093 9.76494 11.3837 9.74405 11.6892 10.0238L10.6762 11.1301ZM7.6988 6.36993C8.00429 6.64966 8.02518 7.12408 7.74545 7.42957C7.46572 7.73506 6.99131 7.75595 6.68582 7.47622L7.6988 6.36993ZM44.75 200.5V196.436H46.25V200.5H44.75ZM44.75 191.356V183.228H46.25V191.356H44.75ZM44.75 178.147V170.019H46.25V178.147H44.75ZM44.75 164.939V156.811H46.25V164.939H44.75ZM44.75 151.731V143.603H46.25V151.731H44.75ZM44.75 138.522V130.394H46.25V138.522H44.75ZM44.75 125.314V117.186H46.25V125.314H44.75ZM44.75 112.106V103.978H46.25V112.106H44.75ZM44.75 98.8974V90.7692H46.25V98.8974H44.75ZM44.75 85.6891V77.5609H46.25V85.6891H44.75ZM44.75 72.4808V64.3526H46.25V72.4808H44.75ZM44.75 59.2724V51.1442H46.25V59.2724H44.75ZM44.75 46.0641V42H46.25V46.0641H44.75ZM44.9935 42.5531L41.8012 39.6301L42.8142 38.5238L46.0065 41.4469L44.9935 42.5531ZM37.8108 35.9762L31.4262 30.1301L32.4392 29.0238L38.8238 34.8699L37.8108 35.9762ZM27.4358 26.4762L21.0512 20.6301L22.0642 19.5238L28.4488 25.3699L27.4358 26.4762ZM17.0608 16.9762L10.6762 11.1301L11.6892 10.0238L18.0738 15.8699L17.0608 16.9762ZM6.68582 7.47622L3.49351 4.55314L4.50649 3.44686L7.6988 6.36993L6.68582 7.47622Z" fill="white" fill-opacity="0.27"/>
</svg>
