<svg width="141" height="85" viewBox="0 0 141 85" fill="none" xmlns="http://www.w3.org/2000/svg">
<path d="M80 1L80.6108 0.564794C80.4701 0.367275 80.2425 0.25 80 0.25V1ZM133 81C133 83.2091 134.791 85 137 85C139.209 85 141 83.2091 141 81C141 78.7909 139.209 77 137 77C134.791 77 133 78.7909 133 81ZM4.10256 1.75C4.51678 1.75 4.85256 1.41421 4.85256 1C4.85256 0.585786 4.51678 0.25 4.10256 0.25V1.75ZM9.23077 0.25C8.81656 0.25 8.48077 0.585786 8.48077 1C8.48077 1.41421 8.81656 1.75 9.23077 1.75V0.25ZM17.4359 1.75C17.8501 1.75 18.1859 1.41421 18.1859 1C18.1859 0.585786 17.8501 0.25 17.4359 0.25V1.75ZM22.5641 0.25C22.1499 0.25 21.8141 0.585786 21.8141 1C21.8141 1.41421 22.1499 1.75 22.5641 1.75V0.25ZM30.7692 1.75C31.1834 1.75 31.5192 1.41421 31.5192 1C31.5192 0.585786 31.1834 0.25 30.7692 0.25V1.75ZM35.8974 0.25C35.4832 0.25 35.1474 0.585786 35.1474 1C35.1474 1.41421 35.4832 1.75 35.8974 1.75V0.25ZM44.1026 1.75C44.5168 1.75 44.8526 1.41421 44.8526 1C44.8526 0.585786 44.5168 0.25 44.1026 0.25V1.75ZM49.2308 0.25C48.8166 0.25 48.4808 0.585786 48.4808 1C48.4808 1.41421 48.8166 1.75 49.2308 1.75V0.25ZM57.4359 1.75C57.8501 1.75 58.1859 1.41421 58.1859 1C58.1859 0.585786 57.8501 0.25 57.4359 0.25V1.75ZM62.5641 0.25C62.1499 0.25 61.8141 0.585786 61.8141 1C61.8141 1.41421 62.1499 1.75 62.5641 1.75V0.25ZM70.7692 1.75C71.1834 1.75 71.5192 1.41421 71.5192 1C71.5192 0.585786 71.1834 0.25 70.7692 0.25V1.75ZM75.8974 0.25C75.4832 0.25 75.1474 0.585786 75.1474 1C75.1474 1.41421 75.4832 1.75 75.8974 1.75V0.25ZM81.5815 4.51213C81.8219 4.84947 82.2902 4.9281 82.6275 4.68774C82.9649 4.44738 83.0435 3.97906 82.8031 3.64172L81.5815 4.51213ZM85.5435 7.48787C85.3031 7.15053 84.8348 7.0719 84.4975 7.31226C84.1601 7.55262 84.0815 8.02094 84.3219 8.35828L85.5435 7.48787ZM88.7065 14.5121C88.9468 14.8495 89.4152 14.9281 89.7525 14.6877C90.0899 14.4474 90.1685 13.9791 89.9281 13.6417L88.7065 14.5121ZM92.6685 17.4879C92.4282 17.1505 91.9598 17.0719 91.6225 17.3123C91.2851 17.5526 91.2065 18.0209 91.4469 18.3583L92.6685 17.4879ZM95.8315 24.5121C96.0719 24.8495 96.5402 24.9281 96.8775 24.6877C97.2149 24.4474 97.2935 23.9791 97.0531 23.6417L95.8315 24.5121ZM99.7935 27.4879C99.5532 27.1505 99.0848 27.0719 98.7475 27.3123C98.4101 27.5526 98.3315 28.0209 98.5719 28.3583L99.7935 27.4879ZM102.956 34.5121C103.197 34.8495 103.665 34.9281 104.003 34.6877C104.34 34.4474 104.418 33.9791 104.178 33.6417L102.956 34.5121ZM106.919 37.4879C106.678 37.1505 106.21 37.0719 105.872 37.3123C105.535 37.5526 105.457 38.0209 105.697 38.3583L106.919 37.4879ZM110.081 44.5121C110.322 44.8495 110.79 44.9281 111.128 44.6877C111.465 44.4474 111.543 43.9791 111.303 43.6417L110.081 44.5121ZM114.044 47.4879C113.803 47.1505 113.335 47.0719 112.997 47.3123C112.66 47.5526 112.582 48.0209 112.822 48.3583L114.044 47.4879ZM117.206 54.5121C117.447 54.8495 117.915 54.9281 118.253 54.6877C118.59 54.4474 118.668 53.9791 118.428 53.6417L117.206 54.5121ZM121.169 57.4879C120.928 57.1505 120.46 57.0719 120.122 57.3123C119.785 57.5526 119.707 58.0209 119.947 58.3583L121.169 57.4879ZM124.331 64.5121C124.572 64.8495 125.04 64.9281 125.378 64.6877C125.715 64.4474 125.793 63.9791 125.553 63.6417L124.331 64.5121ZM128.294 67.4879C128.053 67.1505 127.585 67.0719 127.247 67.3123C126.91 67.5526 126.832 68.0209 127.072 68.3583L128.294 67.4879ZM131.456 74.5121C131.697 74.8495 132.165 74.9281 132.503 74.6877C132.84 74.4474 132.918 73.9791 132.678 73.6417L131.456 74.5121ZM135.419 77.4879C135.178 77.1505 134.71 77.0719 134.372 77.3123C134.035 77.5526 133.957 78.0209 134.197 78.3583L135.419 77.4879ZM0 1.75H4.10256V0.25H0V1.75ZM9.23077 1.75H17.4359V0.25H9.23077V1.75ZM22.5641 1.75H30.7692V0.25H22.5641V1.75ZM35.8974 1.75H44.1026V0.25H35.8974V1.75ZM49.2308 1.75H57.4359V0.25H49.2308V1.75ZM62.5641 1.75H70.7692V0.25H62.5641V1.75ZM75.8974 1.75H80V0.25H75.8974V1.75ZM79.3892 1.43521L81.5815 4.51213L82.8031 3.64172L80.6108 0.564794L79.3892 1.43521ZM84.3219 8.35828L88.7065 14.5121L89.9281 13.6417L85.5435 7.48787L84.3219 8.35828ZM91.4469 18.3583L95.8315 24.5121L97.0531 23.6417L92.6685 17.4879L91.4469 18.3583ZM98.5719 28.3583L102.956 34.5121L104.178 33.6417L99.7935 27.4879L98.5719 28.3583ZM105.697 38.3583L110.081 44.5121L111.303 43.6417L106.919 37.4879L105.697 38.3583ZM112.822 48.3583L117.206 54.5121L118.428 53.6417L114.044 47.4879L112.822 48.3583ZM119.947 58.3583L124.331 64.5121L125.553 63.6417L121.169 57.4879L119.947 58.3583ZM127.072 68.3583L131.456 74.5121L132.678 73.6417L128.294 67.4879L127.072 68.3583ZM134.197 78.3583L136.389 81.4352L137.611 80.5648L135.419 77.4879L134.197 78.3583Z" fill="#3CA3C8"/>
</svg>
