<svg width="25" height="8" viewBox="0 0 25 8" fill="none" xmlns="http://www.w3.org/2000/svg">
<path d="M1 3.25C0.585786 3.25 0.25 3.58579 0.25 4C0.25 4.41421 0.585786 4.75 1 4.75V3.25ZM17 4C17 6.20914 18.7909 8 21 8C23.2091 8 25 6.20914 25 4C25 1.79086 23.2091 0 21 0C18.7909 0 17 1.79086 17 4ZM4.07692 4.75C4.49114 4.75 4.82692 4.41421 4.82692 4C4.82692 3.58579 4.49114 3.25 4.07692 3.25V4.75ZM7.92308 3.25C7.50886 3.25 7.17308 3.58579 7.17308 4C7.17308 4.41421 7.50886 4.75 7.92308 4.75V3.25ZM14.0769 4.75C14.4911 4.75 14.8269 4.41421 14.8269 4C14.8269 3.58579 14.4911 3.25 14.0769 3.25V4.75ZM17.9231 3.25C17.5089 3.25 17.1731 3.58579 17.1731 4C17.1731 4.41421 17.5089 4.75 17.9231 4.75V3.25ZM1 4.75H4.07692V3.25H1V4.75ZM7.92308 4.75H14.0769V3.25H7.92308V4.75ZM17.9231 4.75H21V3.25H17.9231V4.75Z" fill="#3CA3C8"/>
</svg>
