<svg width="125" height="46" viewBox="0 0 125 46" fill="none" xmlns="http://www.w3.org/2000/svg">
<path d="M80 45V45.75C80.1989 45.75 80.3897 45.671 80.5303 45.5303L80 45ZM116.5 4.5C116.5 6.70914 118.291 8.5 120.5 8.5C122.709 8.5 124.5 6.70914 124.5 4.5C124.5 2.29086 122.709 0.5 120.5 0.5C118.291 0.5 116.5 2.29086 116.5 4.5ZM4.10256 45.75C4.51678 45.75 4.85256 45.4142 4.85256 45C4.85256 44.5858 4.51678 44.25 4.10256 44.25V45.75ZM9.23077 44.25C8.81656 44.25 8.48077 44.5858 8.48077 45C8.48077 45.4142 8.81656 45.75 9.23077 45.75V44.25ZM17.4359 45.75C17.8501 45.75 18.1859 45.4142 18.1859 45C18.1859 44.5858 17.8501 44.25 17.4359 44.25V45.75ZM22.5641 44.25C22.1499 44.25 21.8141 44.5858 21.8141 45C21.8141 45.4142 22.1499 45.75 22.5641 45.75V44.25ZM30.7692 45.75C31.1834 45.75 31.5192 45.4142 31.5192 45C31.5192 44.5858 31.1834 44.25 30.7692 44.25V45.75ZM35.8974 44.25C35.4832 44.25 35.1474 44.5858 35.1474 45C35.1474 45.4142 35.4832 45.75 35.8974 45.75V44.25ZM44.1026 45.75C44.5168 45.75 44.8526 45.4142 44.8526 45C44.8526 44.5858 44.5168 44.25 44.1026 44.25V45.75ZM49.2308 44.25C48.8166 44.25 48.4808 44.5858 48.4808 45C48.4808 45.4142 48.8166 45.75 49.2308 45.75V44.25ZM57.4359 45.75C57.8501 45.75 58.1859 45.4142 58.1859 45C58.1859 44.5858 57.8501 44.25 57.4359 44.25V45.75ZM62.5641 44.25C62.1499 44.25 61.8141 44.5858 61.8141 45C61.8141 45.4142 62.1499 45.75 62.5641 45.75V44.25ZM70.7692 45.75C71.1834 45.75 71.5192 45.4142 71.5192 45C71.5192 44.5858 71.1834 44.25 70.7692 44.25V45.75ZM75.8974 44.25C75.4832 44.25 75.1474 44.5858 75.1474 45C75.1474 45.4142 75.4832 45.75 75.8974 45.75V44.25ZM83.6457 42.4149C83.9386 42.1221 83.9386 41.6472 83.6457 41.3543C83.3528 41.0614 82.8779 41.0614 82.5851 41.3543L83.6457 42.4149ZM86.4793 37.4601C86.1864 37.7529 86.1864 38.2278 86.4793 38.5207C86.7722 38.8136 87.2471 38.8136 87.5399 38.5207L86.4793 37.4601ZM93.7707 32.2899C94.0636 31.9971 94.0636 31.5222 93.7707 31.2293C93.4778 30.9364 93.0029 30.9364 92.7101 31.2293L93.7707 32.2899ZM96.6043 27.3351C96.3114 27.6279 96.3114 28.1028 96.6043 28.3957C96.8972 28.6886 97.3721 28.6886 97.6649 28.3957L96.6043 27.3351ZM103.896 22.1649C104.189 21.8721 104.189 21.3972 103.896 21.1043C103.603 20.8114 103.128 20.8114 102.835 21.1043L103.896 22.1649ZM106.729 17.2101C106.436 17.5029 106.436 17.9778 106.729 18.2707C107.022 18.5636 107.497 18.5636 107.79 18.2707L106.729 17.2101ZM114.021 12.0399C114.314 11.7471 114.314 11.2722 114.021 10.9793C113.728 10.6864 113.253 10.6864 112.96 10.9793L114.021 12.0399ZM116.854 7.08505C116.561 7.37795 116.561 7.85282 116.854 8.14571C117.147 8.43861 117.622 8.43861 117.915 8.14571L116.854 7.08505ZM0 45.75H4.10256V44.25H0V45.75ZM9.23077 45.75H17.4359V44.25H9.23077V45.75ZM22.5641 45.75H30.7692V44.25H22.5641V45.75ZM35.8974 45.75H44.1026V44.25H35.8974V45.75ZM49.2308 45.75H57.4359V44.25H49.2308V45.75ZM62.5641 45.75H70.7692V44.25H62.5641V45.75ZM75.8974 45.75H80V44.25H75.8974V45.75ZM80.5303 45.5303L83.6457 42.4149L82.5851 41.3543L79.4697 44.4697L80.5303 45.5303ZM87.5399 38.5207L93.7707 32.2899L92.7101 31.2293L86.4793 37.4601L87.5399 38.5207ZM97.6649 28.3957L103.896 22.1649L102.835 21.1043L96.6043 27.3351L97.6649 28.3957ZM107.79 18.2707L114.021 12.0399L112.96 10.9793L106.729 17.2101L107.79 18.2707ZM117.915 8.14571L121.03 5.03033L119.97 3.96967L116.854 7.08505L117.915 8.14571Z" fill="#3CA3C8"/>
</svg>
