<svg width="107" height="95" viewBox="0 0 107 95" fill="none" xmlns="http://www.w3.org/2000/svg">
<path d="M57 1L56.3547 0.617846C56.4897 0.389835 56.735 0.25 57 0.25V1ZM8 90.5C8 92.7091 6.20914 94.5 4 94.5C1.79086 94.5 0 92.7091 0 90.5C0 88.2909 1.79086 86.5 4 86.5C6.20914 86.5 8 88.2909 8 90.5ZM103.154 1.75C102.74 1.75 102.404 1.41421 102.404 1C102.404 0.585786 102.74 0.25 103.154 0.25V1.75ZM98.3462 0.25C98.7604 0.25 99.0962 0.585786 99.0962 1C99.0962 1.41421 98.7604 1.75 98.3462 1.75V0.25ZM90.6538 1.75C90.2396 1.75 89.9038 1.41421 89.9038 1C89.9038 0.585786 90.2396 0.25 90.6538 0.25V1.75ZM85.8462 0.25C86.2604 0.25 86.5962 0.585786 86.5962 1C86.5962 1.41421 86.2604 1.75 85.8462 1.75V0.25ZM78.1538 1.75C77.7396 1.75 77.4038 1.41421 77.4038 1C77.4038 0.585786 77.7396 0.25 78.1538 0.25V1.75ZM73.3462 0.25C73.7604 0.25 74.0962 0.585786 74.0962 1C74.0962 1.41421 73.7604 1.75 73.3462 1.75V0.25ZM65.6538 1.75C65.2396 1.75 64.9038 1.41421 64.9038 1C64.9038 0.585786 65.2396 0.25 65.6538 0.25V1.75ZM60.8462 0.25C61.2604 0.25 61.5962 0.585786 61.5962 1C61.5962 1.41421 61.2604 1.75 60.8462 1.75V0.25ZM55.6069 4.82446C55.3958 5.18087 54.9358 5.2987 54.5794 5.08764C54.223 4.87659 54.1051 4.41656 54.3162 4.06015L55.6069 4.82446ZM51.7681 8.36304C51.9792 8.00663 52.4392 7.8888 52.7956 8.09986C53.152 8.31091 53.2699 8.77094 53.0588 9.12735L51.7681 8.36304ZM48.9819 16.012C48.7708 16.3684 48.3108 16.4862 47.9544 16.2751C47.598 16.0641 47.4801 15.6041 47.6912 15.2477L48.9819 16.012ZM45.1431 19.5505C45.3542 19.1941 45.8142 19.0763 46.1706 19.2874C46.527 19.4984 46.6449 19.9584 46.4338 20.3148L45.1431 19.5505ZM42.3569 27.1995C42.1458 27.5559 41.6858 27.6737 41.3294 27.4626C40.973 27.2516 40.8551 26.7916 41.0662 26.4352L42.3569 27.1995ZM38.5181 30.738C38.7292 30.3816 39.1892 30.2638 39.5456 30.4749C39.902 30.6859 40.0199 31.1459 39.8088 31.5023L38.5181 30.738ZM35.7319 38.387C35.5208 38.7434 35.0608 38.8612 34.7044 38.6501C34.348 38.4391 34.2301 37.9791 34.4412 37.6227L35.7319 38.387ZM31.8931 41.9255C32.1042 41.5691 32.5642 41.4513 32.9206 41.6624C33.277 41.8734 33.3949 42.3334 33.1838 42.6898L31.8931 41.9255ZM29.1069 49.5745C28.8958 49.9309 28.4358 50.0487 28.0794 49.8376C27.723 49.6266 27.6051 49.1666 27.8162 48.8102L29.1069 49.5745ZM25.2681 53.113C25.4792 52.7566 25.9392 52.6388 26.2956 52.8499C26.652 53.0609 26.7699 53.5209 26.5588 53.8773L25.2681 53.113ZM22.4819 60.762C22.2708 61.1184 21.8108 61.2362 21.4544 61.0251C21.098 60.8141 20.9801 60.3541 21.1912 59.9977L22.4819 60.762ZM18.6431 64.3005C18.8542 63.9441 19.3142 63.8263 19.6706 64.0373C20.027 64.2484 20.1449 64.7084 19.9338 65.0648L18.6431 64.3005ZM15.8569 71.9495C15.6458 72.3059 15.1858 72.4237 14.8294 72.2126C14.473 72.0016 14.3551 71.5416 14.5662 71.1852L15.8569 71.9495ZM12.0181 75.488C12.2292 75.1316 12.6892 75.0138 13.0456 75.2248C13.402 75.4359 13.5199 75.8959 13.3088 76.2523L12.0181 75.488ZM9.23187 83.137C9.02082 83.4934 8.5608 83.6112 8.20438 83.4001C7.84798 83.1891 7.73015 82.7291 7.94121 82.3727L9.23187 83.137ZM5.39313 86.6755C5.60419 86.3191 6.06421 86.2013 6.42062 86.4123C6.77703 86.6234 6.89486 87.0834 6.6838 87.4398L5.39313 86.6755ZM107 1.75H103.154V0.25H107V1.75ZM98.3462 1.75H90.6538V0.25H98.3462V1.75ZM85.8462 1.75H78.1538V0.25H85.8462V1.75ZM73.3462 1.75H65.6538V0.25H73.3462V1.75ZM60.8462 1.75H57V0.25H60.8462V1.75ZM57.6453 1.38215L55.6069 4.82446L54.3162 4.06015L56.3547 0.617846L57.6453 1.38215ZM53.0588 9.12735L48.9819 16.012L47.6912 15.2477L51.7681 8.36304L53.0588 9.12735ZM46.4338 20.3148L42.3569 27.1995L41.0662 26.4352L45.1431 19.5505L46.4338 20.3148ZM39.8088 31.5023L35.7319 38.387L34.4412 37.6227L38.5181 30.738L39.8088 31.5023ZM33.1838 42.6898L29.1069 49.5745L27.8162 48.8102L31.8931 41.9255L33.1838 42.6898ZM26.5588 53.8773L22.4819 60.762L21.1912 59.9977L25.2681 53.113L26.5588 53.8773ZM19.9338 65.0648L15.8569 71.9495L14.5662 71.1852L18.6431 64.3005L19.9338 65.0648ZM13.3088 76.2523L9.23187 83.137L7.94121 82.3727L12.0181 75.488L13.3088 76.2523ZM6.6838 87.4398L4.64533 90.8822L3.35467 90.1178L5.39313 86.6755L6.6838 87.4398Z" fill="#3CA3C8"/>
</svg>
