<svg width="54" height="40" viewBox="0 0 54 40" fill="none" xmlns="http://www.w3.org/2000/svg">
<path d="M24 1L23.3511 0.623852C23.4853 0.392448 23.7325 0.25 24 0.25V1ZM8 35.5C8 37.7091 6.20914 39.5 4 39.5C1.79086 39.5 0 37.7091 0 35.5C0 33.2909 1.79086 31.5 4 31.5C6.20914 31.5 8 33.2909 8 35.5ZM49.3846 1.75C48.9704 1.75 48.6346 1.41421 48.6346 1C48.6346 0.585786 48.9704 0.25 49.3846 0.25V1.75ZM43.6154 0.25C44.0296 0.25 44.3654 0.585786 44.3654 1C44.3654 1.41421 44.0296 1.75 43.6154 1.75V0.25ZM34.3846 1.75C33.9704 1.75 33.6346 1.41421 33.6346 1C33.6346 0.585786 33.9704 0.25 34.3846 0.25V1.75ZM28.6154 0.25C29.0296 0.25 29.3654 0.585786 29.3654 1C29.3654 1.41421 29.0296 1.75 28.6154 1.75V0.25ZM22.5976 4.91461C22.3898 5.27296 21.9309 5.39506 21.5726 5.18732C21.2142 4.97958 21.0921 4.52067 21.2999 4.16231L22.5976 4.91461ZM18.7358 8.58539C18.9435 8.22704 19.4024 8.10494 19.7608 8.31268C20.1191 8.52042 20.2412 8.97933 20.0335 9.33769L18.7358 8.58539ZM15.9309 16.4146C15.7232 16.773 15.2643 16.8951 14.9059 16.6873C14.5476 16.4796 14.4255 16.0207 14.6332 15.6623L15.9309 16.4146ZM12.0691 20.0854C12.2768 19.727 12.7357 19.6049 13.0941 19.8127C13.4524 20.0204 13.5745 20.4793 13.3668 20.8377L12.0691 20.0854ZM9.26424 27.9146C9.0565 28.273 8.59759 28.3951 8.23923 28.1873C7.88088 27.9796 7.75879 27.5207 7.96653 27.1623L9.26424 27.9146ZM5.40243 31.5854C5.61017 31.227 6.06908 31.1049 6.42743 31.3127C6.78578 31.5204 6.90788 31.9793 6.70014 32.3377L5.40243 31.5854ZM54 1.75H49.3846V0.25H54V1.75ZM43.6154 1.75H34.3846V0.25H43.6154V1.75ZM28.6154 1.75H24V0.25H28.6154V1.75ZM24.6489 1.37615L22.5976 4.91461L21.2999 4.16231L23.3511 0.623852L24.6489 1.37615ZM20.0335 9.33769L15.9309 16.4146L14.6332 15.6623L18.7358 8.58539L20.0335 9.33769ZM13.3668 20.8377L9.26424 27.9146L7.96653 27.1623L12.0691 20.0854L13.3668 20.8377ZM6.70014 32.3377L4.64885 35.8761L3.35115 35.1239L5.40243 31.5854L6.70014 32.3377Z" fill="#3CA3C8"/>
</svg>
