<svg width="105" height="46" viewBox="0 0 105 46" fill="none" xmlns="http://www.w3.org/2000/svg">
<path d="M58 45V45.75C57.8362 45.75 57.6769 45.6964 57.5465 45.5973L58 45ZM8 4C8 6.20914 6.20914 8 4 8C1.79086 8 0 6.20914 0 4C0 1.79086 1.79086 0 4 0C6.20914 0 8 1.79086 8 4ZM101.385 45.75C100.97 45.75 100.635 45.4142 100.635 45C100.635 44.5858 100.97 44.25 101.385 44.25V45.75ZM96.8654 44.25C97.2796 44.25 97.6154 44.5858 97.6154 45C97.6154 45.4142 97.2796 45.75 96.8654 45.75V44.25ZM89.6346 45.75C89.2204 45.75 88.8846 45.4142 88.8846 45C88.8846 44.5858 89.2204 44.25 89.6346 44.25V45.75ZM85.1154 44.25C85.5296 44.25 85.8654 44.5858 85.8654 45C85.8654 45.4142 85.5296 45.75 85.1154 45.75V44.25ZM77.8846 45.75C77.4704 45.75 77.1346 45.4142 77.1346 45C77.1346 44.5858 77.4704 44.25 77.8846 44.25V45.75ZM73.3654 44.25C73.7796 44.25 74.1154 44.5858 74.1154 45C74.1154 45.4142 73.7796 45.75 73.3654 45.75V44.25ZM66.1346 45.75C65.7204 45.75 65.3846 45.4142 65.3846 45C65.3846 44.5858 65.7204 44.25 66.1346 44.25V45.75ZM61.6154 44.25C62.0296 44.25 62.3654 44.5858 62.3654 45C62.3654 45.4142 62.0296 45.75 61.6154 45.75V44.25ZM54.2234 43.0743C53.8935 42.8238 53.8291 42.3533 54.0796 42.0234C54.3301 41.6935 54.8006 41.6291 55.1305 41.8796L54.2234 43.0743ZM50.9766 38.7257C51.3065 38.9762 51.3709 39.4467 51.1204 39.7766C50.8699 40.1065 50.3994 40.1709 50.0695 39.9204L50.9766 38.7257ZM43.4234 34.8743C43.0935 34.6238 43.0291 34.1533 43.2796 33.8234C43.5301 33.4935 44.0006 33.4291 44.3305 33.6796L43.4234 34.8743ZM40.1766 30.5257C40.5065 30.7762 40.5709 31.2467 40.3204 31.5766C40.0699 31.9065 39.5994 31.9709 39.2695 31.7204L40.1766 30.5257ZM32.6234 26.6743C32.2935 26.4238 32.2291 25.9533 32.4796 25.6234C32.7301 25.2935 33.2006 25.2291 33.5305 25.4796L32.6234 26.6743ZM29.3766 22.3257C29.7065 22.5762 29.7709 23.0467 29.5204 23.3766C29.2699 23.7065 28.7994 23.7709 28.4695 23.5204L29.3766 22.3257ZM21.8234 18.4743C21.4935 18.2238 21.4291 17.7533 21.6796 17.4234C21.9301 17.0935 22.4006 17.0291 22.7305 17.2796L21.8234 18.4743ZM18.5766 14.1257C18.9065 14.3762 18.9709 14.8467 18.7204 15.1766C18.4699 15.5065 17.9994 15.5709 17.6695 15.3204L18.5766 14.1257ZM11.0234 10.2743C10.6935 10.0238 10.6291 9.55329 10.8796 9.22339C11.1301 8.89349 11.6006 8.82911 11.9305 9.07959L11.0234 10.2743ZM7.77661 5.92575C8.10651 6.17623 8.1709 6.64671 7.92042 6.97661C7.66994 7.30651 7.19945 7.3709 6.86955 7.12042L7.77661 5.92575ZM105 45.75H101.385V44.25H105V45.75ZM96.8654 45.75H89.6346V44.25H96.8654V45.75ZM85.1154 45.75H77.8846V44.25H85.1154V45.75ZM73.3654 45.75H66.1346V44.25H73.3654V45.75ZM61.6154 45.75H58V44.25H61.6154V45.75ZM57.5465 45.5973L54.2234 43.0743L55.1305 41.8796L58.4535 44.4027L57.5465 45.5973ZM50.0695 39.9204L43.4234 34.8743L44.3305 33.6796L50.9766 38.7257L50.0695 39.9204ZM39.2695 31.7204L32.6234 26.6743L33.5305 25.4796L40.1766 30.5257L39.2695 31.7204ZM28.4695 23.5204L21.8234 18.4743L22.7305 17.2796L29.3766 22.3257L28.4695 23.5204ZM17.6695 15.3204L11.0234 10.2743L11.9305 9.07959L18.5766 14.1257L17.6695 15.3204ZM6.86955 7.12042L3.54647 4.59733L4.45353 3.40267L7.77661 5.92575L6.86955 7.12042Z" fill="#3CA3C8"/>
</svg>
