<svg width="114" height="337" viewBox="0 0 114 337" fill="none" xmlns="http://www.w3.org/2000/svg">
<path d="M1 255.5H0.25C0.25 255.744 0.368307 255.972 0.567267 256.113L1 255.5ZM106 332.5C106 334.709 107.791 336.5 110 336.5C112.209 336.5 114 334.709 114 332.5C114 330.291 112.209 328.5 110 328.5C107.791 328.5 106 330.291 106 332.5ZM0.25 3.93077C0.25 4.34498 0.585786 4.68077 1 4.68077C1.41421 4.68077 1.75 4.34498 1.75 3.93077H0.25ZM1.75 8.84423C1.75 8.43002 1.41421 8.09423 1 8.09423C0.585786 8.09423 0.25 8.43002 0.25 8.84423H1.75ZM0.25 16.7058C0.25 17.12 0.585786 17.4558 1 17.4558C1.41421 17.4558 1.75 17.12 1.75 16.7058H0.25ZM1.75 21.6192C1.75 21.205 1.41421 20.8692 1 20.8692C0.585786 20.8692 0.25 21.205 0.25 21.6192H1.75ZM0.25 29.4808C0.25 29.895 0.585786 30.2308 1 30.2308C1.41421 30.2308 1.75 29.895 1.75 29.4808H0.25ZM1.75 34.3942C1.75 33.98 1.41421 33.6442 1 33.6442C0.585786 33.6442 0.25 33.98 0.25 34.3942H1.75ZM0.25 42.2558C0.25 42.67 0.585786 43.0058 1 43.0058C1.41421 43.0058 1.75 42.67 1.75 42.2558H0.25ZM1.75 47.1692C1.75 46.755 1.41421 46.4192 1 46.4192C0.585786 46.4192 0.25 46.755 0.25 47.1692H1.75ZM0.25 55.0308C0.25 55.445 0.585786 55.7808 1 55.7808C1.41421 55.7808 1.75 55.445 1.75 55.0308H0.25ZM1.75 59.9442C1.75 59.53 1.41421 59.1942 1 59.1942C0.585786 59.1942 0.25 59.53 0.25 59.9442H1.75ZM0.25 67.8058C0.25 68.22 0.585786 68.5558 1 68.5558C1.41421 68.5558 1.75 68.22 1.75 67.8058H0.25ZM1.75 72.7192C1.75 72.305 1.41421 71.9692 1 71.9692C0.585786 71.9692 0.25 72.305 0.25 72.7192H1.75ZM0.25 80.5808C0.25 80.995 0.585786 81.3308 1 81.3308C1.41421 81.3308 1.75 80.995 1.75 80.5808H0.25ZM1.75 85.4942C1.75 85.08 1.41421 84.7442 1 84.7442C0.585786 84.7442 0.25 85.08 0.25 85.4942H1.75ZM0.25 93.3558C0.25 93.77 0.585786 94.1058 1 94.1058C1.41421 94.1058 1.75 93.77 1.75 93.3558H0.25ZM1.75 98.2692C1.75 97.855 1.41421 97.5192 1 97.5192C0.585786 97.5192 0.25 97.855 0.25 98.2692H1.75ZM0.25 106.131C0.25 106.545 0.585786 106.881 1 106.881C1.41421 106.881 1.75 106.545 1.75 106.131H0.25ZM1.75 111.044C1.75 110.63 1.41421 110.294 1 110.294C0.585786 110.294 0.25 110.63 0.25 111.044H1.75ZM0.25 118.906C0.25 119.32 0.585786 119.656 1 119.656C1.41421 119.656 1.75 119.32 1.75 118.906H0.25ZM1.75 123.819C1.75 123.405 1.41421 123.069 1 123.069C0.585786 123.069 0.25 123.405 0.25 123.819H1.75ZM0.25 131.681C0.25 132.095 0.585786 132.431 1 132.431C1.41421 132.431 1.75 132.095 1.75 131.681H0.25ZM1.75 136.594C1.75 136.18 1.41421 135.844 1 135.844C0.585786 135.844 0.25 136.18 0.25 136.594H1.75ZM0.25 144.456C0.25 144.87 0.585786 145.206 1 145.206C1.41421 145.206 1.75 144.87 1.75 144.456H0.25ZM1.75 149.369C1.75 148.955 1.41421 148.619 1 148.619C0.585786 148.619 0.25 148.955 0.25 149.369H1.75ZM0.25 157.231C0.25 157.645 0.585786 157.981 1 157.981C1.41421 157.981 1.75 157.645 1.75 157.231H0.25ZM1.75 162.144C1.75 161.73 1.41421 161.394 1 161.394C0.585786 161.394 0.25 161.73 0.25 162.144H1.75ZM0.25 170.006C0.25 170.42 0.585786 170.756 1 170.756C1.41421 170.756 1.75 170.42 1.75 170.006H0.25ZM1.75 174.919C1.75 174.505 1.41421 174.169 1 174.169C0.585786 174.169 0.25 174.505 0.25 174.919H1.75ZM0.25 182.781C0.25 183.195 0.585786 183.531 1 183.531C1.41421 183.531 1.75 183.195 1.75 182.781H0.25ZM1.75 187.694C1.75 187.28 1.41421 186.944 1 186.944C0.585786 186.944 0.25 187.28 0.25 187.694H1.75ZM0.25 195.556C0.25 195.97 0.585786 196.306 1 196.306C1.41421 196.306 1.75 195.97 1.75 195.556H0.25ZM1.75 200.469C1.75 200.055 1.41421 199.719 1 199.719C0.585786 199.719 0.25 200.055 0.25 200.469H1.75ZM0.25 208.331C0.25 208.745 0.585786 209.081 1 209.081C1.41421 209.081 1.75 208.745 1.75 208.331H0.25ZM1.75 213.244C1.75 212.83 1.41421 212.494 1 212.494C0.585786 212.494 0.25 212.83 0.25 213.244H1.75ZM0.25 221.106C0.25 221.52 0.585786 221.856 1 221.856C1.41421 221.856 1.75 221.52 1.75 221.106H0.25ZM1.75 226.019C1.75 225.605 1.41421 225.269 1 225.269C0.585786 225.269 0.25 225.605 0.25 226.019H1.75ZM0.25 233.881C0.25 234.295 0.585786 234.631 1 234.631C1.41421 234.631 1.75 234.295 1.75 233.881H0.25ZM1.75 238.794C1.75 238.38 1.41421 238.044 1 238.044C0.585786 238.044 0.25 238.38 0.25 238.794H1.75ZM0.25 246.656C0.25 247.07 0.585786 247.406 1 247.406C1.41421 247.406 1.75 247.07 1.75 246.656H0.25ZM1.75 251.569C1.75 251.155 1.41421 250.819 1 250.819C0.585786 250.819 0.25 251.155 0.25 251.569H1.75ZM3.92111 258.482C4.25943 258.721 4.72742 258.64 4.96642 258.302C5.20541 257.964 5.12489 257.496 4.78658 257.257L3.92111 258.482ZM8.97889 260.218C8.64057 259.979 8.17257 260.06 7.93358 260.398C7.69459 260.736 7.77511 261.204 8.11342 261.443L8.97889 260.218ZM14.8211 266.182C15.1594 266.421 15.6274 266.34 15.8664 266.002C16.1054 265.664 16.0249 265.196 15.6866 264.957L14.8211 266.182ZM19.8789 267.918C19.5406 267.679 19.0726 267.76 18.8336 268.098C18.5946 268.436 18.6751 268.904 19.0134 269.143L19.8789 267.918ZM25.7211 273.882C26.0594 274.121 26.5274 274.04 26.7664 273.702C27.0054 273.364 26.9249 272.896 26.5866 272.657L25.7211 273.882ZM30.7789 275.618C30.4406 275.379 29.9726 275.46 29.7336 275.798C29.4946 276.136 29.5751 276.604 29.9134 276.843L30.7789 275.618ZM36.6211 281.582C36.9594 281.821 37.4274 281.74 37.6664 281.402C37.9054 281.064 37.8249 280.596 37.4866 280.357L36.6211 281.582ZM41.6789 283.318C41.3406 283.079 40.8726 283.16 40.6336 283.498C40.3946 283.836 40.4751 284.304 40.8134 284.543L41.6789 283.318ZM47.5211 289.282C47.8594 289.521 48.3274 289.44 48.5664 289.102C48.8054 288.764 48.7249 288.296 48.3866 288.057L47.5211 289.282ZM52.5789 291.018C52.2406 290.779 51.7726 290.86 51.5336 291.198C51.2946 291.536 51.3751 292.004 51.7134 292.243L52.5789 291.018ZM58.4211 296.982C58.7594 297.221 59.2274 297.14 59.4664 296.802C59.7054 296.464 59.6249 295.996 59.2866 295.757L58.4211 296.982ZM63.4789 298.718C63.1406 298.479 62.6726 298.56 62.4336 298.898C62.1946 299.236 62.2751 299.704 62.6134 299.943L63.4789 298.718ZM69.3211 304.682C69.6594 304.921 70.1274 304.84 70.3664 304.502C70.6054 304.164 70.5249 303.696 70.1866 303.457L69.3211 304.682ZM74.3789 306.418C74.0406 306.179 73.5726 306.26 73.3336 306.598C73.0946 306.936 73.1751 307.404 73.5134 307.643L74.3789 306.418ZM80.2211 312.382C80.5594 312.621 81.0274 312.54 81.2664 312.202C81.5054 311.864 81.4249 311.396 81.0866 311.157L80.2211 312.382ZM85.2789 314.118C84.9406 313.879 84.4726 313.96 84.2336 314.298C83.9946 314.636 84.0751 315.104 84.4134 315.343L85.2789 314.118ZM91.1211 320.082C91.4594 320.321 91.9274 320.24 92.1664 319.902C92.4054 319.564 92.3249 319.096 91.9866 318.857L91.1211 320.082ZM96.1789 321.818C95.8406 321.579 95.3726 321.66 95.1336 321.998C94.8946 322.336 94.9751 322.804 95.3134 323.043L96.1789 321.818ZM102.021 327.782C102.359 328.021 102.827 327.94 103.066 327.602C103.305 327.264 103.225 326.796 102.887 326.557L102.021 327.782ZM107.079 329.518C106.741 329.279 106.273 329.36 106.034 329.698C105.795 330.036 105.875 330.504 106.213 330.743L107.079 329.518ZM0.25 0V3.93077H1.75V0H0.25ZM0.25 8.84423V16.7058H1.75V8.84423H0.25ZM0.25 21.6192V29.4808H1.75V21.6192H0.25ZM0.25 34.3942V42.2558H1.75V34.3942H0.25ZM0.25 47.1692V55.0308H1.75V47.1692H0.25ZM0.25 59.9442V67.8058H1.75V59.9442H0.25ZM0.25 72.7192V80.5808H1.75V72.7192H0.25ZM0.25 85.4942V93.3558H1.75V85.4942H0.25ZM0.25 98.2692V106.131H1.75V98.2692H0.25ZM0.25 111.044V118.906H1.75V111.044H0.25ZM0.25 123.819V131.681H1.75V123.819H0.25ZM0.25 136.594V144.456H1.75V136.594H0.25ZM0.25 149.369V157.231H1.75V149.369H0.25ZM0.25 162.144V170.006H1.75V162.144H0.25ZM0.25 174.919V182.781H1.75V174.919H0.25ZM0.25 187.694V195.556H1.75V187.694H0.25ZM0.25 200.469V208.331H1.75V200.469H0.25ZM0.25 213.244V221.106H1.75V213.244H0.25ZM0.25 226.019V233.881H1.75V226.019H0.25ZM0.25 238.794V246.656H1.75V238.794H0.25ZM0.25 251.569V255.5H1.75V251.569H0.25ZM0.567267 256.113L3.92111 258.482L4.78658 257.257L1.43273 254.887L0.567267 256.113ZM8.11342 261.443L14.8211 266.182L15.6866 264.957L8.97889 260.218L8.11342 261.443ZM19.0134 269.143L25.7211 273.882L26.5866 272.657L19.8789 267.918L19.0134 269.143ZM29.9134 276.843L36.6211 281.582L37.4866 280.357L30.7789 275.618L29.9134 276.843ZM40.8134 284.543L47.5211 289.282L48.3866 288.057L41.6789 283.318L40.8134 284.543ZM51.7134 292.243L58.4211 296.982L59.2866 295.757L52.5789 291.018L51.7134 292.243ZM62.6134 299.943L69.3211 304.682L70.1866 303.457L63.4789 298.718L62.6134 299.943ZM73.5134 307.643L80.2211 312.382L81.0866 311.157L74.3789 306.418L73.5134 307.643ZM84.4134 315.343L91.1211 320.082L91.9866 318.857L85.2789 314.118L84.4134 315.343ZM95.3134 323.043L102.021 327.782L102.887 326.557L96.1789 321.818L95.3134 323.043ZM106.213 330.743L109.567 333.113L110.433 331.887L107.079 329.518L106.213 330.743Z" fill="#3CA3C8"/>
</svg>
