<svg width="74" height="448" viewBox="0 0 74 448" fill="none" xmlns="http://www.w3.org/2000/svg">
<path d="M73 53L73.75 53C73.75 52.7567 73.6319 52.5285 73.4334 52.3879L73 53ZM8.49998 4.50001C8.49998 2.29087 6.70912 0.500006 4.49998 0.500006C2.29085 0.500006 0.499984 2.29087 0.499984 4.50001C0.499984 6.70914 2.29085 8.50001 4.49998 8.50001C6.70912 8.50001 8.49998 6.70914 8.49998 4.50001ZM73.75 443.454C73.75 443.04 73.4142 442.704 73 442.704C72.5858 442.704 72.25 443.04 72.25 443.454L73.75 443.454ZM72.25 438.396C72.25 438.81 72.5858 439.146 73 439.146C73.4142 439.146 73.75 438.81 73.75 438.396L72.25 438.396ZM73.75 430.304C73.75 429.89 73.4142 429.554 73 429.554C72.5858 429.554 72.25 429.89 72.25 430.304L73.75 430.304ZM72.25 425.246C72.25 425.66 72.5858 425.996 73 425.996C73.4142 425.996 73.75 425.66 73.75 425.246L72.25 425.246ZM73.75 417.154C73.75 416.74 73.4142 416.404 73 416.404C72.5858 416.404 72.25 416.74 72.25 417.154L73.75 417.154ZM72.25 412.096C72.25 412.51 72.5858 412.846 73 412.846C73.4142 412.846 73.75 412.51 73.75 412.096L72.25 412.096ZM73.75 404.004C73.75 403.59 73.4142 403.254 73 403.254C72.5858 403.254 72.25 403.59 72.25 404.004L73.75 404.004ZM72.25 398.946C72.25 399.36 72.5858 399.696 73 399.696C73.4142 399.696 73.75 399.36 73.75 398.946L72.25 398.946ZM73.75 390.854C73.75 390.44 73.4142 390.104 73 390.104C72.5858 390.104 72.25 390.44 72.25 390.854L73.75 390.854ZM72.25 385.796C72.25 386.21 72.5858 386.546 73 386.546C73.4142 386.546 73.75 386.21 73.75 385.796L72.25 385.796ZM73.75 377.704C73.75 377.29 73.4142 376.954 73 376.954C72.5858 376.954 72.25 377.29 72.25 377.704L73.75 377.704ZM72.25 372.646C72.25 373.06 72.5858 373.396 73 373.396C73.4142 373.396 73.75 373.06 73.75 372.646L72.25 372.646ZM73.75 364.554C73.75 364.14 73.4142 363.804 73 363.804C72.5858 363.804 72.25 364.14 72.25 364.554L73.75 364.554ZM72.25 359.496C72.25 359.91 72.5858 360.246 73 360.246C73.4142 360.246 73.75 359.91 73.75 359.496L72.25 359.496ZM73.75 351.404C73.75 350.99 73.4142 350.654 73 350.654C72.5858 350.654 72.25 350.99 72.25 351.404L73.75 351.404ZM72.25 346.346C72.25 346.76 72.5858 347.096 73 347.096C73.4142 347.096 73.75 346.76 73.75 346.346L72.25 346.346ZM73.75 338.254C73.75 337.84 73.4142 337.504 73 337.504C72.5858 337.504 72.25 337.84 72.25 338.254L73.75 338.254ZM72.25 333.196C72.25 333.61 72.5858 333.946 73 333.946C73.4142 333.946 73.75 333.61 73.75 333.196L72.25 333.196ZM73.75 325.104C73.75 324.69 73.4142 324.354 73 324.354C72.5858 324.354 72.25 324.69 72.25 325.104L73.75 325.104ZM72.25 320.046C72.25 320.46 72.5858 320.796 73 320.796C73.4142 320.796 73.75 320.46 73.75 320.046L72.25 320.046ZM73.75 311.954C73.75 311.54 73.4142 311.204 73 311.204C72.5858 311.204 72.25 311.54 72.25 311.954L73.75 311.954ZM72.25 306.896C72.25 307.31 72.5858 307.646 73 307.646C73.4142 307.646 73.75 307.31 73.75 306.896L72.25 306.896ZM73.75 298.804C73.75 298.39 73.4142 298.054 73 298.054C72.5858 298.054 72.25 298.39 72.25 298.804L73.75 298.804ZM72.25 293.746C72.25 294.16 72.5858 294.496 73 294.496C73.4142 294.496 73.75 294.16 73.75 293.746L72.25 293.746ZM73.75 285.654C73.75 285.24 73.4142 284.904 73 284.904C72.5858 284.904 72.25 285.24 72.25 285.654L73.75 285.654ZM72.25 280.596C72.25 281.01 72.5858 281.346 73 281.346C73.4142 281.346 73.75 281.01 73.75 280.596L72.25 280.596ZM73.75 272.504C73.75 272.09 73.4142 271.754 73 271.754C72.5858 271.754 72.25 272.09 72.25 272.504L73.75 272.504ZM72.25 267.446C72.25 267.86 72.5858 268.196 73 268.196C73.4142 268.196 73.75 267.86 73.75 267.446L72.25 267.446ZM73.75 259.354C73.75 258.94 73.4142 258.604 73 258.604C72.5858 258.604 72.25 258.94 72.25 259.354L73.75 259.354ZM72.25 254.296C72.25 254.71 72.5858 255.046 73 255.046C73.4142 255.046 73.75 254.71 73.75 254.296L72.25 254.296ZM73.75 246.204C73.75 245.79 73.4142 245.454 73 245.454C72.5858 245.454 72.25 245.79 72.25 246.204L73.75 246.204ZM72.25 241.146C72.25 241.56 72.5858 241.896 73 241.896C73.4142 241.896 73.75 241.56 73.75 241.146L72.25 241.146ZM73.75 233.054C73.75 232.64 73.4142 232.304 73 232.304C72.5858 232.304 72.25 232.64 72.25 233.054L73.75 233.054ZM72.25 227.996C72.25 228.41 72.5858 228.746 73 228.746C73.4142 228.746 73.75 228.41 73.75 227.996L72.25 227.996ZM73.75 219.904C73.75 219.49 73.4142 219.154 73 219.154C72.5858 219.154 72.25 219.49 72.25 219.904L73.75 219.904ZM72.25 214.846C72.25 215.26 72.5858 215.596 73 215.596C73.4142 215.596 73.75 215.26 73.75 214.846L72.25 214.846ZM73.75 206.754C73.75 206.34 73.4142 206.004 73 206.004C72.5858 206.004 72.25 206.34 72.25 206.754L73.75 206.754ZM72.25 201.696C72.25 202.11 72.5858 202.446 73 202.446C73.4142 202.446 73.75 202.11 73.75 201.696L72.25 201.696ZM73.75 193.604C73.75 193.19 73.4142 192.854 73 192.854C72.5858 192.854 72.25 193.19 72.25 193.604L73.75 193.604ZM72.25 188.546C72.25 188.96 72.5858 189.296 73 189.296C73.4142 189.296 73.75 188.96 73.75 188.546L72.25 188.546ZM73.75 180.454C73.75 180.04 73.4142 179.704 73 179.704C72.5858 179.704 72.25 180.04 72.25 180.454L73.75 180.454ZM72.25 175.396C72.25 175.81 72.5858 176.146 73 176.146C73.4142 176.146 73.75 175.81 73.75 175.396L72.25 175.396ZM73.75 167.304C73.75 166.89 73.4142 166.554 73 166.554C72.5858 166.554 72.25 166.89 72.25 167.304L73.75 167.304ZM72.25 162.246C72.25 162.66 72.5858 162.996 73 162.996C73.4142 162.996 73.75 162.66 73.75 162.246L72.25 162.246ZM73.75 154.154C73.75 153.74 73.4142 153.404 73 153.404C72.5858 153.404 72.25 153.74 72.25 154.154L73.75 154.154ZM72.25 149.096C72.25 149.51 72.5858 149.846 73 149.846C73.4142 149.846 73.75 149.51 73.75 149.096L72.25 149.096ZM73.75 141.004C73.75 140.59 73.4142 140.254 73 140.254C72.5858 140.254 72.25 140.59 72.25 141.004L73.75 141.004ZM72.25 135.946C72.25 136.36 72.5858 136.696 73 136.696C73.4142 136.696 73.75 136.36 73.75 135.946L72.25 135.946ZM73.75 127.854C73.75 127.44 73.4142 127.104 73 127.104C72.5858 127.104 72.25 127.44 72.25 127.854L73.75 127.854ZM72.25 122.796C72.25 123.21 72.5858 123.546 73 123.546C73.4142 123.546 73.75 123.21 73.75 122.796L72.25 122.796ZM73.75 114.704C73.75 114.29 73.4142 113.954 73 113.954C72.5858 113.954 72.25 114.29 72.25 114.704L73.75 114.704ZM72.25 109.646C72.25 110.06 72.5858 110.396 73 110.396C73.4142 110.396 73.75 110.06 73.75 109.646L72.25 109.646ZM73.75 101.554C73.75 101.14 73.4142 100.804 73 100.804C72.5858 100.804 72.25 101.14 72.25 101.554L73.75 101.554ZM72.25 96.4962C72.25 96.9105 72.5858 97.2462 73 97.2462C73.4142 97.2462 73.75 96.9105 73.75 96.4962L72.25 96.4962ZM73.75 88.4039C73.75 87.9897 73.4142 87.6539 73 87.6539C72.5858 87.6539 72.25 87.9897 72.25 88.4039L73.75 88.4039ZM72.25 83.3463C72.25 83.7605 72.5858 84.0963 73 84.0963C73.4142 84.0963 73.75 83.7605 73.75 83.3463L72.25 83.3463ZM73.75 75.2539C73.75 74.8397 73.4142 74.5039 73 74.5039C72.5858 74.5039 72.25 74.8397 72.25 75.2539L73.75 75.2539ZM72.25 70.1963C72.25 70.6105 72.5858 70.9463 73 70.9463C73.4142 70.9463 73.75 70.6105 73.75 70.1963L72.25 70.1963ZM73.75 62.1039C73.75 61.6897 73.4142 61.3539 73 61.3539C72.5858 61.3539 72.25 61.6897 72.25 62.1039L73.75 62.1039ZM72.25 57.0463C72.25 57.4605 72.5858 57.7963 73 57.7963C73.4142 57.7963 73.75 57.4605 73.75 57.0463L72.25 57.0463ZM69.9205 49.9007C69.5825 49.6613 69.1144 49.7414 68.875 50.0794C68.6357 50.4175 68.7157 50.8856 69.0538 51.1249L69.9205 49.9007ZM64.6627 48.016C65.0008 48.2553 65.4689 48.1753 65.7082 47.8373C65.9476 47.4992 65.8676 47.0311 65.5295 46.7917L64.6627 48.016ZM58.5039 41.8174C58.1658 41.578 57.6977 41.6581 57.4584 41.9961C57.219 42.3342 57.299 42.8022 57.6371 43.0416L58.5039 41.8174ZM53.2461 39.9326C53.5841 40.172 54.0522 40.092 54.2916 39.7539C54.5309 39.4158 54.4509 38.9478 54.1128 38.7084L53.2461 39.9326ZM47.0872 33.734C46.7492 33.4947 46.2811 33.5747 46.0417 33.9128C45.8024 34.2508 45.8824 34.7189 46.2204 34.9583L47.0872 33.734ZM41.8294 31.8493C42.1675 32.0887 42.6355 32.0086 42.8749 31.6706C43.1143 31.3325 43.0342 30.8644 42.6962 30.6251L41.8294 31.8493ZM35.6705 25.6507C35.3325 25.4113 34.8644 25.4914 34.6251 25.8294C34.3857 26.1675 34.4657 26.6356 34.8038 26.8749L35.6705 25.6507ZM30.4127 23.766C30.7508 24.0053 31.2189 23.9253 31.4582 23.5872C31.6976 23.2492 31.6176 22.7811 31.2795 22.5418L30.4127 23.766ZM24.2539 17.5674C23.9158 17.328 23.4477 17.4081 23.2084 17.7461C22.969 18.0842 23.049 18.5523 23.3871 18.7916L24.2539 17.5674ZM18.9961 15.6826C19.3341 15.922 19.8022 15.842 20.0416 15.5039C20.2809 15.1658 20.2009 14.6978 19.8629 14.4584L18.9961 15.6826ZM12.8372 9.48404C12.4992 9.2447 12.0311 9.32471 11.7917 9.66276C11.5524 10.0008 11.6324 10.4689 11.9704 10.7083L12.8372 9.48404ZM7.57941 7.59928C7.91746 7.83863 8.38555 7.75864 8.62491 7.42057C8.86426 7.08253 8.78425 6.61442 8.44619 6.37507L7.57941 7.59928ZM73.75 447.5L73.75 443.454L72.25 443.454L72.25 447.5L73.75 447.5ZM73.75 438.396L73.75 430.304L72.25 430.304L72.25 438.396L73.75 438.396ZM73.75 425.246L73.75 417.154L72.25 417.154L72.25 425.246L73.75 425.246ZM73.75 412.096L73.75 404.004L72.25 404.004L72.25 412.096L73.75 412.096ZM73.75 398.946L73.75 390.854L72.25 390.854L72.25 398.946L73.75 398.946ZM73.75 385.796L73.75 377.704L72.25 377.704L72.25 385.796L73.75 385.796ZM73.75 372.646L73.75 364.554L72.25 364.554L72.25 372.646L73.75 372.646ZM73.75 359.496L73.75 351.404L72.25 351.404L72.25 359.496L73.75 359.496ZM73.75 346.346L73.75 338.254L72.25 338.254L72.25 346.346L73.75 346.346ZM73.75 333.196L73.75 325.104L72.25 325.104L72.25 333.196L73.75 333.196ZM73.75 320.046L73.75 311.954L72.25 311.954L72.25 320.046L73.75 320.046ZM73.75 306.896L73.75 298.804L72.25 298.804L72.25 306.896L73.75 306.896ZM73.75 293.746L73.75 285.654L72.25 285.654L72.25 293.746L73.75 293.746ZM73.75 280.596L73.75 272.504L72.25 272.504L72.25 280.596L73.75 280.596ZM73.75 267.446L73.75 259.354L72.25 259.354L72.25 267.446L73.75 267.446ZM73.75 254.296L73.75 246.204L72.25 246.204L72.25 254.296L73.75 254.296ZM73.75 241.146L73.75 233.054L72.25 233.054L72.25 241.146L73.75 241.146ZM73.75 227.996L73.75 219.904L72.25 219.904L72.25 227.996L73.75 227.996ZM73.75 214.846L73.75 206.754L72.25 206.754L72.25 214.846L73.75 214.846ZM73.75 201.696L73.75 193.604L72.25 193.604L72.25 201.696L73.75 201.696ZM73.75 188.546L73.75 180.454L72.25 180.454L72.25 188.546L73.75 188.546ZM73.75 175.396L73.75 167.304L72.25 167.304L72.25 175.396L73.75 175.396ZM73.75 162.246L73.75 154.154L72.25 154.154L72.25 162.246L73.75 162.246ZM73.75 149.096L73.75 141.004L72.25 141.004L72.25 149.096L73.75 149.096ZM73.75 135.946L73.75 127.854L72.25 127.854L72.25 135.946L73.75 135.946ZM73.75 122.796L73.75 114.704L72.25 114.704L72.25 122.796L73.75 122.796ZM73.75 109.646L73.75 101.554L72.25 101.554L72.25 109.646L73.75 109.646ZM73.75 96.4962L73.75 88.4039L72.25 88.4039L72.25 96.4962L73.75 96.4962ZM73.75 83.3463L73.75 75.2539L72.25 75.2539L72.25 83.3463L73.75 83.3463ZM73.75 70.1963L73.75 62.1039L72.25 62.1039L72.25 70.1963L73.75 70.1963ZM73.75 57.0463L73.75 53L72.25 53L72.25 57.0463L73.75 57.0463ZM73.4334 52.3879L69.9205 49.9007L69.0538 51.1249L72.5666 53.6121L73.4334 52.3879ZM65.5295 46.7917L58.5039 41.8174L57.6371 43.0416L64.6627 48.016L65.5295 46.7917ZM54.1128 38.7084L47.0872 33.734L46.2204 34.9583L53.2461 39.9326L54.1128 38.7084ZM42.6962 30.6251L35.6705 25.6507L34.8038 26.8749L41.8294 31.8493L42.6962 30.6251ZM31.2795 22.5418L24.2539 17.5674L23.3871 18.7916L30.4127 23.766L31.2795 22.5418ZM19.8629 14.4584L12.8372 9.48404L11.9704 10.7083L18.9961 15.6826L19.8629 14.4584ZM8.44619 6.37507L4.93337 3.88791L4.0666 5.1121L7.57941 7.59928L8.44619 6.37507Z" fill="#3CA3C8"/>
</svg>
